<?xml version="1.0" encoding="UTF-8"?>
<svg id="Capa_1" xmlns="http://www.w3.org/2000/svg" version="1.1" viewBox="0 0 1920 1080">
  <!-- Generator: Adobe Illustrator 30.4.0, SVG Export Plug-In . SVG Version: 2.1.4 Build 226)  -->
  <defs>
    <style>
      .st0, .st1 {
        fill: #78a2d2;
      }

      .st1 {
        stroke: #78a2d2;
        stroke-miterlimit: 10;
      }
    </style>
  </defs>
  <path class="st0" d="M387.75,232c29.71,16.58,24.85,52.16,8.33,75.22-7.46,10.42-16.27,20-26.51,27.87-23.96,18.44-58.07,15.26-84.44,1.15-17.88-9.56-28.52-29.55-31.04-48.66-2.69-20.49,3.13-42.43,25.41-47.8,9.94-2.38,20.32-.85,30.11,2.8,25.43,9.46,35.84-6.81,50.22-12.57,9.19-3.67,19.23-2.88,27.91,1.97h0v.02h.01ZM377.55,247.48c-3.87-.27-7.16.16-10.55,1.72-7.73,3.54-15,7.55-22.5,11.54-9.7,5.17-20.49,4.97-30.61.31-6.23-2.87-12.38-5.29-18.9-6.32-12.59-1.98-22.79,5.46-24.53,18.15-1.63,11.89,1.8,24.29,8.31,34.8,3.72,6.01,8.54,10.1,14.6,13.22,5.7,2.95,11,5.35,17.27,7.11,14.38,4.05,29.53,3.42,42.69-4.06,15.17-8.61,27.2-21.99,34.77-37.66,6.64-13.76,4.85-37.76-10.55-38.82v-.02.03Z"/>
  <path class="st0" d="M1866.84,331.85c32.23,18.7,24.82,57.2,5.11,81.86-8.91,11.14-19.27,21.32-31.13,29.63-27.76,19.44-65.64,15.2-94.28-.75-19.41-10.8-30.18-32.76-31.93-53.54-1.86-22.31,5.85-45.99,31-51.27,11.21-2.37,22.72-.44,33.45,3.74,27.85,10.88,40.37-6.55,56.74-12.45,10.45-3.77,21.62-2.67,31.04,2.8h0v-.02h0ZM1854.59,348.42c-4.31-.38-7.99,0-11.86,1.61-8.82,3.66-17.14,7.83-25.75,12-11.11,5.38-23.15,4.92-34.17-.38-6.79-3.26-13.52-6.04-20.74-7.31-13.95-2.45-25.73,5.4-28.38,19.12-2.48,12.86.66,26.41,7.34,37.97,3.83,6.6,8.97,11.15,15.56,14.71,6.2,3.34,11.96,6.06,18.88,8.12,15.82,4.72,32.75,4.41,47.85-3.39,17.41-8.99,31.56-23.23,40.89-40.06,8.18-14.78,7.51-40.87-9.6-42.39h-.02Z"/>
  <path class="st0" d="M765.48,892.51c39.95,23.17,30.76,70.9,6.32,101.45-11.05,13.81-23.9,26.42-38.58,36.71-34.4,24.1-81.35,18.84-116.84-.92-24.06-13.39-37.4-40.59-39.57-66.35-2.32-27.64,7.26-56.99,38.43-63.55,13.9-2.92,28.15-.54,41.46,4.64,34.53,13.48,50.02-8.12,70.32-15.44,12.96-4.68,26.78-3.31,38.47,3.46h-.01ZM750.29,913.05c-5.33-.48-9.91.01-14.7,2-10.93,4.53-21.25,9.71-31.9,14.87-13.77,6.66-28.68,6.1-42.36-.48-8.41-4.04-16.76-7.49-25.69-9.05-17.28-3.03-31.9,6.69-35.17,23.7-3.07,15.94.82,32.74,9.1,47.06,4.74,8.19,11.11,13.82,19.28,18.23,7.68,4.14,14.82,7.51,23.4,10.06,19.61,5.85,40.59,5.47,59.31-4.2,21.58-11.15,39.12-28.79,50.67-49.65,10.14-18.32,9.31-50.66-11.9-52.54h-.04Z"/>
  <path class="st0" d="M1651.99,204.33c23.02,33.05,33.95,30.06,47.88,45.18,6.62,7.2,10.98,16.59,11.2,27.85.23,11.67-6.17,22.11-15.63,26.05-19.5,8.13-37.34-3.5-55.08-11.27-17.03-7.45-33.82-14-52.05-17.56-8.07-1.57-15.98-3.27-22.27-9.51-8.36-8.28-13.84-19.45-16.49-32.93-6.2-31.53.71-67.84,18.7-95.41,12.07-18.5,30.57-22.11,43.37-9.62,5.87,5.73,9.88,12.97,13.28,21.39l12.5,30.88c3.86,9.54,9.04,16.93,14.61,24.92h-.02s0,.01,0,.01h0ZM1623.69,198.69c-6.87-14.12-12.3-28.05-16.65-43.79-2.63-9.54-10.42-15.14-18.81-10.95-4.25,2.12-6.99,7.89-8.07,12.98-7.64,13.58-10.56,28.24-12.37,43.58-1.97,16.65.87,31.82,10.66,42.85,4.03,4.53,9.89,6.18,15.61,7.17,12.62,2.2,24.55,4.74,36.39,9.98l38.65,17.14c5.23,2.32,10.5,3.47,16.23,3.16,1.81-.1,5.07-2.17,3.99-4.78-8.61-20.68-38-20.58-65.61-77.34h0l-.02-.02Z"/>
  <path class="st1" d="M1549.1,552.56c-39.63,16.25-41.52,28.28-61.09,39.24-9.3,5.21-19.64,7.56-29.94,5.2-10.66-2.45-17.41-11.49-16.99-22.22.86-22.1,18.92-37.92,33.44-54.52,13.94-15.94,26.94-31.83,37.85-49.93,4.83-8,9.71-15.82,18-20.91,11.02-6.75,23.44-9.87,36.77-9.51,31.16.85,61.11,16.38,78.48,41.39,11.66,16.79,7.12,36.81-9.59,47.19-7.67,4.77-15.9,7.24-24.96,8.85l-33.22,5.84c-10.26,1.8-19.13,5.47-28.72,9.4h-.01l-.02-.02h0ZM1566.12,524.53c15.67-3.87,30.57-6.3,46.66-7.16,9.74-.52,18.09-7.31,17.85-16.99-.13-4.89-4.19-9.05-8.35-11.36-9.07-11.05-21.11-17.46-34.23-22.88-14.24-5.89-29.18-6.43-43.27,1.17-5.8,3.13-9.77,8.83-13.08,14.52-7.31,12.58-14.65,24.37-24.39,35.43l-31.81,36.13c-4.3,4.88-7.56,10.09-9.71,16.1-.67,1.91-.18,5.77,2.65,5.24,22.35-4.16,34.65-34.65,97.69-50.21h-.01Z"/>
  <path class="st0" d="M1252.97,617.73c29.77,17.39,18.56,72.55,7.53,96.65-5.51,12.06-17.11,21.48-30.23,24.51-12.98,2.99-25.62-.69-37.4-5.82-18.93-8.23-35.86-18.44-54.04-28l-27.6-14.53c-13.64-7.18-19.84-22.49-13.51-36.58,4.52-10.08,13.03-20.5,24.69-23.75,30.62-8.54,61.13-13.2,92.61-19.46,12.75-2.55,27.19.7,37.95,6.98h0ZM1242.23,673.5c.56-10.09,1.54-18.43-2.55-27.35-2.66-5.79-8.07-10.9-15.84-8.99-28.06,6.93-55.97,12.35-84.63,16.33-4.43.61-7.48,4.69-7.45,7.68.04,3.77,2.62,5.91,6.14,7.66,21.13,10.55,38.93,25.97,61.94,37.34,6.64,3.28,15.19,5.02,21.95,2.08,14.36-6.22,19.63-20.14,20.44-34.77h-.01.01v.02Z"/>
  <path class="st0" d="M649.37,944.94c-15.14,9.01-9.44,37.55-3.84,50.03,2.8,6.23,8.7,11.12,15.38,12.69,6.6,1.55,13.04-.36,19.03-3.01,9.63-4.26,18.24-9.55,27.49-14.5l14.04-7.51c6.94-3.72,10.1-11.64,6.88-18.93-2.31-5.22-6.63-10.61-12.57-12.29-15.57-4.42-31.1-6.82-47.12-10.08-6.49-1.32-13.84.36-19.31,3.61h.02ZM654.83,973.8c-.28-5.22-.79-9.53,1.31-14.15,1.36-2.99,4.11-5.64,8.06-4.64,14.28,3.58,28.48,6.39,43.07,8.45,2.26.32,3.8,2.43,3.79,3.98-.03,1.95-1.33,3.06-3.13,3.97-10.76,5.46-19.8,13.44-31.52,19.33-3.37,1.7-7.73,2.6-11.17,1.08-7.3-3.22-9.98-10.42-10.4-18h.01l-.02-.02h0Z"/>
  <path class="st0" d="M1050.84,296.66c-12.92,18.2-37.18,18.06-54.2,40.62-7.43,9.84-12.12,21.2-10.3,33.75,2.05,14.24,10.09,27.74,21.35,36.76,20.74,16.61,52,12.22,74.2,1.73l36.19-17.1c23.97-11.32,47.59-2.52,68.16,10.43,17.38,10.95,32.54,23.67,47.75,37.4,6.4,5.78,12.01,11.75,19.27,16.32,10.47,6.59,21.39,9.23,33.65,9.94,16,.93,30-6.04,37.9-20.03,5.93-10.51,7.84-22.14,8.25-34.34,1.3-38.42-11.72-45.02-10.14-62.02,1.93-20.69,21.09-26.5,34.98-42.55,9.13-10.56,14.41-23.12,14.12-37.04-.29-14.08-9.93-24.53-24.19-26.9-29.53-4.91-66.58,15.38-94.34,21.34-22.52,4.83-43.98-4.63-55.2-24.12-6.09-10.59-11.15-21.02-14.59-32.97-6.5-22.58-6.31-46.17,1.34-68.44,4.55-13.26,3.8-32.18-11.05-37.45-17.49-6.21-34.21,15.44-42.65,28.87-5.18,8.24-9.63,16.55-17.16,22.73-22.52,18.5-34.94,4.11-53.65,17.76-20.3,14.8-19.34,42.49-13.36,64.2,3.61,13.08,6.29,25.96,8.64,39.45,1.24,7.12-.55,15.51-4.93,21.67h-.04ZM1074.68,254.27l-6.85-26.32c-2.27-8.74-2.83-17.36-1.47-26.26,1.17-7.65,6.97-13.6,15.21-14.46,8.67-.9,17.17-1.28,25.81-4.21,15.72-5.32,28.06-16.28,36.82-30.29,5.98-9.57,11.15-19.19,19.88-27.21,3.13,4.16,1.17,8.22-.25,12.27-15.34,43.49-2.88,83.61,20.28,121.41,3.3,5.37,6.9,9.82,11.97,13.6,27.04,20.2,52.59,18.58,83.12,8.08l27.5-9.46c9.69-3.34,28.4-7.82,38.1-5.33,4.72,1.21,6.32,4.99,5.77,9.49-1.29,10.35-7.38,18.86-15.73,25.44-30.45,24.02-40.57,38.27-27.89,77.98,5.03,15.76,6.18,32.77,2.75,48.9-1.99,9.31-9.46,15.16-18.55,16.04-10.85,1.06-21.25-1.08-29.44-8.28l-27.73-24.36c-11.23-9.86-22.63-18.31-35.34-26.22-26.05-16.21-56.21-26.95-86.27-13.22l-41.05,18.74c-10.96,5.01-22.65,7.64-34.5,6.32-11.26-1.26-19.29-7.43-24.7-16.63-5.96-10.12-5.6-21.75,2.59-30.72,7-7.67,15.67-12.92,25.29-17.11,31.52-13.73,42.99-46.35,34.71-78.19h-.03Z"/>
  <path class="st0" d="M1757.3,624.1c-15-18.81-13.5-52.61-32.05-77.32-8.09-10.78-17.65-17.81-28.6-15.83-12.43,2.24-24.57,12.87-33.01,28.17-15.54,28.2-13.53,71.97-5.71,103.36l12.73,51.19c8.43,33.9-.53,66.46-12.9,94.58-10.46,23.76-22.32,44.34-35.06,64.95-5.37,8.67-10.85,16.24-15.21,26.15-6.3,14.32-9.2,29.42-10.51,46.48-1.72,22.26,3.51,42.09,15.17,53.71,8.75,8.72,18.7,11.89,29.23,12.99,33.15,3.48,39.61-14.4,54.21-11.44,17.79,3.59,21.72,30.56,34.81,50.61,8.61,13.19,19.18,21.09,31.23,21.29,12.2.2,21.78-12.78,24.64-32.55,5.92-40.96-9.52-93.48-13.09-132.45-2.9-31.61,6.51-61.12,24.01-75.92,9.5-8.04,18.81-14.63,29.34-18.92,19.9-8.09,40.29-6.79,59.12,4.83,11.21,6.92,27.62,6.69,33.02-13.79,6.37-24.11-11.4-48.36-22.54-60.71-6.83-7.58-13.77-14.15-18.69-24.9-14.72-32.2-1.56-48.88-12.31-75.56-11.65-28.94-35.65-28.81-54.76-21.41-11.52,4.46-22.81,7.64-34.61,10.34-6.23,1.42-13.38-1.44-18.47-7.81v-.04h.01ZM1792.6,659.16l23.15-8.41c7.69-2.79,15.17-3.2,22.8-.91,6.55,1.96,11.37,10.31,11.64,21.83.29,12.12.13,23.99,2.17,36.17,3.71,22.15,12.48,39.82,24.1,52.65,7.93,8.75,15.96,16.38,22.4,28.89-3.77,4.18-7.18,1.28-10.6-.89-36.74-23.27-72.15-7.63-106.16,23.02-4.83,4.36-8.89,9.19-12.45,16.1-19.01,36.83-19.07,72.52-11.72,115.53l6.62,38.74c2.33,13.65,5.14,39.93,2.44,53.35-1.31,6.53-4.67,8.6-8.54,7.63-8.88-2.25-15.9-11.1-21.11-23.04-19.04-43.49-30.79-58.22-65.86-42.26-13.91,6.33-28.7,7.2-42.45,1.72-7.94-3.17-12.57-13.84-12.82-26.56-.3-15.17,2.14-29.58,8.84-40.69l22.65-37.61c9.17-15.23,17.13-30.76,24.69-48.13,15.5-35.61,26.5-77.19,16.34-119.71l-13.87-58.04c-3.71-15.49-5.32-31.91-3.5-48.37,1.73-15.64,7.52-26.57,15.79-33.71,9.1-7.87,19.13-6.86,26.42,4.94,6.23,10.09,10.28,22.41,13.36,36,10.08,44.53,37.65,61.95,65.66,51.77v-.02h0Z"/>
  <path class="st0" d="M1089.02,324.97c-8.06,5.87-8.49,16.29-2.77,23.77,9.44,12.34,33.55,3.28,44.72-3.05,20.99-11.88,40.69-3.93,58.7,8.49l17.93,12.35c6.3,4.34,13.89,6.47,21.66,5.93,7.73-.54,13.74-5.23,16.23-12.3,3.38-9.6-2.17-17.03,3.6-23.13,6.48-6.86,13.44-13.71,9.19-23.69-2.3-5.39-7.09-10.16-14.25-10.69-6.63-.49-13.61-1.13-20.39-.69-9.79.65-18.98-.57-27.35-5.84-7.01-4.42-13.12-9.61-18.77-15.68-11.22-12.05-40.08-40.34-57.45-25.35-11.59,10-6.58,24.53-11.29,41.3-3.28,11.71-9.65,21.2-19.77,28.57h.01ZM1112.44,322.69c8.87-6.37,13.67-15.86,14.94-26.45,1.45-12.17-3.52-20.92,1.97-27.08,2.15-2.41,5.75-2.44,8.69-.98,16.32,8.07,25.14,23.8,40.53,35.17,16.9,12.49,37.35,16.98,58.32,13.45,2.52-.43,5.18.57,5.79,2.63,1.94,6.62-11.64,6.63-14.24,19.29-1.98,9.66,6.77,15.1-1.82,18.02-1.97.67-4.37.02-6.16-1.39l-15.67-12.29c-21.49-16.86-48.51-25.11-74.3-11.41-4.72,2.5-9.17,4.59-14.31,6.13-1.51.45-11.24,5.41-14.19-.45-2.9-5.75,6.24-11.61,10.46-14.65h-.01,0Z"/>
  <path class="st0" d="M1255.28,94.43c5.51,22.02-15.84,70.46-16.28,78.41-.11,1.95-.13,3.89-.13,3.89-.03,2.42.05,4.85.23,7.37.44,6,3.86,12.33,8.22,16.85,6,6.21,15.88,9.44,24.46,7.2,11.53-3.01,22.48-15.78,28.63-25.2,12.94-19.83,28.77-37.81,51.1-47.83,22.37-10.05,46.85-11.96,71.07-8.49,15.52,2.22,29.27,7.65,41.12,17.75,19.21,16.38,26.58,42.06,19.6,66.14-11.17,38.5-40.77,61.73-68.62,86.04l-15.55,13.57c-17.6,15.36-33.19,36.48-20.09,59.65,5.52,9.77,12.63,18.22,19.51,27.14l10.85,14.06c17.49,22.66,24.73,47.46,11.59,74.54-15.23,31.4-44.87,51.77-79.61,59.15-40.55,8.6-83.3.83-117.43-21.89-6.57-4.37-11.7-9.39-17.57-14.38l-35.27-30.01c-3.13-2.66-6.46-4.45-9.93-6.69-22.65-14.63-50.16-18.21-76.04-9.5-17.03,5.74-32.91,11.83-50.29,16.69-26.83,7.51-54.83,2.15-76.34-15.24-18.79-15.19-28.1-37.47-28.96-61.28-1.3-36.02,17.99-66.89,36.46-96.55,6.35-10.19,12.5-19.74,17.89-30.46,11.19-22.25,12.87-46.5,1.4-68.94-5.5-10.76-10.01-21.43-14.32-32.73-7.33-19.22-7.68-39.74,2.37-55.68,2.44-3.86,6.99-10.07,18.35-17.18,30.62-19.17,66.89-17.95,85.53-15.92,10.63-.17,21.27-.34,31.9-.5,4.12-.07,8.59-1.29,11.53-3.69,13.69-11.16,42.98-26.29,79.98-19.55,5.37.98,48.52,8.84,54.63,33.26h.01ZM1357.67,518.77c19.07-7.87,34.38-21.54,43.98-39.04,7.76-14.13,7.6-29.84-.21-43.8-10.56-18.87-29.17-37.11-38.76-54.43-21.26-38.43-.31-66.07,29.08-91.19l16.26-13.9c8.21-7.03,16.29-13.72,23.8-21.49,15.71-16.24,33.06-38.05,33.89-61.02.66-18.01-9.74-33.59-26.53-41.24-11.03-5.02-22.62-6.83-34.94-7.51-21.94-1.21-42.99,4.92-59.76,18.46-20.31,16.38-23.42,30.11-39.76,47.02-2.99,3.1-6.25,5.2-9.51,7.68-14.01,10.67-32.09,13.85-48.26,6.82-13.18-5.73-22.55-15.56-25.6-29.35-7.92-35.89,9.55-54.31,16.27-87.43,2.24-11.06-4.53-17.68-12.18-21.14-11.73-5.31-18.16-7.89-31.25-9.38-8.8-1-22.41-.83-27.24.26-8.84,1.99-16.4,3.81-21.06,6.18-5.02,2.55-8.85,6.47-12.98,9.98-11.96,10.17-27.71,14.11-43.76,13.02-14.07-.96-27.44-2.37-41.36-1.52-26.63,1.62-64.42,11.92-60.12,44.98,1.25,9.66,4.64,18.74,8.59,27.71l8.34,18.93c7.42,16.83,12.13,34.34,9.77,52.74-1.74,13.65-5.74,26.36-12.79,38.19l-14.19,23.82c-9.57,16.05-19.28,31.3-27.39,48.18-8.61,17.93-11.12,37.48-6.57,56.66,8.58,36.16,46.94,53.69,83.76,41.01l-.02-.02,40.04-13.78c31.51-10.84,64.25-7.85,92.83,8.92,35.92,21.07,59.06,57.89,101.15,70.04,28.53,8.24,58.94,7,86.47-4.36h.01Z"/>
  <path class="st0" d="M862.29,352.69c8.2-2.21,15.51-7.63,20.03-14.75,10.31-16.22,12.26-34.45,7.89-52.93-4.3-18.18-11.26-34.54-21.22-50.31-6.17-9.78-13.16-18.28-20.49-27.27-22-27.01-39.32-60.74-39.27-96.32.02-9.29,2.36-17.93,4.38-26.88,3.36-14.86,4.24-34.98.71-44.29,0,0-8.21-29.76-39.64-28.99-22.59.56-35.23,15.14-38.35,23.18-2.57,6.62-2.71,8.83-3.79,14.05-3.9,28.22,3.14,67.3,10.54,95.17l3.58,13.51c8.09,30.5,21.53,56.64,44.68,78.39,5.17,4.86,9.78,9.12,14.28,14.78,12.15,15.28,19.49,33.58,20.79,53.45.74,11.24,1.4,21.89,5,32.44,4.47,13.13,17.16,20.47,30.87,16.77h0ZM850.22,332.8c-3.15-3.14-2.84-8.01-3.44-12.06l-5.21-35.44c-4.05-27.58-22.52-47.07-39.77-66.2-25.8-28.61-40.08-56.98-46.31-94.91l-5.15-31.33c-1.05-6.33-1.64-39.19.87-46.38l-1.25.11c.41-.04,1.14.29,1.25-.11,5.38-19.72,37.38-19.86,46.32-3.07,5.33,11.33.96,28.06-2.47,40.63h.01c-5.8,21.24-5.55,42.03.54,63,6.06,20.88,15.82,39.66,27.89,57.69,7.85,11.72,16.49,21.82,25,33,13.53,17.76,22.07,37.91,24.86,60.16,1.54,12.24-1.67,24.21-9.79,33.28-3.23,3.61-9.89,5.09-13.35,1.63Z"/>
  <path class="st0" d="M576.76,840.37c.06,8.75,2.33,16.9,6.16,22.33,8.72,12.38,20.12,16.28,32.72,13.64,12.4-2.6,24.08-8.15,35.87-16.88,7.31-5.41,13.94-11.8,20.94-18.49,21.02-20.08,45.58-34.61,68.45-30.91,5.97.98,11.14,4.29,16.56,7.31,9,5.02,21.79,8,28.36,5.29,0,0,20.5-5.47,25.22-38.21,3.39-23.53-3.89-38.16-8.54-42.23-3.83-3.35-5.23-3.72-8.4-5.38-17.5-6.95-43.79-3.65-62.94,1.17l-9.28,2.33c-20.95,5.27-39.99,16.55-57.82,38.37-3.98,4.87-7.49,9.22-11.87,13.32-11.84,11.05-24.83,16.8-37.82,16.11-7.35-.39-14.31-.79-21.69,1.86-9.18,3.3-16.01,15.73-15.91,30.35h0ZM591.55,829.88c2.54-2.95,5.62-2.13,8.33-2.34l23.65-1.77c18.41-1.37,34-18.56,49.17-34.52,22.68-23.87,43.29-35.79,68.72-38.36l21-2.13c4.24-.44,25.47,2.32,29.68,5.67l.14-1.31c-.04.43-.38,1.15-.14,1.31,11.79,7.62,6.56,40.88-5.72,48.44-8.17,4.37-18.2-1.89-25.71-6.74h0c-12.69-8.2-26.1-10.07-40.6-5.9-14.43,4.15-28.13,12.36-41.72,23.05-8.84,6.95-16.77,14.89-25.37,22.58-13.67,12.23-28.04,19.04-42.81,19.65-8.13.34-15.29-4.22-19.77-13.59-1.78-3.73-1.63-10.8,1.17-14.04Z"/>
  <path class="st0" d="M1676.67,938.19c5.97,3.48,13.09,4.75,19.48,3.53,14.55-2.77,25.27-11.35,32.42-23.64,7.03-12.1,11.54-24.73,13.99-38.76,1.52-8.69,1.89-17.17,2.32-26.11,1.3-26.83,8.87-54.57,27.58-73.44,4.89-4.93,10.79-8.19,16.68-11.79,9.77-5.99,20.85-16.18,23.67-23.12,0,0,10.82-20.46-8-37.89-13.52-12.52-28.59-11.95-34.64-9.45-4.98,2.06-6.22,3.16-9.6,5.31-17.1,12.78-33.5,37.53-43.81,56.53l-4.99,9.21c-11.28,20.79-17.14,42.3-14.99,66.99.48,5.51.94,10.39.6,15.96-.91,15.01-6.22,28.9-15.89,40.19-5.47,6.39-10.67,12.42-14.11,20.07-4.28,9.51-.69,20.61,9.28,26.42h.01ZM1680.05,920.78c-.19-3.45,2.54-5.87,4.32-8.36l15.56-21.78c12.11-16.95,11.53-37.78,11.47-57.73-.09-29.83,6.45-53.01,22.71-76.69l13.44-19.57c2.71-3.96,19.62-21.75,24.87-24.14l-.79-.65c.26.21.51.8.79.65,13.51-7.42,32.33,10.66,28.75,24.65-2.83,9.05-14.17,15.45-22.79,20.18h.01c-14.55,8-25.33,19.19-32.77,33.78-7.41,14.53-11.56,30.04-13.96,46.47-1.56,10.68-1.8,20.95-2.69,31.71-1.41,17.11-6.98,32.66-17.03,46.06-5.53,7.38-13.69,11.91-23.21,12.12-3.79.09-8.47-2.91-8.68-6.71h0Z"/>
  <path class="st0" d="M665.35,341.1l.37-8.84c.82-19.63-13.67-58.04-23.28-77.02-11.86-23.45-25.26-45.51-42.84-65.02-14.36-15.94-31.43-32.29-52.66-38.29-17.67-4.99-36.46-2.44-52.39,6.67-12.34,7.05-17.89,20.83-14.74,34.6,5.42,23.7,27.43,43.3,50.72,50.42,27.27,8.34,43.85,21.66,55.73,47.76,6.18,13.6,8.87,27.36,11.94,41.89,3.17,14.96,10.88,28.65,23.43,36.76,12.04,7.79,26.22,5.42,35.04-5.16,5.87-7.03,7-15.29,8.68-23.78h0ZM620.14,335.65l-13.22-43.34c-10.31-33.78-30.82-55.29-64.69-65.79-8.29-2.57-15.99-6.93-23.03-11.67-7.31-4.93-12.75-11.52-17.08-18.88-4.88-8.28-2.46-17.86,6.58-22.15,15.34-7.27,33.37-4.87,47.76,4.25,8.6,5.45,15.33,12.07,22.33,19.32,25.34,26.22,43.16,58.25,56.84,91.95,5.78,14.25,8.84,29.21,9.79,44.6.4,6.4-1.11,18.37-8.21,19.6-7.22,1.25-15.1-11.4-17.08-17.91h.02-.02Z"/>
  <path class="st0" d="M661.89,423.28l-1.75-21.6c21.69-8.72,29.83-50.42,18.81-90.38-4.11-14.88-4.66-18.47-10.73-38.24l2-47.4-2,47.4-11.75-27.53c-9.32-21.83-18.67-43.08-30.34-63.67-5.79-10.21-12.51-18.62-20.66-26.92-30.81-31.38-69.19-43.48-112.38-32.97-13,3.16-24.48,9.28-33.5,19.12-9.68,10.57-16.25,23.75-19.24,37.84-2.41,11.39,0,22.81,6.22,32.46,13.72,21.3,36.76,35.44,60.53,43.42,9.29,3.12,18.33,6.2,26.69,11.19,13.77,8.23,24.62,18.83,32.56,32.84,7.83,13.81,12.91,28.84,14.85,44.91,2.31,19.04,9.2,36.63,23.66,49.52,6.43,5.74,12.95,10.39,21.45,12.54,12.65,3.2,25.38.48,36.55-5.52l-.96,22.98h0c-38.67,13.57-80.1-11.51-93.67-48.98-4.36-12.01-7.35-23.91-9-36.62-1.47-11.25-4.56-21.44-10.58-31.14-6.5-10.47-15.5-19.4-27.03-24.18l-30.43-12.6c-28.5-11.79-55.52-30.85-67.93-59.96-4.92-11.53-6.05-23.79-3.01-35.73,5.09-20,13.37-37.46,28.07-51.94,24.95-24.59,64.53-27.61,97.42-21.8,51.99,9.18,86.71,45.16,108.97,91.04l15.62,32.2h0s.4-.16,1.56,3.1c2.9,8.04,12.6,30.81,25.35,89.16,18.27,83.55-35.33,107.45-35.33,107.45h0Z"/>
  <path class="st0" d="M522.78,889.05l-25.56,14.29c7.58,32.22-32.57,73.42-86.1,90.67-19.93,6.42-24.39,8.5-51.37,16.29l-51.45,38.26,51.45-38.26-40.19,6.98c-31.87,5.53-63.13,10.6-95.49,12.4-16.05.9-30.84-.66-46.64-4-59.74-12.62-103.96-48.76-126.71-107.72-6.85-17.75-9.19-35.93-5.39-54.03,4.08-19.43,13.58-37.17,26.97-51.38,10.81-11.47,25.53-17.27,41.29-17.24,34.79.06,69.04,16.56,96.97,38.59,10.92,8.61,21.6,16.95,33.86,23.03,20.22,10.02,40.76,14.81,62.78,13.56,21.71-1.22,42.59-6.61,62.12-16.48,23.15-11.7,48.34-16.87,74.32-9.58,11.56,3.24,21.98,7.42,31.17,15.83,13.68,12.51,20.82,29.61,23.04,47.34l24.94-18.55h0c-15.73-55.94-76.9-85.86-129.68-73.5-16.92,3.96-32.63,9.43-48.17,17.11-13.76,6.79-27.64,10.86-43.3,11.09-16.91.25-34.1-3.61-48.66-13.61l-38.42-26.39c-35.98-24.72-78.9-42.19-121.39-34.8-16.83,2.93-31.46,10.88-42.39,23.51-18.31,21.16-31.22,44.16-35.69,72.49-7.58,48.09,20.68,97.11,53.48,131.55,51.83,54.43,119.84,68.19,188.97,59.7l48.52-5.96h0s.14.58,4.72-.49c11.31-2.66,44.55-8.47,120.03-37.6,108.09-41.72,91.99-123.1,91.99-123.1h-.02Z"/>
  <path class="st0" d="M1353.9,735.61l-5.16,8.58c-11.45,19.07-17.84,65.1-18.58,89.17-.91,29.73.46,58.92,7.38,87.84,5.64,23.61,13.75,49.12,31.61,66.58,14.86,14.53,34.92,22.17,55.69,21.75,16.08-.32,29.06-11.02,33.4-26.41,7.45-26.49-3.81-57.9-23.11-77.6-22.59-23.06-31.86-45.28-29.53-77.66,1.22-16.86,6.01-32,10.81-48.11,4.95-16.59,4.7-34.37-3.38-49.23-7.75-14.26-23.13-19.59-37.63-13.86-9.64,3.81-15.24,11.41-21.51,18.94h.01ZM1395.89,765.52l-10.33,50.24c-8.05,39.17.69,71.65,28.67,100.43,6.85,7.04,12.14,15.55,16.57,24.08,4.6,8.86,6.43,18.36,6.75,28.01.36,10.87-7.23,19.09-18.53,18.45-19.18-1.08-35.81-13.24-45.18-30.09-5.59-10.07-8.7-20.3-11.73-31.3-10.99-39.79-11.35-81.28-6.7-122.19,1.97-17.3,7.04-33.83,14.43-49.64,3.08-6.58,11.05-17.66,18.78-15.04,7.85,2.66,8.83,19.52,7.28,27.05h-.01Z"/>
  <path class="st0" d="M1401.85,655.79l-9.96,22.42c-26.28-3.08-56.97,33.96-67.64,79.66-3.98,17.02-5.38,20.88-10.04,43.83l-27.66,46.04,27.66-46.04-3.23,33.72c-2.56,26.74-4.78,52.94-4.32,79.72.23,13.28,2.35,25.29,5.96,37.95,13.63,47.88,45.23,80.69,93.85,93.63,14.64,3.89,29.36,4.04,43.65-.86,15.35-5.25,29.01-14.8,39.62-27.2,8.56-10.01,12.35-22.68,11.4-35.63-2.1-28.6-17.34-55.14-36.65-75.94-7.55-8.13-14.86-16.1-20.46-25.58-9.23-15.64-14.28-32.06-14.57-50.28-.3-17.97,2.8-35.66,9.56-52.69,8.02-20.18,10.68-41.39,3.3-62.04-3.28-9.19-7.25-17.34-14.53-24.08-10.84-10.02-24.97-14.22-39.32-14.3l13.41-22.32h0c45.79,7.46,73.39,54.82,66.58,99.42-2.18,14.3-5.65,27.75-10.88,41.27-4.64,11.98-7.09,23.78-6.35,36.69.8,13.93,4.91,27.68,13.78,38.67l23.43,29.01c21.94,27.16,38.48,60.73,35.06,96.39-1.36,14.12-6.88,26.93-16.36,37.15-15.89,17.13-33.58,29.99-56.04,36.43-38.12,10.94-79.1-7.5-108.65-31.09-46.7-37.28-61.74-91.85-59-149.51l1.92-40.47h0s-.48-.06.12-3.93c1.47-9.56,4.17-37.45,23.09-102.36,27.09-92.95,93.31-87.67,93.31-87.67h-.04Z"/>
  <path class="st0" d="M1248.55-327.32"/>
  <path class="st0" d="M1102.9,1026.04c-2.99-21.41-16.19-37.7-24.15-45.79-4.62-4.7-7.74-10.69-8.93-17.17-3.48-19.09-1.79-39.92,6.03-65.44l14.65-47.81c8.07-26.32,15.78-54.07,10.86-81.61-3.2-17.86-17.28-29.47-35.52-29.85-25.24-.53-34.05,11.1-54.37,23.66-13.08,8.08-21.9,10.8-36.07,2.67l-36.62-21.02c-15.83-9.08-33.75-13.09-52.06-11.77-21.49,1.55-38.41,15.94-40.71,37.01-2.1,19.13,5.32,37.95,18.14,52.79,9.79,11.32,20.39,20.71,30.9,31.34,6.87,6.95,14.11,13.42,18.48,22.24,6.71,13.51,9.08,27.87,10.58,42.75h0c1.97,19.73-2.6,37.94-11.94,54.52-1.02,1.81-2.21,3.53-3.54,5.13-9.99,12.03-58.2,73.11-22.83,92.07,31.21,16.74,60.62-36.11,100.89-36.56,44.69-.5,33.82,43.69,70.81,46.53,39.45,3.03,49.75-22.58,45.41-53.72v.03ZM1075.16,1047.56c-.93,1.52-3.14,5.16-6.27,5.95-8.1,2.04-17.63-11.61-41.99-36.35-.68-.69-1.97-2.2-4.15-3.77-7.93-5.72-31.81-19-60.5,2.6-21.64,16.28-59.01,17.3-43.94-9.74,11.17-20.05,16.57-27.89,18.61-30.6,0,0,.03-.04.07-.1.74-1.03,1.36-2.14,1.84-3.32,1.14-2.81,2.29-5.93,3.45-9.43,6.17-18.61,6.99-37.57,3.56-57.06-5.25-29.69-20.36-55.93-42.13-77.26-8.08-7.93-15.55-15.31-22.86-23.78-8.99-10.42-13.88-23.74-10.1-36.76,5.03-17.38,31.06-14.21,44.78-8.89,14.27,5.54,27.04,12.85,39.82,21.05,6.01,3.86,12.5,6.49,19.03,9.27,10.52,4.49,22.03,4.22,32.94.45,22.2-7.67,33.67-24.58,54.15-28.28,22.57-4.07,17.76,33.81,15.13,46.45-4.66,22.43-10.78,43.8-17.8,65.53l-7.16,22.15c-11.99,36.4-10.88,62.86-3.22,78.92,15.56,32.59,36.72,56.71,26.74,72.97Z"/>
  <path class="st0" d="M1025.02,925.48l-4.48-30.4c-2.25-15.29-5.75-30.07-13.5-44.27-4.77-8.73-10.29-16.7-18.64-23.82-3.42-2.91-8.57-5-13.23-6.55-10.34-3.42-21.4.21-25.46,7.98-4.45,8.51-4.65,17.66-2.62,26.79,7.27,32.93,18.36,40.96,16.71,78.07h0c-.37,8.4-.96,16.66-2.2,24.94,0,0-1.88,23.33,21.39,27.56,7.25,1.32,19.69,2.6,31.27-5.18,9.84-6.61,12.69-17.77,13.29-20.72.09-.45.14-.91.15-1.35.3-11.06-1.02-21.93-2.67-33.05h0ZM1001.59,974.19c-7.52,2.53-14.6,1.65-19.36-3.86-4.55-5.26-2.58-14.1-2.58-14.1l1.59-15.65c2.67-26.03-6.48-55.38-15.35-80.51-2.72-7.72-3.15-15.25-3-23.14.06-2.82,4.27-5.84,8.01-4.47,2.71,1,4.73,3.26,6.48,5.15,10.86,11.75,19.36,24.62,21.92,38.92l7.51,41.86c2.45,13.7,4.08,27.08,3.72,40.75h.08c.54,5.4-.22,12.09-9.04,15.05h.01Z"/>
  <path class="st0" d="M133.77,273.07l30.59-21.72c15.38-10.91,29.47-23.07,40.42-40.02,6.72-10.42,12.18-21.34,15.03-35.21,1.17-5.67.41-12.98-.65-19.42-2.36-14.26-12.87-25.61-23.77-26.31-11.93-.77-22.05,3.9-30.83,11.24-31.7,26.43-33.93,44.07-75.47,62.04h0c-9.4,4.06-18.78,7.79-28.57,10.76,0,0-26.62,10.27-17.49,40.51,2.84,9.42,8.78,25.06,24.14,34.8,13.04,8.27,26.92,5.7,30.5,4.84.54-.13,1.07-.32,1.57-.55,12.27-5.59,23.37-13.01,34.55-20.96h0ZM66.68,271.08c-7.21-7.68-10.43-16.67-7.21-25.34,3.06-8.29,13.89-10.67,13.89-10.67l18.04-6.5c30.03-10.78,56.71-37.54,78.94-61.71,6.83-7.42,14.81-11.99,23.53-16.03,3.12-1.45,8.9,1.99,9.61,7.23.51,3.8-.77,7.44-1.8,10.55-6.43,19.36-15.48,36.5-29.59,47.26l-41.32,31.52c-13.53,10.31-27.19,19.46-42.34,26.37l.05.1c-5.58,3.55-13.34,6.24-21.8-2.78h0Z"/>
  <path class="st0" d="M204.08,969.02l52.19,8.25c26.25,4.15,52.07,6.49,78.43,3.19,16.19-2.03,31.39-5.37,46.16-12.69,6.04-3,11.31-8.55,15.51-13.75,9.31-11.52,7.1-27.18-4.43-35.88-12.63-9.53-27.79-13.97-43.7-15.59-57.37-5.87-74.61,4.48-135.85-14.61h0c-13.86-4.31-27.42-8.84-40.79-14.2,0,0-38.21-13.07-53.34,14.46-4.71,8.57-11.18,23.73-2.25,41.95,7.58,15.48,25.18,24.19,29.89,26.3.72.32,1.45.59,2.2.81,18.32,5.44,36.88,8.75,55.96,11.76h.02ZM131.1,917.06c-1.59-10.68,2.34-19.23,13.17-22.72,10.35-3.34,24.37,3.2,24.37,3.2l25.5,9.18c42.43,15.29,94.48,17.16,139.43,17.44,13.8.09,26.49,2.99,39.58,6.8,4.67,1.36,8.23,8.08,4.65,12.18-2.62,2.98-7.07,4.5-10.83,5.84-23.35,8.36-47.75,13.23-72.45,9.92l-72.33-9.66c-23.67-3.17-46.53-7.24-69.15-13.95l-.03.1c-9.17-1.79-20.06-5.81-21.92-18.33h0Z"/>
</svg>