<?xml version="1.0" encoding="UTF-8"?>
<svg id="Capa_1" xmlns="http://www.w3.org/2000/svg" version="1.1" viewBox="0 0 1920 1080">
  <!-- Generator: Adobe Illustrator 30.4.0, SVG Export Plug-In . SVG Version: 2.1.4 Build 226)  -->
  <defs>
    <style>
      .st0, .st1 {
        fill: #78a2d2;
      }

      .st1 {
        stroke: #78a2d2;
        stroke-miterlimit: 10;
      }
    </style>
  </defs>
  <path class="st0" d="M610.83-572.78c-12.73-28.31-29.45-51.68-48.98-70.82h-41.68c50.64,35.75,80.95,87.42,85.76,151.92,1.45,19.45-1.31,37.51-9.61,53.04-8.91,16.67-22.29,29.58-38.24,37.62-12.89,6.49-27.79,6.06-42.06-.26-31.54-13.97-58.17-43.2-77.59-75.11-7.59-12.47-15.03-24.6-24.53-35.23-15.65-17.52-32.98-30.25-53.3-37.88-20.02-7.52-40.41-10.8-60.76-9.31-24.13,1.76-48.37-3.43-69.97-20.69-9.61-7.67-17.94-15.78-24.02-27.38-6.17-11.78-9.01-24.35-9.32-36.73h-26.13c4.14,55.01,49.16,102.55,97.55,111.49,16.41,3.03,32.12,4.16,48.28,3.14,14.3-.9,27.98.81,42.25,6.87,15.4,6.52,29.95,17.04,40.48,32.26l27.75,40.22c25.99,37.66,60.23,71.27,100.75,81.3,16.05,3.98,31.45,2.33,44.75-5.2,22.28-12.61,40.17-29.12,51.81-54,19.78-42.26,7.3-99.72-13.2-145.26h.02-.01Z"/>
  <path class="st0" d="M547.49-561.96c-15.98-28.81-42.87-48.89-68.14-65.2-10.12-6.53-20.4-12.34-30.81-17.6h-75.3c36.58,10.7,72.48,26.16,105.86,49.31,11.68,8.1,22.5,15.97,32.64,26.84,16.97,18.18,27.26,43.36,24.66,67.25-1.52,14.08-12.21,20.09-24.29,15.31-10.73-4.24-20.97-10.27-29.95-19.43-8.65-8.81-17.1-18.68-23.61-29.87-26.61-45.69-61.17-69.35-106.53-75.11l-58.17-7.4c-8.72-1.1-27.36-9.01-28.78-19.69-.35-2.64.28-4.94,1.52-6.95h-28.35c-.06,0-.11-.02-.16-.04-.51,11.61,3.96,23.85,13.29,33.67,15.01,15.8,34.82,23.21,54.34,23.76,18.95.54,36.82.73,55.9,5.96,36.64,10.05,59.62,30.25,80.92,67.07,18.18,31.46,51.05,57.74,82.11,59.2,18.05.84,32.58-10.78,36.13-30.32,4.59-25.24.03-52.8-13.27-76.79h-.03v.02h.02Z"/>
  <path class="st0" d="M351.1,266.04c29.71,16.58,24.85,52.16,8.33,75.22-7.46,10.42-16.27,20-26.51,27.87-23.96,18.44-58.07,15.26-84.44,1.15-17.88-9.56-28.52-29.55-31.04-48.66-2.69-20.49,3.13-42.43,25.41-47.8,9.94-2.38,20.32-.85,30.11,2.8,25.43,9.46,35.84-6.81,50.22-12.57,9.19-3.67,19.23-2.88,27.91,1.97h0v.02h.01ZM340.9,281.52c-3.87-.27-7.16.16-10.55,1.72-7.73,3.54-15,7.55-22.5,11.54-9.7,5.17-20.49,4.97-30.61.31-6.23-2.87-12.38-5.29-18.9-6.32-12.59-1.98-22.79,5.46-24.53,18.15-1.63,11.89,1.8,24.29,8.31,34.8,3.72,6.01,8.54,10.1,14.6,13.22,5.7,2.95,11,5.35,17.27,7.11,14.38,4.05,29.53,3.42,42.69-4.06,15.17-8.61,27.2-21.99,34.77-37.66,6.64-13.76,4.85-37.76-10.55-38.82v-.02.03Z"/>
  <path class="st0" d="M1857.93,394.45c32.23,18.7,24.82,57.2,5.11,81.86-8.91,11.14-19.27,21.32-31.13,29.63-27.76,19.44-65.64,15.2-94.28-.75-19.41-10.8-30.18-32.76-31.93-53.54-1.86-22.31,5.85-45.99,31-51.27,11.21-2.37,22.72-.44,33.45,3.74,27.85,10.88,40.37-6.55,56.74-12.45,10.45-3.77,21.62-2.67,31.04,2.8h0v-.02h0ZM1845.68,411.02c-4.31-.38-7.99,0-11.86,1.61-8.82,3.66-17.14,7.83-25.75,12-11.11,5.38-23.15,4.92-34.17-.38-6.79-3.26-13.52-6.04-20.74-7.31-13.95-2.45-25.73,5.4-28.38,19.12-2.48,12.86.66,26.41,7.34,37.97,3.83,6.6,8.97,11.15,15.56,14.71,6.2,3.34,11.96,6.06,18.88,8.12,15.82,4.72,32.75,4.41,47.85-3.39,17.41-8.99,31.56-23.23,40.89-40.06,8.18-14.78,7.51-40.87-9.6-42.39h-.02Z"/>
  <path class="st0" d="M765.48,892.51c39.95,23.17,30.76,70.9,6.32,101.45-11.05,13.81-23.9,26.42-38.58,36.71-34.4,24.1-81.35,18.84-116.84-.92-24.06-13.39-37.4-40.59-39.57-66.35-2.32-27.64,7.26-56.99,38.43-63.55,13.9-2.92,28.15-.54,41.46,4.64,34.53,13.48,50.02-8.12,70.32-15.44,12.96-4.68,26.78-3.31,38.47,3.46h-.01ZM750.29,913.05c-5.33-.48-9.91.01-14.7,2-10.93,4.53-21.25,9.71-31.9,14.87-13.77,6.66-28.68,6.1-42.36-.48-8.41-4.04-16.76-7.49-25.69-9.05-17.28-3.03-31.9,6.69-35.17,23.7-3.07,15.94.82,32.74,9.1,47.06,4.74,8.19,11.11,13.82,19.28,18.23,7.68,4.14,14.82,7.51,23.4,10.06,19.61,5.85,40.59,5.47,59.31-4.2,21.58-11.15,39.12-28.79,50.67-49.65,10.14-18.32,9.31-50.66-11.9-52.54h-.04Z"/>
  <path class="st0" d="M1007.93,607.79c-26.8,39.39-20.84,51.86-32.18,74.07-5.4,10.56-13.6,19.07-24.8,23.1-11.6,4.18-23.77-.21-30.28-10.55-13.41-21.3-6.62-47.16-3.67-71.61,2.83-23.47,4.83-46.33,3.44-69.97-.62-10.46-1.06-20.78,3.47-30.61,6.01-13.06,15.69-23.54,28.45-31.31,29.84-18.17,68-21.79,100.44-8.84,21.76,8.69,30.39,30.27,21.37,50.2-4.14,9.14-10.29,16.5-17.78,23.5l-27.48,25.71c-8.49,7.94-14.47,16.79-20.95,26.32v-.02h-.03ZM1005.9,571.06c12.25-13.18,24.7-24.52,39.26-35.13,8.82-6.42,12.31-17.89,5.84-26.83-3.27-4.53-9.78-5.97-15.16-5.6-15.64-4.87-31.09-3.57-46.92-.68-17.18,3.13-31.57,11.7-39.94,27.44-3.44,6.48-3.49,14.25-2.94,21.62,1.22,16.28,1.92,31.82-.11,48.16l-6.66,53.33c-.9,7.21-.62,14.09,1.24,21.05.59,2.2,3.54,5.52,5.86,3.32,18.34-17.52,10.27-53.68,59.52-106.65h0v-.03Z"/>
  <path class="st1" d="M1526.42,545.07c-39.63,16.25-41.52,28.28-61.09,39.24-9.3,5.21-19.64,7.56-29.94,5.2-10.66-2.45-17.41-11.49-16.99-22.22.86-22.1,18.92-37.92,33.44-54.52,13.94-15.94,26.94-31.83,37.85-49.93,4.83-8,9.71-15.82,18-20.91,11.02-6.75,23.44-9.87,36.77-9.51,31.16.85,61.11,16.38,78.48,41.39,11.66,16.79,7.12,36.81-9.59,47.19-7.67,4.77-15.9,7.24-24.96,8.85l-33.22,5.84c-10.26,1.8-19.13,5.47-28.72,9.4h-.01l-.02-.02h0ZM1543.44,517.04c15.67-3.87,30.57-6.3,46.66-7.16,9.74-.52,18.09-7.31,17.85-16.99-.13-4.89-4.19-9.05-8.35-11.36-9.07-11.05-21.11-17.46-34.23-22.88-14.24-5.89-29.18-6.43-43.27,1.17-5.8,3.13-9.77,8.83-13.08,14.52-7.31,12.58-14.65,24.37-24.39,35.43l-31.81,36.13c-4.3,4.88-7.56,10.09-9.71,16.1-.67,1.91-.18,5.77,2.65,5.24,22.35-4.16,34.65-34.65,97.69-50.21h-.01Z"/>
  <path class="st0" d="M1252.97,617.73c29.77,17.39,18.56,72.55,7.53,96.65-5.51,12.06-17.11,21.48-30.23,24.51-12.98,2.99-25.62-.69-37.4-5.82-18.93-8.23-35.86-18.44-54.04-28l-27.6-14.53c-13.64-7.18-19.84-22.49-13.51-36.58,4.52-10.08,13.03-20.5,24.69-23.75,30.62-8.54,61.13-13.2,92.61-19.46,12.75-2.55,27.19.7,37.95,6.98h0ZM1242.23,673.5c.56-10.09,1.54-18.43-2.55-27.35-2.66-5.79-8.07-10.9-15.84-8.99-28.06,6.93-55.97,12.35-84.63,16.33-4.43.61-7.48,4.69-7.45,7.68.04,3.77,2.62,5.91,6.14,7.66,21.13,10.55,38.93,25.97,61.94,37.34,6.64,3.28,15.19,5.02,21.95,2.08,14.36-6.22,19.63-20.14,20.44-34.77h-.01.01v.02Z"/>
  <path class="st0" d="M716.05,942.59c15.14,9.01,9.44,37.55,3.84,50.03-2.8,6.23-8.7,11.12-15.38,12.69-6.6,1.55-13.04-.36-19.03-3.01-9.63-4.26-18.24-9.55-27.49-14.5l-14.04-7.51c-6.94-3.72-10.1-11.64-6.88-18.93,2.31-5.22,6.63-10.61,12.57-12.29,15.57-4.42,31.1-6.82,47.12-10.08,6.49-1.32,13.84.36,19.31,3.61h-.02ZM710.59,971.45c.28-5.22.79-9.53-1.31-14.15-1.36-2.99-4.11-5.64-8.06-4.64-14.28,3.58-28.48,6.39-43.07,8.45-2.26.32-3.8,2.43-3.79,3.98.03,1.95,1.33,3.06,3.13,3.97,10.76,5.46,19.8,13.44,31.52,19.33,3.37,1.7,7.73,2.6,11.17,1.08,7.3-3.22,9.98-10.42,10.4-18h-.01l.02-.02h0Z"/>
  <path class="st0" d="M1586.95,292.23c15.14,9.01,9.44,37.55,3.84,50.03-2.8,6.23-8.7,11.12-15.38,12.69-6.6,1.55-13.04-.36-19.03-3.01-9.63-4.26-18.24-9.55-27.49-14.5l-14.04-7.51c-6.94-3.72-10.1-11.64-6.88-18.93,2.31-5.22,6.63-10.61,12.57-12.29,15.57-4.42,31.1-6.82,47.12-10.08,6.49-1.32,13.84.36,19.31,3.61h-.02ZM1581.49,321.09c.28-5.22.79-9.53-1.31-14.15-1.36-2.99-4.11-5.64-8.06-4.64-14.28,3.58-28.48,6.39-43.07,8.45-2.26.32-3.8,2.43-3.79,3.98.03,1.95,1.33,3.06,3.13,3.97,10.76,5.46,19.8,13.44,31.52,19.33,3.37,1.7,7.73,2.6,11.17,1.08,7.3-3.22,9.98-10.42,10.4-18h-.01l.02-.02h0Z"/>
  <path class="st0" d="M128.34,192.65c15.14,9.01,9.44,37.55,3.84,50.03-2.8,6.23-8.7,11.12-15.38,12.69-6.6,1.55-13.04-.36-19.03-3.01-9.63-4.26-18.24-9.55-27.49-14.5l-14.04-7.51c-6.94-3.72-10.1-11.64-6.88-18.93,2.31-5.22,6.63-10.61,12.57-12.29,15.57-4.42,31.1-6.82,47.12-10.08,6.49-1.32,13.84.36,19.31,3.61h-.02ZM122.88,221.51c.28-5.22.79-9.53-1.31-14.15-1.36-2.99-4.11-5.64-8.06-4.64-14.28,3.58-28.48,6.39-43.07,8.45-2.26.32-3.8,2.43-3.79,3.98.03,1.95,1.33,3.06,3.13,3.97,10.76,5.46,19.8,13.44,31.52,19.33,3.37,1.7,7.73,2.6,11.17,1.08,7.3-3.22,9.98-10.42,10.4-18h-.01l.02-.02Z"/>
  <path class="st0" d="M1074.37,251.73c-12.92,18.2-37.18,18.06-54.2,40.62-7.43,9.84-12.12,21.2-10.3,33.75,2.05,14.24,10.09,27.74,21.35,36.76,20.74,16.61,52,12.22,74.2,1.73l36.19-17.1c23.97-11.32,47.59-2.52,68.16,10.43,17.38,10.95,32.54,23.67,47.75,37.4,6.4,5.78,12.01,11.75,19.27,16.32,10.47,6.59,21.39,9.23,33.65,9.94,16,.93,30-6.04,37.9-20.03,5.93-10.51,7.84-22.14,8.25-34.34,1.3-38.42-11.72-45.02-10.14-62.02,1.93-20.69,21.09-26.5,34.98-42.55,9.13-10.56,14.41-23.12,14.12-37.04-.29-14.08-9.93-24.53-24.19-26.9-29.53-4.91-66.58,15.38-94.34,21.34-22.52,4.83-43.98-4.63-55.2-24.12-6.09-10.59-11.15-21.02-14.59-32.97-6.5-22.58-6.31-46.17,1.34-68.44,4.55-13.26,3.8-32.18-11.05-37.45-17.49-6.21-34.21,15.44-42.65,28.87-5.18,8.24-9.63,16.55-17.16,22.73-22.52,18.5-34.94,4.11-53.65,17.76-20.3,14.8-19.34,42.49-13.36,64.2,3.61,13.08,6.29,25.96,8.64,39.45,1.24,7.12-.55,15.51-4.93,21.67h-.04ZM1098.21,209.34l-6.85-26.32c-2.27-8.74-2.83-17.36-1.47-26.26,1.17-7.65,6.97-13.6,15.21-14.46,8.67-.9,17.17-1.28,25.81-4.21,15.72-5.32,28.06-16.28,36.82-30.29,5.98-9.57,11.15-19.19,19.88-27.21,3.13,4.16,1.17,8.22-.25,12.27-15.34,43.49-2.88,83.61,20.28,121.41,3.3,5.37,6.9,9.82,11.97,13.6,27.04,20.2,52.59,18.58,83.12,8.08l27.5-9.46c9.69-3.34,28.4-7.82,38.1-5.33,4.72,1.21,6.32,4.99,5.77,9.49-1.29,10.35-7.38,18.86-15.73,25.44-30.45,24.02-40.57,38.27-27.89,77.98,5.03,15.76,6.18,32.77,2.75,48.9-1.99,9.31-9.46,15.16-18.55,16.04-10.85,1.06-21.25-1.08-29.44-8.28l-27.73-24.36c-11.23-9.86-22.63-18.31-35.34-26.22-26.05-16.21-56.21-26.95-86.27-13.22l-41.05,18.74c-10.96,5.01-22.65,7.64-34.5,6.32-11.26-1.26-19.29-7.43-24.7-16.63-5.96-10.12-5.6-21.75,2.59-30.72,7-7.67,15.67-12.92,25.29-17.11,31.52-13.73,42.99-46.35,34.71-78.19h-.03Z"/>
  <path class="st0" d="M1757.3,624.1c-15-18.81-13.5-52.61-32.05-77.32-8.09-10.78-17.65-17.81-28.6-15.83-12.43,2.24-24.57,12.87-33.01,28.17-15.54,28.2-13.53,71.97-5.71,103.36l12.73,51.19c8.43,33.9-.53,66.46-12.9,94.58-10.46,23.76-22.32,44.34-35.06,64.95-5.37,8.67-10.85,16.24-15.21,26.15-6.3,14.32-9.2,29.42-10.51,46.48-1.72,22.26,3.51,42.09,15.17,53.71,8.75,8.72,18.7,11.89,29.23,12.99,33.15,3.48,39.61-14.4,54.21-11.44,17.79,3.59,21.72,30.56,34.81,50.61,8.61,13.19,19.18,21.09,31.23,21.29,12.2.2,21.78-12.78,24.64-32.55,5.92-40.96-9.52-93.48-13.09-132.45-2.9-31.61,6.51-61.12,24.01-75.92,9.5-8.04,18.81-14.63,29.34-18.92,19.9-8.09,40.29-6.79,59.12,4.83,11.21,6.92,27.62,6.69,33.02-13.79,6.37-24.11-11.4-48.36-22.54-60.71-6.83-7.58-13.77-14.15-18.69-24.9-14.72-32.2-1.56-48.88-12.31-75.56-11.65-28.94-35.65-28.81-54.76-21.41-11.52,4.46-22.81,7.64-34.61,10.34-6.23,1.42-13.38-1.44-18.47-7.81v-.04h.01ZM1792.6,659.16l23.15-8.41c7.69-2.79,15.17-3.2,22.8-.91,6.55,1.96,11.37,10.31,11.64,21.83.29,12.12.13,23.99,2.17,36.17,3.71,22.15,12.48,39.82,24.1,52.65,7.93,8.75,15.96,16.38,22.4,28.89-3.77,4.18-7.18,1.28-10.6-.89-36.74-23.27-72.15-7.63-106.16,23.02-4.83,4.36-8.89,9.19-12.45,16.1-19.01,36.83-19.07,72.52-11.72,115.53l6.62,38.74c2.33,13.65,5.14,39.93,2.44,53.35-1.31,6.53-4.67,8.6-8.54,7.63-8.88-2.25-15.9-11.1-21.11-23.04-19.04-43.49-30.79-58.22-65.86-42.26-13.91,6.33-28.7,7.2-42.45,1.72-7.94-3.17-12.57-13.84-12.82-26.56-.3-15.17,2.14-29.58,8.84-40.69l22.65-37.61c9.17-15.23,17.13-30.76,24.69-48.13,15.5-35.61,26.5-77.19,16.34-119.71l-13.87-58.04c-3.71-15.49-5.32-31.91-3.5-48.37,1.73-15.64,7.52-26.57,15.79-33.71,9.1-7.87,19.13-6.86,26.42,4.94,6.23,10.09,10.28,22.41,13.36,36,10.08,44.53,37.65,61.95,65.66,51.77v-.02h0Z"/>
  <path class="st0" d="M1112.55,280.04c-8.06,5.87-8.49,16.29-2.77,23.77,9.44,12.34,33.55,3.28,44.72-3.05,20.99-11.88,40.69-3.93,58.7,8.49l17.93,12.35c6.3,4.34,13.89,6.47,21.66,5.93,7.73-.54,13.74-5.23,16.23-12.3,3.38-9.6-2.17-17.03,3.6-23.13,6.48-6.86,13.44-13.71,9.19-23.69-2.3-5.39-7.09-10.16-14.25-10.69-6.63-.49-13.61-1.13-20.39-.69-9.79.65-18.98-.57-27.35-5.84-7.01-4.42-13.12-9.61-18.77-15.68-11.22-12.05-40.08-40.34-57.45-25.35-11.59,10-6.58,24.53-11.29,41.3-3.28,11.71-9.65,21.2-19.77,28.57h.01ZM1135.97,277.76c8.87-6.37,13.67-15.86,14.94-26.45,1.45-12.17-3.52-20.92,1.97-27.08,2.15-2.41,5.75-2.44,8.69-.98,16.32,8.07,25.14,23.8,40.53,35.17,16.9,12.49,37.35,16.98,58.32,13.45,2.52-.43,5.18.57,5.79,2.63,1.94,6.62-11.64,6.63-14.24,19.29-1.98,9.66,6.77,15.1-1.82,18.02-1.97.67-4.37.02-6.16-1.39l-15.67-12.29c-21.49-16.86-48.51-25.11-74.3-11.41-4.72,2.5-9.17,4.59-14.31,6.13-1.51.45-11.24,5.41-14.19-.45-2.9-5.75,6.24-11.61,10.46-14.65h-.01,0Z"/>
  <path class="st0" d="M1278.81,49.5c5.51,22.02-15.84,70.46-16.28,78.41-.11,1.95-.13,3.89-.13,3.89-.03,2.42.05,4.85.23,7.37.44,6,3.86,12.33,8.22,16.85,6,6.21,15.88,9.44,24.46,7.2,11.53-3.01,22.48-15.78,28.63-25.2,12.94-19.83,28.77-37.81,51.1-47.83,22.37-10.05,46.85-11.96,71.07-8.49,15.52,2.22,29.27,7.65,41.12,17.75,19.21,16.38,26.58,42.06,19.6,66.14-11.17,38.5-40.77,61.73-68.62,86.04l-15.55,13.57c-17.6,15.36-33.19,36.48-20.09,59.65,5.52,9.77,12.63,18.22,19.51,27.14l10.85,14.06c17.49,22.66,24.73,47.46,11.59,74.54-15.23,31.4-44.87,51.77-79.61,59.15-40.55,8.6-83.3.83-117.43-21.89-6.57-4.37-11.7-9.39-17.57-14.38l-35.27-30.01c-3.13-2.66-6.46-4.45-9.93-6.69-22.65-14.63-50.16-18.21-76.04-9.5-17.03,5.74-32.91,11.83-50.29,16.69-26.83,7.51-54.83,2.15-76.34-15.24-18.79-15.19-28.1-37.47-28.96-61.28-1.3-36.02,17.99-66.89,36.46-96.55,6.35-10.19,12.5-19.74,17.89-30.46,11.19-22.25,12.87-46.5,1.4-68.94-5.5-10.76-10.01-21.43-14.32-32.73-7.33-19.22-7.68-39.74,2.37-55.68,2.44-3.86,6.99-10.07,18.35-17.18,30.62-19.17,66.89-17.95,85.53-15.92,10.63-.17,21.27-.34,31.9-.5,4.12-.07,8.59-1.29,11.53-3.69,13.69-11.16,42.98-26.29,79.98-19.55,5.37.98,48.52,8.84,54.63,33.26h.01ZM1381.2,473.84c19.07-7.87,34.38-21.54,43.98-39.04,7.76-14.13,7.6-29.84-.21-43.8-10.56-18.87-29.17-37.11-38.76-54.43-21.26-38.43-.31-66.07,29.08-91.19l16.26-13.9c8.21-7.03,16.29-13.72,23.8-21.49,15.71-16.24,33.06-38.05,33.89-61.02.66-18.01-9.74-33.59-26.53-41.24-11.03-5.02-22.62-6.83-34.94-7.51-21.94-1.21-42.99,4.92-59.76,18.46-20.31,16.38-23.42,30.11-39.76,47.02-2.99,3.1-6.25,5.2-9.51,7.68-14.01,10.67-32.09,13.85-48.26,6.82-13.18-5.73-22.55-15.56-25.6-29.35-7.92-35.89,9.55-54.31,16.27-87.43,2.24-11.06-4.53-17.68-12.18-21.14-11.73-5.31-18.16-7.89-31.25-9.38-8.8-1-22.41-.83-27.24.26-8.84,1.99-16.4,3.81-21.06,6.18-5.02,2.55-8.85,6.47-12.98,9.98-11.96,10.17-27.71,14.11-43.76,13.02-14.07-.96-27.44-2.37-41.36-1.52-26.63,1.62-64.42,11.92-60.12,44.98,1.25,9.66,4.64,18.74,8.59,27.71l8.34,18.93c7.42,16.83,12.13,34.34,9.77,52.74-1.74,13.65-5.74,26.36-12.79,38.19l-14.19,23.82c-9.57,16.05-19.28,31.3-27.39,48.18-8.61,17.93-11.12,37.48-6.57,56.66,8.58,36.16,46.94,53.69,83.76,41.01l-.02-.02,40.04-13.78c31.51-10.84,64.25-7.85,92.83,8.92,35.92,21.07,59.06,57.89,101.15,70.04,28.53,8.24,58.94,7,86.47-4.36h.01Z"/>
  <path class="st0" d="M899.38,361.93c8.2-2.21,15.51-7.63,20.03-14.75,10.31-16.22,12.26-34.45,7.89-52.93-4.3-18.18-11.26-34.54-21.22-50.31-6.17-9.78-13.16-18.28-20.49-27.27-22-27.01-39.32-60.74-39.27-96.32.02-9.29,2.36-17.93,4.38-26.88,3.36-14.86,4.24-34.98.71-44.29,0,0-8.21-29.76-39.64-28.99-22.59.56-35.23,15.14-38.35,23.18-2.57,6.62-2.71,8.83-3.79,14.05-3.9,28.22,3.14,67.3,10.54,95.17l3.58,13.51c8.09,30.5,21.53,56.64,44.68,78.39,5.17,4.86,9.78,9.12,14.28,14.78,12.15,15.28,19.49,33.58,20.79,53.45.74,11.24,1.4,21.89,5,32.44,4.47,13.13,17.16,20.47,30.87,16.77h0ZM887.31,342.04c-3.15-3.14-2.84-8.01-3.44-12.06l-5.21-35.44c-4.05-27.58-22.52-47.07-39.77-66.2-25.8-28.61-40.08-56.98-46.31-94.91l-5.15-31.33c-1.05-6.33-1.64-39.19.87-46.38l-1.25.11c.41-.04,1.14.29,1.25-.11,5.38-19.72,37.38-19.86,46.32-3.07,5.33,11.33.96,28.06-2.47,40.63h.01c-5.8,21.24-5.55,42.03.54,63,6.06,20.88,15.82,39.66,27.89,57.69,7.85,11.72,16.49,21.82,25,33,13.53,17.76,22.07,37.91,24.86,60.16,1.54,12.24-1.67,24.21-9.79,33.28-3.23,3.61-9.89,5.09-13.35,1.63Z"/>
  <path class="st0" d="M1676.67,938.19c5.97,3.48,13.09,4.75,19.48,3.53,14.55-2.77,25.27-11.35,32.42-23.64,7.03-12.1,11.54-24.73,13.99-38.76,1.52-8.69,1.89-17.17,2.32-26.11,1.3-26.83,8.87-54.57,27.58-73.44,4.89-4.93,10.79-8.19,16.68-11.79,9.77-5.99,20.85-16.18,23.67-23.12,0,0,10.82-20.46-8-37.89-13.52-12.52-28.59-11.95-34.64-9.45-4.98,2.06-6.22,3.16-9.6,5.31-17.1,12.78-33.5,37.53-43.81,56.53l-4.99,9.21c-11.28,20.79-17.14,42.3-14.99,66.99.48,5.51.94,10.39.6,15.96-.91,15.01-6.22,28.9-15.89,40.19-5.47,6.39-10.67,12.42-14.11,20.07-4.28,9.51-.69,20.61,9.28,26.42h.01ZM1680.05,920.78c-.19-3.45,2.54-5.87,4.32-8.36l15.56-21.78c12.11-16.95,11.53-37.78,11.47-57.73-.09-29.83,6.45-53.01,22.71-76.69l13.44-19.57c2.71-3.96,19.62-21.75,24.87-24.14l-.79-.65c.26.21.51.8.79.65,13.51-7.42,32.33,10.66,28.75,24.65-2.83,9.05-14.17,15.45-22.79,20.18h.01c-14.55,8-25.33,19.19-32.77,33.78-7.41,14.53-11.56,30.04-13.96,46.47-1.56,10.68-1.8,20.95-2.69,31.71-1.41,17.11-6.98,32.66-17.03,46.06-5.53,7.38-13.69,11.91-23.21,12.12-3.79.09-8.47-2.91-8.68-6.71h0Z"/>
  <path class="st0" d="M695.98,289.59l.42-10.01c.93-22.22-15.48-65.7-26.35-87.19-13.43-26.54-28.6-51.52-48.5-73.6-16.25-18.04-35.58-36.55-59.61-43.35-20-5.65-41.27-2.76-59.31,7.55-13.97,7.98-20.25,23.58-16.69,39.17,6.14,26.83,31.05,49.02,57.41,57.08,30.87,9.44,49.64,24.52,63.09,54.07,7,15.39,10.04,30.97,13.52,47.42,3.59,16.94,12.32,32.43,26.52,41.61,13.63,8.82,29.68,6.14,39.67-5.84,6.64-7.96,7.92-17.31,9.83-26.92h0ZM644.8,283.42l-14.97-49.06c-11.67-38.24-34.89-62.59-73.23-74.47-9.38-2.91-18.1-7.85-26.07-13.21-8.28-5.58-14.43-13.04-19.33-21.37-5.52-9.37-2.78-20.22,7.45-25.07,17.36-8.23,37.78-5.51,54.07,4.81,9.73,6.17,17.35,13.66,25.28,21.87,28.68,29.68,48.86,65.94,64.34,104.09,6.54,16.13,10.01,33.07,11.08,50.49.45,7.25-1.26,20.8-9.29,22.19-8.17,1.42-17.09-12.91-19.33-20.27h.02-.02Z"/>
  <path class="st0" d="M692.07,382.62l-1.98-24.45c24.55-9.87,33.77-57.08,21.29-102.31-4.65-16.84-5.27-20.91-12.15-43.29l2.26-53.66-2.26,53.66-13.3-31.16c-10.55-24.71-21.13-48.77-34.34-72.07-6.55-11.56-14.16-21.08-23.39-30.47-34.88-35.52-78.32-49.22-127.21-37.32-14.72,3.58-27.71,10.5-37.92,21.64-10.96,11.96-18.39,26.88-21.78,42.84-2.73,12.89,0,25.82,7.04,36.74,15.53,24.11,41.61,40.12,68.52,49.15,10.52,3.53,20.75,7.02,30.21,12.67,15.59,9.32,27.87,21.32,36.86,37.18,8.86,15.63,14.61,32.65,16.81,50.84,2.61,21.55,10.42,41.46,26.78,56.06,7.28,6.5,14.66,11.76,24.28,14.19,14.32,3.62,28.73.54,41.37-6.25l-1.09,26.01h0c-43.78,15.36-90.67-13.03-106.03-55.45-4.93-13.6-8.32-27.07-10.19-41.45-1.66-12.73-5.16-24.27-11.98-35.25-7.36-11.85-17.55-21.96-30.6-27.37l-34.45-14.26c-32.26-13.35-62.85-34.92-76.9-67.87-5.57-13.05-6.85-26.93-3.41-40.45,5.76-22.64,15.14-42.4,31.78-58.8,28.24-27.84,73.05-31.26,110.28-24.68,58.85,10.39,98.16,51.12,123.35,103.06l17.68,36.45h0s.45-.18,1.77,3.51c3.28,9.1,14.26,34.88,28.7,100.93,20.68,94.58-39.99,121.63-39.99,121.63h-.01Z"/>
  <path class="st0" d="M522.78,889.05l-25.56,14.29c7.58,32.22-32.57,73.42-86.1,90.67-19.93,6.42-24.39,8.5-51.37,16.29l-51.45,38.26,51.45-38.26-40.19,6.98c-31.87,5.53-63.13,10.6-95.49,12.4-16.05.9-30.84-.66-46.64-4-59.74-12.62-103.96-48.76-126.71-107.72-6.85-17.75-9.19-35.93-5.39-54.03,4.08-19.43,13.58-37.17,26.97-51.38,10.81-11.47,25.53-17.27,41.29-17.24,34.79.06,69.04,16.56,96.97,38.59,10.92,8.61,21.6,16.95,33.86,23.03,20.22,10.02,40.76,14.81,62.78,13.56,21.71-1.22,42.59-6.61,62.12-16.48,23.15-11.7,48.34-16.87,74.32-9.58,11.56,3.24,21.98,7.42,31.17,15.83,13.68,12.51,20.82,29.61,23.04,47.34l24.94-18.55h0c-15.73-55.94-76.9-85.86-129.68-73.5-16.92,3.96-32.63,9.43-48.17,17.11-13.76,6.79-27.64,10.86-43.3,11.09-16.91.25-34.1-3.61-48.66-13.61l-38.42-26.39c-35.98-24.72-78.9-42.19-121.39-34.8-16.83,2.93-31.46,10.88-42.39,23.51-18.31,21.16-31.22,44.16-35.69,72.49-7.58,48.09,20.68,97.11,53.48,131.55,51.83,54.43,119.84,68.19,188.97,59.7l48.52-5.96h0s.14.58,4.72-.49c11.31-2.66,44.55-8.47,120.03-37.6,108.09-41.72,91.99-123.1,91.99-123.1h-.02Z"/>
  <path class="st0" d="M1353.9,735.61l-5.16,8.58c-11.45,19.07-17.84,65.1-18.58,89.17-.91,29.73.46,58.92,7.38,87.84,5.64,23.61,13.75,49.12,31.61,66.58,14.86,14.53,34.92,22.17,55.69,21.75,16.08-.32,29.06-11.02,33.4-26.41,7.45-26.49-3.81-57.9-23.11-77.6-22.59-23.06-31.86-45.28-29.53-77.66,1.22-16.86,6.01-32,10.81-48.11,4.95-16.59,4.7-34.37-3.38-49.23-7.75-14.26-23.13-19.59-37.63-13.86-9.64,3.81-15.24,11.41-21.51,18.94h.01ZM1395.89,765.52l-10.33,50.24c-8.05,39.17.69,71.65,28.67,100.43,6.85,7.04,12.14,15.55,16.57,24.08,4.6,8.86,6.43,18.36,6.75,28.01.36,10.87-7.23,19.09-18.53,18.45-19.18-1.08-35.81-13.24-45.18-30.09-5.59-10.07-8.7-20.3-11.73-31.3-10.99-39.79-11.35-81.28-6.7-122.19,1.97-17.3,7.04-33.83,14.43-49.64,3.08-6.58,11.05-17.66,18.78-15.04,7.85,2.66,8.83,19.52,7.28,27.05h-.01Z"/>
  <path class="st0" d="M1401.85,655.79l-9.96,22.42c-26.28-3.08-56.97,33.96-67.64,79.66-3.98,17.02-5.38,20.88-10.04,43.83l-27.66,46.04,27.66-46.04-3.23,33.72c-2.56,26.74-4.78,52.94-4.32,79.72.23,13.28,2.35,25.29,5.96,37.95,13.63,47.88,45.23,80.69,93.85,93.63,14.64,3.89,29.36,4.04,43.65-.86,15.35-5.25,29.01-14.8,39.62-27.2,8.56-10.01,12.35-22.68,11.4-35.63-2.1-28.6-17.34-55.14-36.65-75.94-7.55-8.13-14.86-16.1-20.46-25.58-9.23-15.64-14.28-32.06-14.57-50.28-.3-17.97,2.8-35.66,9.56-52.69,8.02-20.18,10.68-41.39,3.3-62.04-3.28-9.19-7.25-17.34-14.53-24.08-10.84-10.02-24.97-14.22-39.32-14.3l13.41-22.32h0c45.79,7.46,73.39,54.82,66.58,99.42-2.18,14.3-5.65,27.75-10.88,41.27-4.64,11.98-7.09,23.78-6.35,36.69.8,13.93,4.91,27.68,13.78,38.67l23.43,29.01c21.94,27.16,38.48,60.73,35.06,96.39-1.36,14.12-6.88,26.93-16.36,37.15-15.89,17.13-33.58,29.99-56.04,36.43-38.12,10.94-79.1-7.5-108.65-31.09-46.7-37.28-61.74-91.85-59-149.51l1.92-40.47h0s-.48-.06.12-3.93c1.47-9.56,4.17-37.45,23.09-102.36,27.09-92.95,93.31-87.67,93.31-87.67h-.04Z"/>
  <path class="st0" d="M1248.55-327.32"/>
  <path class="st0" d="M1102.9,1026.04c-2.99-21.41-16.19-37.7-24.15-45.79-4.62-4.7-7.74-10.69-8.93-17.17-3.48-19.09-1.79-39.92,6.03-65.44l14.65-47.81c8.07-26.32,15.78-54.07,10.86-81.61-3.2-17.86-17.28-29.47-35.52-29.85-25.24-.53-34.05,11.1-54.37,23.66-13.08,8.08-21.9,10.8-36.07,2.67l-36.62-21.02c-15.83-9.08-33.75-13.09-52.06-11.77-21.49,1.55-38.41,15.94-40.71,37.01-2.1,19.13,5.32,37.95,18.14,52.79,9.79,11.32,20.39,20.71,30.9,31.34,6.87,6.95,14.11,13.42,18.48,22.24,6.71,13.51,9.08,27.87,10.58,42.75h0c1.97,19.73-2.6,37.94-11.94,54.52-1.02,1.81-2.21,3.53-3.54,5.13-9.99,12.03-58.2,73.11-22.83,92.07,31.21,16.74,60.62-36.11,100.89-36.56,44.69-.5,33.82,43.69,70.81,46.53,39.45,3.03,49.75-22.58,45.41-53.72v.03ZM1075.16,1047.56c-.93,1.52-3.14,5.16-6.27,5.95-8.1,2.04-17.63-11.61-41.99-36.35-.68-.69-1.97-2.2-4.15-3.77-7.93-5.72-31.81-19-60.5,2.6-21.64,16.28-59.01,17.3-43.94-9.74,11.17-20.05,16.57-27.89,18.61-30.6,0,0,.03-.04.07-.1.74-1.03,1.36-2.14,1.84-3.32,1.14-2.81,2.29-5.93,3.45-9.43,6.17-18.61,6.99-37.57,3.56-57.06-5.25-29.69-20.36-55.93-42.13-77.26-8.08-7.93-15.55-15.31-22.86-23.78-8.99-10.42-13.88-23.74-10.1-36.76,5.03-17.38,31.06-14.21,44.78-8.89,14.27,5.54,27.04,12.85,39.82,21.05,6.01,3.86,12.5,6.49,19.03,9.27,10.52,4.49,22.03,4.22,32.94.45,22.2-7.67,33.67-24.58,54.15-28.28,22.57-4.07,17.76,33.81,15.13,46.45-4.66,22.43-10.78,43.8-17.8,65.53l-7.16,22.15c-11.99,36.4-10.88,62.86-3.22,78.92,15.56,32.59,36.72,56.71,26.74,72.97Z"/>
  <path class="st0" d="M1025.49,920.05l-3.71-33.09c-1.86-16.64-4.76-32.73-11.17-48.19-3.94-9.5-8.51-18.18-15.42-25.93-2.82-3.17-7.09-5.44-10.94-7.13-8.55-3.73-17.7.23-21.06,8.69-3.68,9.26-3.85,19.22-2.17,29.16,6.02,35.84,15.19,44.59,13.82,84.98h0c-.31,9.14-.8,18.13-1.82,27.15,0,0-1.56,25.4,17.69,29.99,6,1.44,16.28,2.83,25.87-5.64,8.14-7.2,10.49-19.34,10.99-22.55.08-.49.11-.99.12-1.47.24-12.04-.84-23.88-2.21-35.97h0ZM1006.11,973.08c-6.22,2.75-12.08,1.79-16.01-4.2-3.76-5.72-2.13-15.34-2.13-15.34l1.31-17.03c2.21-28.33-5.36-60.28-12.7-87.64-2.25-8.4-2.61-16.6-2.48-25.19.05-3.07,3.53-6.35,6.63-4.86,2.24,1.09,3.91,3.55,5.36,5.6,8.98,12.79,16.01,26.8,18.13,42.36l6.21,45.56c2.03,14.91,3.38,29.48,3.08,44.35h.07c.45,5.88-.18,13.16-7.48,16.39h0Z"/>
  <path class="st0" d="M204.08,969.02l52.19,8.25c26.25,4.15,52.07,6.49,78.43,3.19,16.19-2.03,31.39-5.37,46.16-12.69,6.04-3,11.31-8.55,15.51-13.75,9.31-11.52,7.1-27.18-4.43-35.88-12.63-9.53-27.79-13.97-43.7-15.59-57.37-5.87-74.61,4.48-135.85-14.61h0c-13.86-4.31-27.42-8.84-40.79-14.2,0,0-38.21-13.07-53.34,14.46-4.71,8.57-11.18,23.73-2.25,41.95,7.58,15.48,25.18,24.19,29.89,26.3.72.32,1.45.59,2.2.81,18.32,5.44,36.88,8.75,55.96,11.76h.02ZM131.1,917.06c-1.59-10.68,2.34-19.23,13.17-22.72,10.35-3.34,24.37,3.2,24.37,3.2l25.5,9.18c42.43,15.29,94.48,17.16,139.43,17.44,13.8.09,26.49,2.99,39.58,6.8,4.67,1.36,8.23,8.08,4.65,12.18-2.62,2.98-7.07,4.5-10.83,5.84-23.35,8.36-47.75,13.23-72.45,9.92l-72.33-9.66c-23.67-3.17-46.53-7.24-69.15-13.95l-.03.1c-9.17-1.79-20.06-5.81-21.92-18.33h0Z"/>
</svg>