<?xml version="1.0" encoding="UTF-8"?>
<svg id="Capa_1" xmlns="http://www.w3.org/2000/svg" version="1.1" viewBox="0 0 1080 1920">
  <!-- Generator: Adobe Illustrator 30.4.0, SVG Export Plug-In . SVG Version: 2.1.4 Build 226)  -->
  <defs>
    <style>
      .st0 {
        fill: none;
      }

      .st1, .st2 {
        fill: #78a2d2;
      }

      .st2 {
        stroke: #78a2d2;
        stroke-miterlimit: 10;
      }
    </style>
  </defs>
  <path class="st1" d="M1003.94,454.33l.39,9.16c.85,20.34-14.16,60.11-24.11,79.77-12.29,24.28-26.17,47.14-44.38,67.35-14.87,16.5-32.55,33.45-54.54,39.66-18.3,5.17-37.76,2.53-54.26-6.9-12.78-7.3-18.53-21.57-15.27-35.84,5.62-24.55,28.41-44.85,52.53-52.23,28.25-8.64,45.42-22.44,57.72-49.47,6.4-14.08,9.18-28.34,12.37-43.38,3.28-15.49,11.27-29.67,24.26-38.08,12.47-8.07,27.15-5.62,36.29,5.34,6.08,7.28,7.25,15.84,8.99,24.63h0ZM957.11,459.97l-13.7,44.88c-10.68,34.99-31.92,57.26-67,68.14-8.58,2.66-16.56,7.18-23.85,12.09-7.58,5.11-13.2,11.93-17.69,19.55-5.05,8.57-2.55,18.5,6.82,22.93,15.89,7.53,34.57,5.04,49.47-4.4,8.9-5.64,15.88-12.5,23.13-20.01,26.24-27.15,44.7-60.33,58.87-95.23,5.99-14.76,9.16-30.26,10.13-46.19.41-6.64-1.15-19.03-8.5-20.3-7.48-1.29-15.64,11.81-17.69,18.55h.02Z"/>
  <path class="st1" d="M224.33,312.2c16.05-11.83,15.72-33.75,35.61-49.32,8.68-6.79,18.72-11.13,29.87-9.6,12.65,1.73,24.71,8.88,32.8,18.98,14.91,18.6,11.28,46.89,2.15,67.03l-14.88,32.84c-9.85,21.75-1.84,43.03,9.82,61.51,9.86,15.62,21.28,29.21,33.59,42.83,5.19,5.73,10.53,10.76,14.64,17.27,5.94,9.41,8.37,19.25,9.1,30.32.96,14.45-5.11,27.16-17.46,34.42-9.28,5.45-19.59,7.27-30.41,7.75-34.09,1.5-40.06-10.22-55.13-8.64-18.35,1.92-23.35,19.28-37.48,31.97-9.3,8.34-20.41,13.22-32.76,13.07-12.5-.15-21.85-8.77-24.08-21.63-4.6-26.64,13.1-60.29,18.16-85.44,4.11-20.39-4.47-39.71-21.87-49.68-9.45-5.42-18.75-9.9-29.38-12.91-20.1-5.69-41.04-5.31-60.74,1.79-11.73,4.23-28.53,3.71-33.34-9.67-5.66-15.75,13.42-31.04,25.27-38.79,7.27-4.75,14.61-8.85,20.04-15.69,16.23-20.51,3.35-31.6,15.32-48.63,12.97-18.46,37.55-17.84,56.87-12.61,11.64,3.15,23.09,5.46,35.09,7.48,6.33,1.06,13.76-.63,19.2-4.64v-.02h0ZM186.91,334.09l-23.42-5.97c-7.77-1.98-15.43-2.41-23.32-1.11-6.78,1.12-12.02,6.42-12.71,13.87-.73,7.84-.99,15.52-3.52,23.36-4.59,14.25-14.21,25.49-26.58,33.53-8.44,5.49-16.94,10.24-23.99,18.19,3.71,2.79,7.31.99,10.89-.33,38.48-14.23,74.19-3.3,107.93,17.3,4.8,2.93,8.77,6.15,12.17,10.7,18.15,24.27,16.93,47.37,7.86,75.04l-8.17,24.93c-2.88,8.78-6.7,25.73-4.41,34.48,1.11,4.26,4.48,5.67,8.47,5.13,9.18-1.25,16.68-6.83,22.45-14.43,21.07-27.72,33.63-36.98,68.98-25.86,14.03,4.41,29.14,5.31,43.42,2.07,8.25-1.87,13.37-8.68,14.09-16.9.85-9.81-1.13-19.19-7.59-26.54l-21.85-24.86c-8.85-10.07-16.44-20.3-23.57-31.71-14.6-23.4-24.38-50.56-12.45-77.85l16.29-37.25c4.35-9.94,6.6-20.53,5.32-31.23-1.21-10.16-6.75-17.37-14.96-22.18-9.04-5.3-19.35-4.88-27.24,2.6-6.75,6.39-11.34,14.27-14.98,23-11.93,28.59-40.79,39.24-69.12,32.02v-.02.02Z"/>
  <path class="st1" d="M969.13,942.5c-21.51-50.99-37.6-53.95-65.42-93.04-7.72-10.84-13.22-23.24-14.09-37.81-.79-13.29,7.98-25.96,20.45-28.66,5.64-1.21,12.07-2.05,17.31-.54,12.78,3.67,23.27,10.47,33.48,18.84,16.6,13.62,29.32,30.98,41.11,49.92l23.45,37.67c10.25,16.46,19.83,32.74,26.99,51.47,6.58,17.21,7.67,35.94.94,55.79-5.93,17.48-22.17,30.36-37.77,27.73-7.3-1.23-13.11-6.04-17.13-12.13l-10.77-16.38c-4.75-18.71-11.35-35.73-18.57-52.86h.02ZM991.14,940.01l14.94,40.45c2.98,8.06,6.86,15.61,13.26,20.26,3.32,2.42,7.97.21,11.31-2.31,3.2-2.42,4.65-6.3,5.94-10.77,3.97-13.65,2.34-26.91-2.57-38.71-8.52-20.46-19.26-38.69-31.18-56.73l-33.63-50.91c-11.47-17.36-28-28.67-46.18-36.79-2.93-1.3-6.34-2.92-9.68-2.35-4.6.78-6.92,7.81-5.22,11.63,4.76,10.72,9.89,20.52,17.42,28.96,24.57,27.47,51.99,60.44,65.58,97.26h.02Z"/>
  <path class="st1" d="M802.89,1738.2c-42.8-25.57-57.55-21.17-99.73-36.28-11.7-4.19-22.33-10.3-30.2-19.7-7.17-8.58-6.13-20.53,2.86-27.28,4.07-3.05,8.98-6.16,14.05-7.23,12.37-2.62,24.38-2.23,36.93-.68,20.41,2.52,39.44,9.09,58.48,17.08l37.87,15.89c16.55,6.94,32.46,14.03,47.56,23.72,13.88,8.9,23.97,21,28.14,36.94,3.67,14.04-3.45,29.1-17.64,33.53-6.64,2.07-13.81,1.16-20.12-1.32l-16.94-6.68c-13.11-10.63-26.91-19.4-41.28-27.99h.02ZM819.87,1727.8l32.19,21.13c6.42,4.21,13.33,7.72,20.9,8.29,3.93.3,6.69-3.02,8.22-6.03,1.46-2.89.75-6.06-.37-9.56-3.41-10.71-11.26-18.93-21.11-24.87-17.08-10.31-34.9-18.24-53.61-25.58l-52.78-20.71c-18-7.06-37.22-8.07-56.24-6.29-3.06.29-6.68.56-9.16,2.27-3.42,2.35-1.89,7.97,1.39,9.85,9.19,5.28,18.24,9.8,28.61,12.46,33.79,8.63,72.64,19.8,101.94,39.04h.02Z"/>
  <path class="st1" d="M372.24,1570.26c-10.63-34.67,20.34-58.26,50.91-63.65,13.82-2.44,28.03-3.22,42.06-1.65,32.85,3.67,57.18,31.35,67.08,61.66,6.71,20.55-.2,43.71-12.81,60.16-13.54,17.66-34.86,30.1-56.41,17.7-9.61-5.53-16.58-14.4-21.48-24.44-12.71-26.07-33.3-21.34-48.98-27.6-10.01-4-17.28-12.04-20.39-22.17h.02ZM392.07,1565.99c2.83,3.08,5.73,5.18,9.58,6.5,8.76,3.02,17.51,5.34,26.45,7.85,11.55,3.24,19.86,11.38,24.23,22.44,2.69,6.8,5.66,13.22,9.99,18.83,8.37,10.84,22.04,12.71,33.09,4.3,10.35-7.88,17.14-19.9,20.05-32.74,1.67-7.35,1.01-14.04-1.34-20.92-2.21-6.48-4.54-12.22-8.11-18.23-8.19-13.74-20.53-24.49-36.56-28.53-18.47-4.65-38.12-3.34-56.01,3.03-15.71,5.59-32.64,25.26-21.38,37.48h.01Z"/>
  <path class="st1" d="M672.22,89.79c22.18-40.99,71.7-33.88,104.2-10.73,14.68,10.46,28.21,22.77,39.43,37.04,26.26,33.4,22.82,80.63,3.97,117.03-12.78,24.66-40.22,39.21-66.66,42.48-28.38,3.51-58.99-4.79-67.06-35.72-3.6-13.79-1.74-28.16,3.04-41.71,12.42-35.14-10.47-49.74-18.87-69.73-5.36-12.77-4.54-26.68,1.94-38.66h.01ZM694,104.11c-.26,5.36.43,9.92,2.68,14.63,5.13,10.75,10.89,20.85,16.65,31.3,7.45,13.5,7.48,28.46,1.29,42.43-3.81,8.6-7,17.1-8.24,26.13-2.4,17.44,8.23,31.65,25.89,34.19,16.55,2.38,33.68-2.24,48.07-11.14,8.23-5.1,13.77-11.73,17.96-20.09,3.94-7.87,7.11-15.17,9.38-23.86,5.2-19.89,3.92-40.88-6.82-59.19-12.39-21.12-31.3-37.92-53.26-48.58-19.28-9.35-52.55-7.13-53.61,14.19h0Z"/>
  <path class="st1" d="M466.09,1779.67c45.94,20.47,58.01,12.19,83.27,19.88,12.01,3.66,22.34,10.55,28.49,21.28,6.36,11.11,3.83,24.31-5.93,32.77-20.09,17.42-48.4,15.02-74.59,16.29-25.13,1.21-49.48,3.19-74.08,8.75-10.88,2.46-21.64,4.73-32.75,1.83-14.74-3.85-27.4-11.9-37.73-23.56-24.15-27.29-34.46-65.63-26.39-101,5.42-23.75,26.61-36.33,49.09-30.61,10.31,2.62,19.07,7.61,27.71,14.04l31.68,23.55c9.79,7.28,20.1,11.83,31.22,16.79h.01ZM427.86,1788.19c-15.92-10.19-29.96-20.92-43.58-33.94-8.25-7.88-20.88-9.43-29.18-1.27-4.19,4.13-4.6,11.02-3.29,16.47-2.45,16.82,1.55,32.36,7.28,48.03,6.21,16.99,17.67,30.19,35.62,35.97,7.38,2.37,15.57,1.07,23.2-.79,16.89-4.1,33.09-7.53,50.6-8.31l57.15-2.54c7.72-.34,14.9-1.84,21.88-4.95,2.21-.99,5.19-4.59,2.48-6.56-21.51-15.65-58.12-1.09-122.16-42.1h0Z"/>
  <path class="st2" d="M572.96,419.91c9.92-47.97-.45-57.75,1.62-83.38.99-12.19,5.4-23.45,14.33-31.53,9.26-8.37,22.35-8.69,32.42-1.17,20.76,15.49,24.36,42.94,31,67.6,6.38,23.66,13.32,46.42,23.72,68.68,4.6,9.84,9,19.61,8.54,30.78-.6,14.83-5.61,28.55-14.59,40.8-20.95,28.66-55.29,46.44-90.64,46.1-23.73-.22-40.11-17.78-39.34-40.36.36-10.35,3.28-19.73,7.6-29.3l15.83-35.05c4.89-10.83,7.09-21.58,9.49-33.21h.02s0,.03,0,.03ZM589,454.52c-6.39,17.28-13.69,32.87-23.25,48.53-5.79,9.48-4.65,21.84,4.85,28.04,4.81,3.14,11.44,2.08,16.36-.3,16.52-1.16,30.48-8.2,44.2-16.91,14.88-9.45,25.05-23.1,26.82-41.39.72-7.52-2.22-15.03-5.56-21.91-7.4-15.22-14.05-29.94-18.43-46.43l-14.3-53.86c-1.93-7.28-4.85-13.8-9.26-19.81-1.41-1.9-5.45-3.99-6.76-1.01-10.44,23.73,11.04,55.54-14.67,125v.02s0,.01,0,.01Z"/>
  <path class="st2" d="M147.54,1369.09c41.2-2.18,46.94-12.72,68.27-16.52,10.14-1.8,20.26-.62,28.76,4.93,8.8,5.75,11.86,16.34,7.89,26.16-8.18,20.23-29.77,29.03-48.44,39.72-17.91,10.26-34.97,20.78-50.88,34.02-7.03,5.85-14.05,11.52-23.25,13.54-12.21,2.68-24.46,1.53-36.36-3.15-27.83-10.94-49.66-35.11-56.95-63.98-4.9-19.38,5.9-36.48,24.46-40.68,8.51-1.92,16.78-1.55,25.49-.08l31.94,5.4c9.87,1.67,19.1,1.16,29.08.63h-.01ZM122.78,1389.57c-15.44-1.51-29.7-4.12-44.51-8.56-8.96-2.69-18.78.89-21.8,9.95-1.53,4.59.75,9.77,3.74,13.26,4.48,13.21,13.2,23.08,23.23,32.39,10.88,10.1,24.18,15.47,39.45,13,6.28-1.02,11.77-5.02,16.66-9.22,10.82-9.29,21.38-17.85,33.88-24.94l40.82-23.17c5.52-3.13,10.21-6.9,14.15-11.78,1.25-1.55,2.09-5.29-.63-5.72-21.56-3.42-42.88,20.88-104.97,14.79h-.02,0Z"/>
  <path class="st1" d="M926.49,1317.32c-20.8,13-52.91-12.26-64.98-27.15-6.03-7.44-8.42-17.85-6.17-27.11,2.23-9.16,8.66-15.89,15.75-21.62,11.4-9.2,23.44-16.48,35.45-24.76l18.25-12.57c9.01-6.22,20.93-5.07,28.01,3.56,5.07,6.17,9.09,14.96,7.45,23.38-4.3,22.08-11.07,42.82-17.1,64.7-2.45,8.86-9.17,16.88-16.69,21.57h.03ZM893.83,1292.17c6.36,3.68,11.42,7.06,18.52,7.41,4.6.23,9.65-1.49,10.9-7,4.52-19.94,9.96-39.29,16.57-58.66,1.02-2.99-.64-6.26-2.59-7.22-2.45-1.22-4.66-.29-6.93,1.33-13.6,9.82-29.3,15.93-44.03,26.66-4.25,3.1-8.11,7.9-8.39,13.13-.58,11.08,6.74,19,15.95,24.34h0Z"/>
  <path class="st1" d="M943.03,179.11c8.49-15.59,37.72-11.08,50.62-5.98,6.45,2.54,11.65,8.26,13.53,14.9,1.85,6.57.19,13.1-2.25,19.23-3.92,9.85-8.92,18.72-13.55,28.21l-7.04,14.41c-3.47,7.12-11.39,10.64-18.93,7.71-5.39-2.09-11.05-6.2-13-12.09-5.14-15.45-8.24-30.93-12.22-46.87-1.61-6.46-.22-13.9,2.86-19.53h-.02ZM972.56,183.36c-5.31-.06-9.71-.39-14.31,1.91-2.98,1.49-5.55,4.37-4.39,8.29,4.24,14.18,7.69,28.31,10.4,42.87.42,2.25,2.63,3.72,4.2,3.63,1.98-.1,3.04-1.47,3.9-3.3,5.09-11.03,12.81-20.46,18.28-32.46,1.58-3.46,2.31-7.87.63-11.26-3.57-7.19-11-9.58-18.71-9.67h0Z"/>
  <path class="st1" d="M255.53,334.73c6.45-9.04,18.04-9.62,26.43-3.34,13.84,10.38,4,37.32-2.93,49.81-13.01,23.49-3.95,45.33,10.06,65.26l13.94,19.83c4.9,6.97,7.35,15.4,6.82,24.05-.52,8.61-5.68,15.35-13.52,18.19-10.66,3.86-18.98-2.24-25.71,4.25-7.57,7.29-15.12,15.11-26.27,10.48-6.02-2.5-11.38-7.79-12.05-15.75-.62-7.38-1.4-15.14-.98-22.69.62-10.9-.83-21.13-6.78-30.38-5-7.76-10.84-14.5-17.65-20.73-13.53-12.37-45.32-44.2-28.82-63.69,11.02-13.01,27.23-7.58,45.85-13,13-3.78,23.51-10.97,31.6-22.3h0ZM253.24,360.83c-7,9.94-17.52,15.38-29.29,16.9-13.53,1.74-23.32-3.71-30.12,2.48-2.66,2.42-2.66,6.43-1.01,9.69,9.15,18.09,26.75,27.74,39.57,44.75,14.08,18.68,19.29,41.4,15.58,64.78-.45,2.81.69,5.77,2.99,6.42,7.39,2.09,7.26-13.03,21.32-16.05,10.73-2.31,16.88,7.38,20.04-2.21.73-2.21-.02-4.87-1.61-6.84l-13.84-17.31c-18.99-23.75-28.46-53.74-13.47-82.6,2.74-5.28,5.01-10.25,6.67-16,.49-1.69,5.91-12.57-.65-15.79-6.43-3.17-12.86,7.07-16.2,11.8v-.02h.02Z"/>
  <path class="st1" d="M0,337.91"/>
  <path class="st1" d="M0,326.91"/>
  <line class="st0" x1="23.94" y1="401.65" x2="23.94" y2="401.65"/>
  <path class="st1" d="M2.02,370.15"/>
  <path class="st1" d="M35.94,505.75c21.02,5.05,66.96-15.71,74.54-16.2,1.85-.12,3.7-.16,3.7-.16,2.31-.05,4.62,0,7.02.16,5.72.36,11.77,3.57,16.12,7.68,5.97,5.66,9.13,15.04,7.08,23.23-2.76,11.01-14.83,21.55-23.75,27.49-18.77,12.5-35.75,27.74-45.1,49.09-9.37,21.4-10.97,44.73-7.46,67.77,2.25,14.77,7.54,27.81,17.27,39,15.78,18.16,40.29,24.94,63.17,18.08,36.57-10.98,58.43-39.37,81.34-66.12l12.79-14.93c14.48-16.9,34.45-31.94,56.64-19.66,9.35,5.17,17.46,11.87,26.02,18.34l13.49,10.21c21.74,16.46,45.42,23.13,71.1,10.38,29.77-14.79,48.91-43.2,55.63-76.35,7.84-38.69.05-79.35-21.89-111.65-4.22-6.21-9.04-11.06-13.85-16.61l-28.89-33.33c-2.56-2.96-4.3-6.11-6.46-9.39-14.13-21.44-17.79-47.62-9.72-72.34,5.31-16.27,10.98-31.45,15.45-48.04,6.91-25.62,1.56-52.24-15.19-72.57-14.63-17.76-35.94-26.43-58.62-27.04-34.32-.92-63.55,17.73-91.63,35.58-9.65,6.14-18.69,12.08-28.85,17.31-21.09,10.86-44.17,12.67-65.65,1.94-10.3-5.14-20.5-9.34-31.3-13.35-18.37-6.81-37.92-6.96-53.01,2.76-3.66,2.36-9.53,6.75-16.2,17.63-17.99,29.33-16.51,63.87-14.41,81.61-.07,10.13-.13,20.26-.2,30.39-.03,3.93-1.16,8.2-3.41,11.02-10.51,13.14-24.66,41.17-17.91,76.35.98,5.1,8.85,46.13,32.16,51.74l-.02-.02ZM441,599.5c-7.32,18.23-20.21,32.94-36.79,42.24-13.39,7.51-28.35,7.51-41.72.19-18.06-9.89-35.6-27.46-52.19-36.43-36.79-19.91-62.93.29-86.6,28.51l-13.1,15.61c-6.62,7.89-12.92,15.64-20.26,22.86-15.33,15.11-35.95,31.82-57.82,32.82-17.15.79-32.08-8.98-39.51-24.9-4.88-10.46-6.71-21.48-7.47-33.21-1.34-20.89,4.31-40.98,17.05-57.08,15.42-19.49,28.47-22.57,44.43-38.28,2.93-2.88,4.9-6,7.23-9.12,10.03-13.44,12.91-30.68,6.06-46.02-5.58-12.5-15.02-21.34-28.18-24.12-34.25-7.22-51.64,9.58-83.13,16.27-10.52,2.23-16.88-4.16-20.24-11.41-5.16-11.12-7.68-17.23-9.21-29.68-1.03-8.38-.99-21.33,0-25.95,1.81-8.43,3.48-15.65,5.7-20.11,2.39-4.81,6.09-8.49,9.39-12.45,9.58-11.48,13.19-26.52,12.01-41.79-1.04-13.39-2.5-26.11-1.82-39.38,1.31-25.38,10.78-61.46,42.3-57.66,9.22,1.11,17.89,4.25,26.47,7.94l18.1,7.78c16.1,6.92,32.81,11.24,50.32,8.84,12.98-1.78,25.06-5.7,36.26-12.52l22.56-13.73c15.2-9.26,29.64-18.64,45.64-26.51,17-8.36,35.6-10.92,53.91-6.76,34.51,7.85,51.55,44.23,39.81,79.41l-.02-.02-12.77,38.26c-10.05,30.11-6.9,61.26,9.32,88.34,20.39,34.03,55.66,55.73,67.61,95.71,8.1,27.1,7.19,56.07-3.38,82.39l.04-.04Z"/>
  <path class="st1" d="M1021.17,327.73l-2.27,27.99c28.11,11.3,38.67,65.35,24.37,117.14-5.32,19.29-6.03,23.94-13.91,49.57l2.59,61.44-2.59-61.44-15.23,35.68c-12.07,28.29-24.19,55.84-39.32,82.52-7.5,13.23-16.21,24.14-26.78,34.89-39.94,40.67-89.68,56.36-145.65,42.73-16.85-4.1-31.73-12.02-43.42-24.78-12.55-13.69-21.06-30.78-24.93-49.05-3.12-14.76,0-29.57,8.06-42.07,17.78-27.6,47.65-45.94,78.46-56.28,12.05-4.04,23.76-8.04,34.59-14.51,17.85-10.67,31.92-24.41,42.2-42.57,10.14-17.9,16.73-37.39,19.25-58.21,2.99-24.68,11.93-47.47,30.66-64.19,8.33-7.44,16.79-13.47,27.8-16.25,16.39-4.14,32.9-.62,47.37,7.16l-1.25-29.78h0c-50.13-17.58-103.82,14.92-121.41,63.49-5.64,15.57-9.52,30.99-11.67,47.46-1.9,14.58-5.9,27.79-13.72,40.36-8.43,13.57-20.1,25.15-35.04,31.33l-39.45,16.33c-36.94,15.29-71.96,39.98-88.05,77.71-6.37,14.94-7.84,30.84-3.9,46.31,6.59,25.92,17.34,48.55,36.38,67.33,32.34,31.88,83.64,35.79,126.27,28.26,67.38-11.9,112.4-58.53,141.23-118l20.24-41.74h0s.51.2,2.03-4.01c3.76-10.42,16.33-39.94,32.86-115.56,23.68-108.29-45.79-139.27-45.79-139.27h.02Z"/>
  <path class="st1" d="M85.49,1789.12l-.42-9.79c-.91-21.74,15.14-64.29,25.78-85.3,13.14-25.97,27.98-50.41,47.46-72.01,15.9-17.65,34.81-35.77,58.33-42.42,19.57-5.53,40.39-2.7,58.03,7.38,13.66,7.81,19.82,23.07,16.33,38.33-6,26.25-30.38,47.96-56.18,55.86-30.21,9.24-48.58,24-61.73,52.9-6.85,15.06-9.82,30.31-13.23,46.4-3.52,16.57-12.05,31.73-25.95,40.71-13.34,8.63-29.04,6-38.81-5.71-6.51-7.78-7.75-16.94-9.61-26.34h0ZM135.56,1783.09l14.65-48c11.42-37.42,34.14-61.24,71.66-72.87,9.18-2.85,17.71-7.68,25.51-12.93,8.1-5.46,14.12-12.76,18.91-20.91,5.4-9.17,2.73-19.79-7.29-24.53-16.99-8.05-36.97-5.39-52.9,4.71-9.52,6.03-16.98,13.37-24.73,21.4-28.06,29.04-47.8,64.52-62.96,101.85-6.4,15.79-9.79,32.36-10.84,49.41-.44,7.1,1.23,20.35,9.09,21.71,8,1.39,16.73-12.63,18.91-19.83h-.02v-.02Z"/>
  <path class="st1" d="M72.9,1902.02l2.08-25.7c-25.81-10.37-35.51-60-22.38-107.55,4.89-17.71,5.54-21.98,12.77-45.51l-2.38-56.41,2.38,56.41,13.98-32.76c11.09-25.97,22.21-51.27,36.1-75.76,6.89-12.15,14.89-22.16,24.59-32.03,36.67-37.34,82.33-51.74,133.73-39.23,15.47,3.77,29.13,11.04,39.86,22.75,11.52,12.57,19.34,28.26,22.89,45.03,2.87,13.55,0,27.15-7.4,38.62-16.32,25.34-43.74,42.18-72.03,51.67-11.06,3.71-21.82,7.38-31.76,13.32-16.39,9.8-29.3,22.42-38.74,39.08-9.31,16.43-15.36,34.33-17.67,53.44-2.75,22.66-10.96,43.58-28.15,58.93-7.65,6.83-15.41,12.37-25.53,14.92-15.05,3.8-30.2.57-43.49-6.57l1.15,27.34h0c46.02,16.14,95.32-13.7,111.47-58.29,5.18-14.3,8.74-28.45,10.71-43.57,1.74-13.39,5.42-25.52,12.59-37.06,7.74-12.46,18.45-23.09,32.17-28.77l36.22-14.99c33.91-14.04,66.07-36.71,80.84-71.35,5.85-13.72,7.2-28.31,3.58-42.52-6.05-23.8-15.92-44.57-33.4-61.82-29.69-29.27-76.79-32.86-115.93-25.95-61.86,10.92-103.19,53.74-129.67,108.34l-18.58,38.32h0s-.47-.19-1.87,3.69c-3.45,9.56-14.99,36.67-30.17,106.1-21.74,99.43,42.04,127.86,42.04,127.86v.02Z"/>
  <path class="st1" d="M623.82,1362.73c2.12-10.15,8.2-19.44,16.55-25.45,19.03-13.71,41.11-17.37,63.93-13.35,22.46,3.95,42.88,11.28,62.8,22.3,12.35,6.83,23.2,14.74,34.67,23.03,34.47,24.9,76.79,43.61,120.14,41.03,11.32-.68,21.67-4.14,32.44-7.24,17.87-5.14,42.32-7.64,53.91-4,0,0,36.84,7.89,38.12,46.25.92,27.57-15.96,44-25.53,48.37-7.88,3.6-10.57,3.92-16.85,5.62-34.1,6.74-82.22.93-116.7-6.11l-16.71-3.41c-37.74-7.7-70.54-22.22-98.68-48.9-6.29-5.96-11.81-11.27-19.02-16.36-19.48-13.72-42.3-21.37-66.59-21.55-13.75-.11-26.77-.16-39.88-3.79-16.32-4.52-26.15-19.47-22.61-36.42v-.02ZM648.91,1376.03c4.05,3.61,9.96,2.9,14.94,3.33l43.55,3.84c33.89,2.99,58.94,24.11,83.47,43.78,36.68,29.41,72.26,44.81,118.92,49.72l38.54,4.06c7.79.83,47.86-.77,56.45-4.34l-.05,1.53c.02-.51-.44-1.37.05-1.53,23.64-7.95,21.55-46.95.47-56.66-14.19-5.7-34.25.81-49.34,5.88v-.02c-25.47,8.57-50.82,9.73-76.8,3.8-25.87-5.91-49.44-16.47-72.26-29.91-14.83-8.73-27.76-18.54-41.98-28.13-22.6-15.22-47.76-24.21-75.06-26.04-15.03-1.01-29.38,3.75-39.86,14.28-4.18,4.19-5.5,12.41-1.04,16.39v.02Z"/>
  <path class="st1" d="M1069.02,1690.23c8.27-46.3-44.93-55.53-63.6-57.24-4.04-.37-8.1-.22-12.1.43l-43.77,7.21c-70.25,11.58-114.04,8.99-166-44.01l-40.21-41.02c-22.14-22.58-45.9-45.62-76.31-56.16-19.71-6.83-39.07.49-49.33,18.13-14.22,24.43-7.28,39.55-5.66,66.45,1.04,17.33-1.01,27.48-16.88,36.81l-41.03,24.14c-17.74,10.43-31.48,25.75-40.09,44.42-10.1,21.92-4.77,46.52,15.2,60.52,18.13,12.72,41.1,15.96,63.02,11.68,16.72-3.27,31.92-8.42,48.33-12.78,10.73-2.84,21.17-6.32,32.44-5.69,17.25.96,32.99,6.64,48.8,13.49,27.2,11.78,45.85,32.93,57.78,59.54,5.5,12.28,10.88,23.54,18.4,34.88,15.69,23.65,42.82,49.83,71.96,54.27,18.22,2.78,35.39-1.21,51.18-9.93,9.33-5.15,25.95-21.57,32.89-29.77,21.19-25.02,6.52-68.6,30.54-82.54,42.81-24.85,74.29-35.9,84.46-92.86l-.02.03ZM1039.09,1677.01c7.68,17.3-6.29,46.53-61.52,77.71-.38.61-14.89,9.34-19.71,16.12-25.68,36.16-3.94,61.76-24.11,82.51s-42.4,36.14-70.76,21.5c-10.71-5.53-20.79-12.88-29.4-21.52h0c-8.98-9.01-14.64-19.85-20.95-30.72-14.01-24.15-12.57-33.92-35.9-58.82-15.39-16.43-34.04-27.81-55.55-35.32-32.74-11.43-67.37-11.27-100.68-1.86-12.36,3.49-23.86,6.68-36.36,9.11-15.37,2.99-31.44.34-42.5-10.61-14.77-14.63,2.53-38.35,15.34-48.82,13.3-10.89,27.61-19.32,42.8-27.25,7.15-3.73,13.31-8.62,19.66-13.47,10.22-7.81,16.19-19.22,18.32-32.01,4.31-26.03-6.51-46.68.9-68.81,8.15-24.37,43.69,1.48,54.99,11.1,20.06,17.08,38.28,34.99,56.36,54l18.44,19.37c35.19,36.98,82.83,55.83,133.96,53.72,17.51-.73,33.68-3.62,50.87-6.54,8.81-2.38,10.22-2.15,32.62-5.6,2.8-.43,18.38-1.42,21.21-1.42,12.21,0,27.58,7.75,31.97,17.62h0Z"/>
  <path class="st1" d="M319.13,1344.39c-11.2,9.71-11.8,26.96-3.85,39.34,13.12,20.42,46.63,5.43,62.15-5.05,29.17-19.66,56.55-6.5,81.58,14.05l24.92,20.44c8.76,7.18,19.3,10.71,30.1,9.81,10.74-.89,19.1-8.66,22.56-20.36,4.7-15.89-3.02-28.18,5-38.28,9.01-11.35,18.68-22.69,12.77-39.21-3.2-8.92-9.85-16.81-19.81-17.69-9.21-.81-18.92-1.87-28.34-1.14-13.61,1.08-26.38-.94-38.01-9.66-9.74-7.31-18.23-15.9-26.09-25.95-15.59-19.94-55.7-66.76-79.85-41.95-16.11,16.55-9.15,40.6-15.69,68.35-4.56,19.38-13.41,35.08-27.48,47.28h0v.02ZM351.68,1340.61c12.33-10.54,19-26.25,20.76-43.77,2.02-20.14-4.89-34.62,2.74-44.82,2.99-3.99,7.99-4.04,12.08-1.62,22.68,13.36,34.94,39.39,56.33,58.2,23.49,20.67,51.91,28.1,81.06,22.26,3.5-.71,7.2.94,8.05,4.35,2.7,10.96-16.18,10.97-19.79,31.92-2.75,15.99,9.41,24.99-2.53,29.82-2.74,1.11-6.07.03-8.56-2.3l-21.78-20.34c-29.87-27.9-67.42-41.56-103.27-18.88-6.56,4.14-12.74,7.6-19.89,10.14-2.1.74-15.62,8.95-19.72-.74-4.03-9.52,8.67-19.21,14.54-24.24h-.01v.02Z"/>
  <path class="st1" d="M489.76,45.51c19.84-13.57,51.9,9.87,64.13,23.96,6.1,7.04,8.77,17.15,6.88,26.32-1.87,9.06-7.93,15.93-14.65,21.83-10.8,9.47-22.29,17.1-33.73,25.7l-17.35,13.07c-8.59,6.45-20.2,5.82-27.38-2.35-5.14-5.86-9.33-14.3-8-22.61,3.47-21.81,9.41-42.41,14.57-64.11,2.09-8.79,8.39-16.92,15.55-21.83v.02s-.02,0-.02,0ZM522.35,68.83c-6.3-3.34-11.34-6.45-18.27-6.5-4.48-.03-9.34,1.85-10.37,7.31-3.77,19.73-8.44,38.92-14.26,58.16-.9,2.98.83,6.1,2.75,6.98,2.43,1.08,4.55.11,6.71-1.6,12.93-10.18,28-16.79,42.02-27.92,4.04-3.2,7.65-8.08,7.75-13.21.2-10.88-7.17-18.33-16.31-23.2h0s-.01-.02-.01-.02h0Z"/>
</svg>