<svg width="44" height="43" viewBox="0 0 44 43" fill="none" xmlns="http://www.w3.org/2000/svg">
<path d="M31.9839 42.2702C24.9396 42.6569 18.2015 42.6569 11.4635 42.2702C5.20669 41.8835 0.612551 37.4577 0.262522 31.3562C-0.0875074 24.6961 -0.0875074 18.1649 0.262522 11.4618C0.525044 5.66109 4.8129 0.891594 10.6759 0.418942C18.0703 -0.139647 25.1584 -0.139647 32.5527 0.418942C38.6345 0.848626 43.0536 5.70406 43.3162 11.6767C43.5787 18.3368 43.5787 24.6961 43.2286 31.3562C42.9224 37.3288 38.4157 42.0124 32.0277 42.3131L31.9839 42.2702ZM32.1152 38.403C36.4906 38.1452 39.1158 34.7507 39.3345 30.8406C39.6846 24.3953 39.6846 18.1219 39.3345 11.6337C39.1158 7.80951 36.5343 4.58688 32.509 4.24313C25.1584 3.64157 17.9828 3.5986 10.6759 4.2861C7.26311 4.62985 4.68165 7.29389 4.37537 10.6884C3.71906 17.7352 3.76282 24.6961 4.37537 31.7429C4.68165 35.4382 7.6569 38.1452 11.4197 38.403C18.289 38.8327 25.0709 38.8757 32.1589 38.403H32.1152Z" fill="black"/>
<path d="M35.9217 9.91453C35.9217 8.49657 34.7404 7.37939 33.3403 7.37939C31.9401 7.37939 30.7588 8.49657 30.7588 9.91453C30.7588 11.3325 31.9401 12.4497 33.3403 12.4497C34.7404 12.4497 35.9217 11.3325 35.9217 9.91453Z" fill="black"/>
<path d="M32.8593 21.3017C32.8593 27.3172 27.8714 32.2156 21.7021 32.2156C15.5328 32.2156 10.5449 27.3172 10.5449 21.3017C10.5449 15.2861 15.5328 10.3877 21.7021 10.3877C27.8714 10.3877 32.8593 15.2861 32.8593 21.3017ZM28.9652 21.2587C28.9652 17.3486 25.7275 14.1689 21.7459 14.1689C17.7643 14.1689 14.5265 17.3486 14.5265 21.2587C14.5265 25.1688 17.7643 28.3485 21.7459 28.3485C25.7275 28.3485 28.9652 25.1688 28.9652 21.2587Z" fill="black"/>
<path d="M33.3403 12.4497C34.766 12.4497 35.9217 11.3146 35.9217 9.91453C35.9217 8.51441 34.766 7.37939 33.3403 7.37939C31.9146 7.37939 30.7588 8.51441 30.7588 9.91453C30.7588 11.3146 31.9146 12.4497 33.3403 12.4497Z" fill="black"/>
</svg>
