<svg width="43" height="43" viewBox="0 0 43 43" fill="none" xmlns="http://www.w3.org/2000/svg">
<path d="M40.223 42.9566H2.73362C1.30174 42.9566 0 41.5247 0 40.1362V3.25429C0 1.34511 1.04141 0.347124 2.95059 0H39.8759C41.3945 0 43 1.30172 43 2.82038V40.1362C43 41.3946 41.8719 43 40.2664 43L40.223 42.9566ZM13.2775 9.5893C13.2775 7.54995 11.5853 5.85772 9.54596 5.85772C7.50661 5.85772 5.81438 7.50656 5.81438 9.5893C5.81438 11.672 7.50661 13.3209 9.54596 13.3209C11.5853 13.3209 13.2775 11.672 13.2775 9.5893ZM23.3007 24.776C23.3007 22.6932 25.0363 21.4349 26.5984 21.3047C28.0737 21.218 30.113 22.2593 30.113 24.0817L30.1998 36.6216H36.665L36.6216 22.6499C36.6216 18.7447 33.888 15.9243 30.0696 15.5772C27.553 15.3602 25.3401 16.1847 23.6044 17.8769L22.9536 16.0545L16.8355 16.1413V36.665H23.1706L23.3007 24.776ZM12.8002 16.0545H6.37841V36.665H12.8002V16.0545Z" fill="black"/>
</svg>
