<?xml version="1.0" encoding="UTF-8"?>
<svg id="Capa_1" data-name="Capa 1" xmlns="http://www.w3.org/2000/svg" viewBox="0 0 265.86 65.79">
  <defs>
    <style>
      .cls-1 {
        fill: none;
        stroke: #66103e;
        stroke-miterlimit: 10;
      }
    </style>
  </defs>
  <path class="cls-1" d="M264.21,39.66v-.12c-1.44-3.66-4.04-8.09-7.8-13.31l-2.72-3.62c-3.07-4.04-5.23-7.33-6.48-9.89-.31-.64-.76-1.99-1.08-3.75-.47-2.64.33-3.66-.31-4.66-2.44-3.87-8.82-4.66-13.31-2.93-1.08.42-2.81,2.23-3.65,5.11-9.07,19.13-16.88,33.25-21.14,39.73-.57.88-4.19,6.26-9.12,8.18-3.12,1.22-6.31,1.16-6.31,1.16-2.65,0-5.12-.78-7.42-2.34-2.3-1.55-4.17-4.05-5.61-7.47-1.44-3.42-2.16-7.71-2.16-12.86,0-.56,0-1.08,0-1.58.02-2.17,1.78-3.91,3.95-3.91h24.89c2.31,0,4.13-1.98,3.94-4.29-1.15-14.44-8.42-21.65-21.8-21.65-6,0-11.17,1.35-15.52,4.02-2.99,1.84-4.83,3.84-5.28,4.34-3.45,3.78-4.09,6.99-6.69,13.21-.13.31-.27.63-.27.63-.21.44-.41.82-.57,1.12-1.55,3.23-3.14,6.47-4.76,9.72-2.65,5.35-5.31,10.6-7.99,15.76-.03.06-.06.12-.1.18-.56.94-5.39,8.9-8.7,8.9-1.01,0-1.55-.5-1.55-.5-.44-.41-.67-1.06-.67-1.96,0-.78.24-1.91.71-3.38l11.45-34.47c1.08-3.11,1.63-5.96,1.63-8.53,0-2.81-.78-5.03-2.34-6.66-1.55-1.63-3.97-2.46-7.24-2.46-5.23,0-9.84,1.87-13.85,5.61-4.01,3.74-7.97,10.24-11.86,19.52l2.1-7.47c.94-3.5,1.4-6.35,1.4-8.53,0-6.08-3.08-9.12-9.22-9.12-5.61,0-10.43,2.03-14.42,6.08-4.01,4.05-7.93,10.83-11.75,20.33l2.57-10.05c.71-2.65,1.06-4.98,1.06-7.02,0-2.81-.74-5.06-2.22-6.78-1.48-1.71-3.89-2.57-7.24-2.57-1.99,0-3.85.31-5.61.94-1.94.69-3.27,1.58-3.68,1.87-2.9,2.01-4.43,4.65-5.17,6.24-.51.98-.98,2.05-1.4,3.21l-3.15,8.88c-.6,1.59-2.21,5.92-4.39,11.75-2.46,6.56-3.72,9.89-5.74,12.84-.5.73-4.1,5.93-8.05,7.45-1.78.68-5.02,1.15-6.15,1.15h-.09c-2.65,0-5.12-.78-7.42-2.34-2.3-1.55-4.17-4.05-5.61-7.47-1.44-3.42-2.16-7.71-2.16-12.86,0-.56,0-1.08,0-1.58.02-2.17,1.78-3.91,3.95-3.91h24.89c2.31,0,4.13-1.98,3.94-4.29C49.77,8.82,42.51,1.61,29.13,1.61c-8.65,0-15.59,2.78-20.8,8.35C3.1,15.52.5,23.57.5,34.09s2.43,18.06,7.3,23.31c4.87,5.25,11.43,7.89,19.69,7.89,6,0,11-1.78,15.01-5.32,3.62-3.2,6.22-7.02,7.84-11.45.68-1.86,3.89-10.52,9.63-26l2.22-5.96c.57-1.32.95-2.22,1.52-3.55l.33-.73c.24-.55.31-.74.44-1.03,0,0,.26-.58.97-1.48.2-.25.36-.42.4-.47,1.66-1.83,2.95-2.16,3.8-2.16,1.4,0,2.1.82,2.1,2.46,0,.93-.2,2.06-.59,3.38l-12.84,45.45c-.71,2.52,1.18,5.03,3.8,5.03h8.19c1.8,0,3.38-1.22,3.83-2.96l2.28-8.83v.12c3.89-13.01,8.05-23.56,12.44-31.67,4.4-8.1,8.35-12.15,11.86-12.15,1.24,0,1.87.74,1.87,2.22,0,1.16-.31,2.77-.94,4.8l-12.77,43.42c-.74,2.53,1.15,5.07,3.79,5.07h8.43c1.77,0,3.33-1.18,3.8-2.89l2.24-7.99v.35c4.52-14.65,9.02-25.81,13.5-33.48,4.48-7.67,8.31-11.51,11.51-11.51,1.08,0,1.63.78,1.63,2.34,0,1.1-.31,2.65-.94,4.68l-10.52,31.55c-1.16,3.5-1.75,6.55-1.75,9.12,0,2.18.43,3.93,1.28,5.25,1.71,2.81,4.83,4.21,9.34,4.21.61,0,1.61,0,2.87-.21,0,0,2.89-.46,5.67-2,4.04-2.22,6.87-5.51,11.89-15.03,2.3-4.36,5.11-10.1,7.93-17.05-.04.68-.1,1.79-.1,3.18,0,4.59.01,15.44,7.3,23.31,4.87,5.25,11.43,7.89,19.69,7.89,6,0,11-1.78,15.01-5.32.89-.78,3.24-2.86,5.37-6.32,1.18-1.89,1.8-3.44,1.96-3.79,1.23-2.88,5.4-10.26,15.61-26.62,1.61-2.58,5.4-2.52,6.91.12,1.35,2.37,3.38,5.57,6.11,9.59,2.31,3.37,4.02,5.97,5.13,7.83,1.11,1.84,1.89,3.83,2.36,5.93.47,2.12.37,4.32-.31,6.64-.51,1.76-1.48,4.49-4.39,5.92-2.72,1.32-5.58.71-6.57.44-3.65-.97-5.91-3.18-6.98-4.34-2.45-2.65-3.51-5.57-3.98-7.57-.19-.8-.99-1.29-1.79-1.14-.01,0-.02,0-.03,0-.85.17-1.41,1-1.21,1.84.26,1.11.65,2.35,1.21,3.66,1.2,2.84,2.77,4.9,3.97,6.26.77.8,2.55,2.52,4.76,3.89,1.23.76,2.38,1.28,2.69,1.42,1.11.48,1.78.71,2.65.91,2.85.72,8.58,1.14,14.12,0,1.89-.39,5.5-.93,9.45-3.99,2.86-2.21,4.82-5.13,5.88-8.78,1.31-4.47,1.23-8.52-.22-12.16ZM177.42,20.76c.6-5.04,1.62-8.93,3.05-11.65h-.01c1.83-3.46,4.14-5.2,6.95-5.2s4.77,2.01,6.14,6.02c1.04,3.07,1.64,6.77,1.79,11.1.08,2.26-1.69,4.15-3.95,4.15h-10.05c-2.36,0-4.21-2.07-3.93-4.42ZM18.39,20.89c.6-5.04,1.62-8.93,3.05-11.65h-.01c1.83-3.46,4.14-5.2,6.95-5.2s4.77,2.01,6.14,6.02c1.04,3.07,1.64,6.77,1.79,11.1.08,2.26-1.69,4.15-3.95,4.15h-10.05c-2.36,0-4.21-2.07-3.93-4.42Z"/>
</svg>