<?xml version="1.0" encoding="UTF-8"?>
<svg id="Capa_1" data-name="Capa 1" xmlns="http://www.w3.org/2000/svg" viewBox="0 0 200.99 90.3">
  <defs>
    <style>
      .cls-1 {
        fill: none;
        stroke: #66103e;
        stroke-miterlimit: 10;
      }
    </style>
  </defs>
  <path class="cls-1" d="M192.12,53.21c-1.42-.15-2.76,1.22-3.22,3.16-1.03,2.36-2.73,7.93-6.84,16.38-2.03,4.17-3.01,7.31-4.39,8.79-1.39,1.48-2.73,2.23-4.04,2.23s-2.12-.55-2.43-1.64c-.31-1.09-.08-2.81.69-5.16l11.32-34.35c.92-2.89,1.44-5.67,1.56-8.32.12-2.66-.46-4.88-1.73-6.68-1.27-1.8-3.52-2.7-6.76-2.7s-6.07.76-8.72,2.29c-2.66,1.52-5.24,4.03-7.74,7.5-2.5,3.48-5.03,8.09-7.57,13.83-1.02,2.31-2.08,4.84-3.16,7.58l3.63-13.5c.54-2.03.96-4.08,1.27-6.15.31-2.07.31-3.99,0-5.74-.31-1.76-1.06-3.16-2.25-4.22-1.2-1.06-3.06-1.58-5.6-1.58-3.85,0-7.39,1.23-10.63,3.69-3.24,2.46-6.4,6.56-9.48,12.31-2.08,3.87-4.24,8.66-6.49,14.32l3.49-13.91c.46-1.8.85-3.63,1.15-5.51.31-1.88.35-3.65.12-5.33-.23-1.68-.92-3.03-2.08-4.05-1.15-1.01-2.93-1.52-5.31-1.52-1.69,0-3.45.35-5.26,1.05-1.81.7-3.52,1.92-5.14,3.63-1.62,1.72-3,4.18-4.16,7.38l-2.58,7.74h-.01l-1.62,4.81c-1.54,4.38-3.01,7.31-4.39,8.79-1.39,1.48-2.73,2.23-4.04,2.23s-2.12-.55-2.43-1.64c-.31-1.09-.08-2.81.69-5.16l11.32-34.35c.92-2.89,1.44-5.67,1.56-8.32.12-2.66-.46-4.88-1.73-6.68-1.27-1.8-3.52-2.7-6.76-2.7s-6.07.76-8.72,2.29c-2.66,1.52-5.24,4.03-7.74,7.5-2.5,3.48-5.03,8.09-7.57,13.83-1.02,2.31-2.08,4.84-3.16,7.58l3.63-13.5c.54-2.03.96-4.08,1.27-6.15.31-2.07.31-3.99,0-5.74-.31-1.76-1.06-3.16-2.25-4.22-1.2-1.06-3.06-1.58-5.6-1.58-3.85,0-7.39,1.23-10.63,3.69-3.24,2.46-6.4,6.56-9.48,12.31-2.08,3.87-4.24,8.66-6.49,14.32l3.49-13.91c.46-1.8.85-3.63,1.15-5.51.31-1.88.35-3.65.12-5.33-.23-1.68-.92-3.03-2.08-4.05-1.15-1.01-2.93-1.52-5.31-1.52-1.69,0-3.45.35-5.26,1.05-1.81.7-3.52,1.92-5.14,3.63-1.62,1.72-3,4.18-4.16,7.38l-6.76,16.34c-.69-1.26-1.85-2.3-2.96-2.14-1.63.23-2.61,2.62-2.28,5,.33,2.38,1.92,3.79,3.55,3.55,1.32-.19,2.25-1.3,2.38-3.11,4.91-9.22,6.19-13.57,7.1-15.9.84-2.15,1.16-2.99,1.9-4.96.3-.8.98-2.17,2.15-3.53,0,0,2.2-2.52,4.39-2.52,1.08,0,1.73.41,1.96,1.23.23.82.29,1.76.17,2.81-.12,1.06-.33,1.98-.64,2.76l-13.87,50.41h12.13l2.36-9.4c1.79-6.35,3.75-12.29,5.9-17.79,2.35-6.02,4.76-11.29,7.22-15.82,2.46-4.53,4.89-8.05,7.28-10.55,2.39-2.5,4.58-3.75,6.59-3.75,1.31,0,2.14.43,2.48,1.29.35.86.42,1.95.23,3.28-.19,1.33-.52,2.77-.98,4.34l-14.33,48.41h12.48l1.43-5.32-.04.28c2.46-7.97,4.97-15.16,7.51-21.57,2.54-6.41,5.06-11.92,7.57-16.53,2.5-4.61,4.91-8.13,7.22-10.55,2.31-2.42,4.51-3.63,6.59-3.63,1.46,0,2.2.92,2.2,2.75s-.35,3.89-1.04,6.15l-10.86,32.94c-.92,2.97-1.52,5.61-1.79,7.91-.27,2.31.1,4.2,1.1,5.69.69,1.1,1.66,1.95,2.89,2.58,1.23.62,2.89.94,4.97.94,1.69,0,3.45-.33,5.26-1s3.52-1.85,5.14-3.58c1.62-1.72,2.96-4.22,4.04-7.5l2.57-7.62h.02l1.73-4.92c1.39-3.99,2.73-6.82,4.04-8.5,1.31-1.68,2.77-2.52,4.39-2.52,1.08,0,1.73.41,1.96,1.23.23.82.29,1.76.17,2.81-.12,1.06-.33,1.98-.64,2.76l-13.87,50.41h12.13l2.36-9.4c1.79-6.35,3.75-12.29,5.9-17.79,2.35-6.02,4.76-11.29,7.22-15.82,2.46-4.53,4.89-8.05,7.28-10.55,2.39-2.5,4.58-3.75,6.59-3.75,1.31,0,2.14.43,2.48,1.29.35.86.42,1.95.23,3.28-.19,1.33-.52,2.77-.98,4.34l-14.33,48.41h12.48l1.43-5.32-.04.28c2.46-7.97,4.97-15.16,7.51-21.57,2.54-6.41,5.06-11.92,7.57-16.53,2.5-4.61,4.91-8.13,7.22-10.55,2.31-2.42,4.51-3.63,6.59-3.63,1.46,0,2.2.92,2.2,2.75s-.35,3.89-1.04,6.15l-10.86,32.94c-.92,2.97-1.52,5.61-1.79,7.91-.27,2.31.1,4.2,1.1,5.69.69,1.1,1.66,1.95,2.89,2.58,1.23.62,2.89.94,4.97.94,1.69,0,3.45-.33,5.26-1s3.52-1.85,5.14-3.58c1.62-1.72,2.35-4.35,4.04-7.5l6.74-15.61c.42.49.94.81,1.53.87,1.62.17,3.12-1.61,3.36-3.98.24-2.36-.88-4.41-2.5-4.58Z"/>
</svg>