<?xml version="1.0" encoding="utf-8"?>
<!-- Generator: Adobe Illustrator 26.1.0, SVG Export Plug-In . SVG Version: 6.00 Build 0)  -->
<svg version="1.1" id="Capa_1" xmlns="http://www.w3.org/2000/svg" xmlns:xlink="http://www.w3.org/1999/xlink" x="0px" y="0px"
	 viewBox="0 0 543.5 370.82" style="enable-background:new 0 0 543.5 370.82;" xml:space="preserve">
<style type="text/css">
	.st0{fill:#FAF4B1;}
	.st1{fill:#78A2D2;stroke:#000000;stroke-miterlimit:10;}
	.st2{fill:none;stroke:#000000;stroke-miterlimit:10;}
	.st3{fill:none;stroke:#F9F3B0;stroke-width:46;stroke-linecap:round;stroke-linejoin:round;stroke-miterlimit:10;}
	.st4{fill:none;stroke:#66103E;stroke-width:46;stroke-linecap:round;stroke-linejoin:round;stroke-miterlimit:10;}
	.st5{fill:none;stroke:#78A1D1;stroke-width:46;stroke-linecap:round;stroke-linejoin:round;stroke-miterlimit:10;}
	.st6{fill:none;stroke:#FAC49A;stroke-width:46;stroke-linecap:round;stroke-linejoin:round;stroke-miterlimit:10;}
	.st7{fill:none;stroke:#FAF4B1;stroke-width:46;stroke-linecap:round;stroke-linejoin:round;stroke-miterlimit:10;}
	.st8{fill:#78A2D2;}
	.st9{fill:none;stroke:#FAF4B1;stroke-width:30;stroke-linecap:round;stroke-linejoin:round;stroke-miterlimit:10;}
	.st10{fill:#FFFFFF;}
	.st11{fill:#FAC49A;}
	.st12{fill:#66103E;}
	.st13{fill:none;stroke:#FAC49A;stroke-width:20;stroke-linecap:round;stroke-linejoin:round;stroke-miterlimit:10;}
	.st14{fill:none;stroke:#78A2D2;stroke-width:8;stroke-miterlimit:10;}
	.st15{fill:none;stroke:#78A2D2;stroke-miterlimit:10;}
	.st16{fill:none;stroke:#66103E;stroke-width:8;stroke-miterlimit:10;}
	.st17{fill:#66103E;stroke:#66103E;stroke-miterlimit:10;}
	.st18{fill:none;stroke:#FAC49A;stroke-width:7;stroke-miterlimit:10;}
	.st19{fill:none;stroke:#FAC49A;stroke-width:13;stroke-miterlimit:10;}
	.st20{fill:none;stroke:#FAC49A;stroke-width:8;stroke-miterlimit:10;}
	.st21{fill:none;stroke:#FAC49A;stroke-width:5;stroke-miterlimit:10;}
	.st22{fill:none;stroke:#FAF4B1;stroke-width:8;stroke-miterlimit:10;}
	.st23{fill:none;stroke:#66103E;stroke-width:10;stroke-miterlimit:10;}
	.st24{fill:none;stroke:#78A2D2;stroke-width:10;stroke-miterlimit:10;}
	.st25{fill:none;stroke:#66103E;stroke-width:4;stroke-miterlimit:10;}
	.st26{fill:#78A2D2;stroke:#66103E;stroke-width:6;stroke-miterlimit:10;}
	.st27{fill:#66103E;stroke:#000000;stroke-miterlimit:10;}
	.st28{fill:#FAC49A;stroke:#000000;stroke-miterlimit:10;}
	.st29{fill:#FAF4B1;stroke:#000000;stroke-miterlimit:10;}
</style>
<g>
	<g>
		<g>
			<g>
				<g>
					<path class="st11" d="M275.46,246.24c-95.91-0.37-188.92-0.97-195.14-1.26c-11.34-0.54-18.47-7.9-19.08-19.7
						c-0.51-9.86,0.6-162.1,0.95-208.53c0.07-9.08,7.54-16.47,16.66-16.48l189.88-0.22l0.02,18.65L80.83,18.91
						c-0.68,90.62-1.34,198.03-0.96,205.41c0.05,0.99,0.19,1.59,0.29,1.92c0.21,0.04,0.55,0.08,1.05,0.11
						c5.3,0.25,91.35,0.85,194.33,1.24L275.46,246.24z"/>
				</g>
				<g>
					<path class="st11" d="M261.18,246.26l-0.07-18.65c110.22-0.4,202.27-1,207.91-1.25c0.95-0.04,1.46-0.15,1.71-0.22
						c0.1-0.27,0.25-0.83,0.3-1.84c0.4-7.37-0.3-114.8-1.03-205.44l-201.66-0.22L268.38,0l203.6,0.22
						c9.12,0.01,16.59,7.4,16.66,16.47c0.38,46.44,1.56,198.75,1.02,208.63c-0.65,11.79-8.05,19.15-19.81,19.67
						C463.27,245.28,363.81,245.89,261.18,246.26z"/>
				</g>
			</g>
		</g>
		<g>
			<path class="st11" d="M529.5,370.82c-0.01,0-0.01,0-0.02,0l-515.49-0.68c-5.31-0.01-9.93-3.07-12.37-8.19
				c-2.66-5.58-2-12.19,1.64-16.97l65.28-108.89l9.84,5.9L12.71,351.53l-0.25,0.31c-1.28,1.58-1.16,3.73-0.48,5.17
				c0.29,0.61,0.95,1.65,2.02,1.65l515.49,0.68c0,0,0,0,0,0c1.03,0,1.67-0.96,1.97-1.54c0.7-1.37,0.88-3.48-0.3-5.12l-0.28-0.39
				L475.6,239.48l10.3-5.05l54.89,111.99c3.25,4.86,3.61,11.32,0.89,16.62C539.18,367.91,534.63,370.82,529.5,370.82z"/>
		</g>
		<g>
			<path class="st11" d="M355.2,354.36l-139.89-0.01c0,0-0.01,0-0.01,0c-3.01,0-5.75-1.54-7.32-4.11c-1.57-2.58-1.69-5.72-0.3-8.41
				l11.14-21.55c1.48-2.87,4.4-4.64,7.62-4.64c0.01,0,0.03,0,0.04,0l119.1,0.77c3.3,0.01,6.35,1.96,7.74,4.97l9.65,20.79
				c1.24,2.67,1.04,5.74-0.55,8.23C360.85,352.87,358.15,354.35,355.2,354.36z M215.31,347.17l139.89,0.01
				c0.67,0,1.03-0.41,1.18-0.65c0.16-0.24,0.37-0.74,0.09-1.35l-9.65-20.79c-0.23-0.49-0.73-0.81-1.27-0.82l-119.1-0.77
				c-0.53-0.03-1.01,0.29-1.25,0.76l-11.14,21.55c-0.32,0.61-0.11,1.13,0.05,1.38S214.62,347.17,215.31,347.17
				C215.31,347.17,215.31,347.17,215.31,347.17z"/>
		</g>
		<g>
			<g>
				<g>
					<path class="st0" d="M275.65,234.37c-93.48-0.35-184.05-0.91-190.02-1.18c-9.29-0.42-14.91-6.1-15.41-15.58
						c-0.49-9.15,0.59-151.4,0.93-194.78c0.05-6.86,5.84-12.44,12.9-12.45l185.05-0.21l0.01,11.48L84.05,21.85
						c-0.85,0-1.43,0.55-1.43,1.07c-0.7,89.23-1.32,187.07-0.95,194.08c0.22,4.13,1.47,4.59,4.47,4.73
						c5.75,0.26,97.86,0.83,189.55,1.17L275.65,234.37z"/>
				</g>
				<g>
					<path class="st0" d="M261.71,234.38l-0.04-11.48c98.07-0.34,196.62-0.91,202.77-1.17c3.93-0.17,4.94-1.1,5.15-4.75
						c0.4-7-0.26-104.86-1.01-194.11c0-0.51-0.58-1.06-1.43-1.07L268.72,21.6l0.01-11.48l198.43,0.21
						c7.05,0.01,12.84,5.59,12.9,12.44c0.37,43.4,1.52,185.71,1,194.87c-0.32,5.57-2.84,15-16.12,15.56
						C458.55,233.48,361.68,234.04,261.71,234.38z"/>
				</g>
			</g>
		</g>
		<g>
			<path class="st11" d="M480.64,307.33c-0.02,0-0.03,0-0.05,0l-408.81-1.67c-4.15-0.02-7.85-2.2-9.9-5.83
				c-2.03-3.61-1.96-8.06,0.18-11.61l19.44-32.24c2.06-3.41,5.8-5.53,9.77-5.53c0.01,0,0.02,0,0.02,0L464.57,250
				c4.19,0.01,8.02,2.3,10.02,5.98l0.15,0.31l16.02,34.21c1.87,3.58,1.75,7.77-0.33,11.25
				C488.34,305.25,484.69,307.33,480.64,307.33z M91.31,261.92l-19.42,32.22l408.75,1.72l-0.21-0.35l-15.93-34.04L91.31,261.92z"/>
		</g>
	</g>
</g>
</svg>
