<?xml version="1.0" encoding="utf-8"?>
<!-- Generator: Adobe Illustrator 26.1.0, SVG Export Plug-In . SVG Version: 6.00 Build 0)  -->
<svg version="1.1" id="Capa_1" xmlns="http://www.w3.org/2000/svg" xmlns:xlink="http://www.w3.org/1999/xlink" x="0px" y="0px" width="150"
	 viewBox="0 0 169.75 291.6" style="enable-background:new 0 0 169.75 291.6;" xml:space="preserve">
<style type="text/css">
	.st0{fill:#FAF4B1;}
	.st1{fill:#78A2D2;stroke:#000000;stroke-miterlimit:10;}
	.st2{fill:none;stroke:#000000;stroke-miterlimit:10;}
	.st3{fill:none;stroke:#F9F3B0;stroke-width:46;stroke-linecap:round;stroke-linejoin:round;stroke-miterlimit:10;}
	.st4{fill:none;stroke:#66103E;stroke-width:46;stroke-linecap:round;stroke-linejoin:round;stroke-miterlimit:10;}
	.st5{fill:none;stroke:#78A1D1;stroke-width:46;stroke-linecap:round;stroke-linejoin:round;stroke-miterlimit:10;}
	.st6{fill:none;stroke:#FAC49A;stroke-width:46;stroke-linecap:round;stroke-linejoin:round;stroke-miterlimit:10;}
	.st7{fill:none;stroke:#FAF4B1;stroke-width:46;stroke-linecap:round;stroke-linejoin:round;stroke-miterlimit:10;}
	.st8{fill:#78A2D2;}
	.st9{fill:none;stroke:#FAF4B1;stroke-width:30;stroke-linecap:round;stroke-linejoin:round;stroke-miterlimit:10;}
	.st10{fill:#FFFFFF;}
	.st11{fill:#FAC49A;}
	.st12{fill:#66103E;}
	.st13{fill:none;stroke:#FAC49A;stroke-width:20;stroke-linecap:round;stroke-linejoin:round;stroke-miterlimit:10;}
	.st14{fill:none;stroke:#78A2D2;stroke-width:8;stroke-miterlimit:10;}
	.st15{fill:none;stroke:#78A2D2;stroke-miterlimit:10;}
	.st16{fill:none;stroke:#66103E;stroke-width:8;stroke-miterlimit:10;}
	.st17{fill:#66103E;stroke:#66103E;stroke-miterlimit:10;}
	.st18{fill:none;stroke:#FAC49A;stroke-width:7;stroke-miterlimit:10;}
	.st19{fill:none;stroke:#FAC49A;stroke-width:13;stroke-miterlimit:10;}
	.st20{fill:none;stroke:#FAC49A;stroke-width:8;stroke-miterlimit:10;}
	.st21{fill:none;stroke:#FAC49A;stroke-width:5;stroke-miterlimit:10;}
	.st22{fill:none;stroke:#FAF4B1;stroke-width:8;stroke-miterlimit:10;}
	.st23{fill:none;stroke:#66103E;stroke-width:10;stroke-miterlimit:10;}
	.st24{fill:none;stroke:#78A2D2;stroke-width:10;stroke-miterlimit:10;}
	.st25{fill:none;stroke:#66103E;stroke-width:4;stroke-miterlimit:10;}
	.st26{fill:#78A2D2;stroke:#66103E;stroke-width:6;stroke-miterlimit:10;}
	.st27{fill:#66103E;stroke:#000000;stroke-miterlimit:10;}
	.st28{fill:#FAC49A;stroke:#000000;stroke-miterlimit:10;}
	.st29{fill:#FAF4B1;stroke:#000000;stroke-miterlimit:10;}
</style>
<g>
	<g>
		<g>
			<path class="st23" d="M7.85,17.4L5,273.89c-0.08,6.99,5.09,12.71,11.49,12.71h134.69c6.3,0,11.43-5.55,11.49-12.44l2.08-256.35
				c0.06-6.97-5.1-12.66-11.48-12.67L19.35,5C13.05,4.99,7.93,10.52,7.85,17.4z"/>
		</g>
		<g>
			<g>
				<path class="st0" d="M145.63,284.25H23.06c-3.62,0-7.09-1.48-9.76-4.18c-3.03-3.07-4.75-7.44-4.7-11.99L11.2,23.4
					c0.09-8.71,6.57-15.79,14.45-15.79c0,0,0.01,0,0.01,0l121.88,0.13c3.61,0,7.07,1.48,9.73,4.17c3.03,3.05,4.74,7.41,4.71,11.95
					l-1.9,244.55C160.02,277.14,153.53,284.25,145.63,284.25z M19.2,23.49L16.6,268.17c-0.03,2.43,0.84,4.72,2.38,6.28
					c0.81,0.82,2.18,1.8,4.07,1.8h122.58c3.52,0,6.42-3.54,6.45-7.9l1.9-244.55c0.02-2.42-0.85-4.7-2.39-6.25
					c-0.81-0.82-2.18-1.8-4.06-1.8L25.65,15.61c0,0,0,0-0.01,0C22.14,15.61,19.24,19.14,19.2,23.49L19.2,23.49z"/>
			</g>
			<g>
				<g>
					<path class="st12" d="M52.33,37.91c21.97,0,43.95,0,65.92,0c6.43,0,6.45-10,0-10c-21.97,0-43.95,0-65.92,0
						C45.9,27.91,45.89,37.91,52.33,37.91L52.33,37.91z"/>
				</g>
			</g>
		</g>
	</g>
</g>
</svg>
