<svg id="Capa_1" data-name="Capa 1" xmlns="http://www.w3.org/2000/svg" viewBox="0 0 258.51 378.9"><defs><style>.cls-1{fill:#baa4b2;}.cls-1,.cls-13,.cls-8{stroke:#66103e;}.cls-1,.cls-13,.cls-4,.cls-6{stroke-miterlimit:10;}.cls-1,.cls-13{stroke-width:10px;}.cls-2{fill:#996884;}.cls-3{fill:#66103e;}.cls-10,.cls-13,.cls-4,.cls-7,.cls-8,.cls-9{fill:none;}.cls-4,.cls-6{stroke:#f2f2f2;}.cls-5,.cls-6{fill:#f2f2f2;}.cls-6{stroke-width:0.5px;}.cls-7{stroke:#f9f3b0;}.cls-10,.cls-7,.cls-8,.cls-9{stroke-linecap:round;stroke-linejoin:round;stroke-width:11px;}.cls-9{stroke:#78a2d2;}.cls-10{stroke:#fac49a;}.cls-11{fill:#ccc;}.cls-12{fill:#e6e6e6;}.cls-14{fill:#fff;}</style></defs><path class="cls-1" d="M33.15,21.87l-3.56,334c-.09,9.11,6.35,16.55,14.33,16.55H212c7.86,0,14.26-7.23,14.33-16.21l2.6-333.84c.07-9.09-6.36-16.49-14.32-16.5L47.49,5.72C39.64,5.71,33.24,12.91,33.15,21.87Z"/><line class="cls-2" x1="96.87" y1="13.38" x2="161.64" y2="13.38"/><path class="cls-3" d="M96.87,23.38h64.77c12.87,0,12.89-20,0-20H96.87c-12.87,0-12.89,20,0,20Z"/><ellipse class="cls-4" cx="54.77" cy="18.76" rx="2.07" ry="2.83"/><circle class="cls-4" cx="59" cy="17.33" r="0.39"/><circle class="cls-4" cx="59" cy="20.3" r="0.39"/><path class="cls-4" d="M60.88,18.37l1.66-2.18a.22.22,0,0,1,.39.12l0,5.26"/><path class="cls-4" d="M64.2,18.37l1.66-2.18a.22.22,0,0,1,.39.12l0,5.26"/><line class="cls-5" x1="188.16" y1="21.03" x2="188.2" y2="18.8"/><path class="cls-5" d="M188.91,21l0-2V18.8a.75.75,0,0,0-1.5,0l0,1.95V21a.75.75,0,0,0,1.5,0Z"/><line class="cls-5" x1="190.27" y1="21.03" x2="190.27" y2="17.88"/><path class="cls-5" d="M191,21V17.88a.75.75,0,1,0-1.5,0V21a.75.75,0,0,0,1.5,0Z"/><line class="cls-5" x1="192.25" y1="21.03" x2="192.27" y2="17.05"/><path class="cls-5" d="M193,21v-4a.75.75,0,0,0-1.5,0l0,3.48V21a.75.75,0,0,0,1.5,0Z"/><line class="cls-5" x1="194.15" y1="21.02" x2="194.19" y2="16.32"/><path class="cls-5" d="M194.9,21l0-4.11v-.59a.75.75,0,1,0-1.5,0l0,4.11V21a.75.75,0,1,0,1.5,0Z"/><rect class="cls-6" x="201.62" y="16.03" width="10.46" height="5.12" rx="1.66"/><path class="cls-7" d="M33.28,35.41S46.21,75.87,59.14,88s38.27,24.44,65.31,27.18c19.37,2,56.42,18,61.25,37.13,3.57,14.17,10.19,34.14-5.46,51.65s-53.75,26.58-68.71,46.51-15.61,42.65-9.91,56.26c5.16,12.29,18.75,17.42,26.91,29.5s6.81,17.51,6.81,17.51"/><path class="cls-8" d="M225.9,345.15s1.85-27.51-16.21-47.89-42.9-31.11-64.88-40.74c-25-11-42.11-19.16-46.06-47.11-3.82-27,25.34-50.76,41.85-61.16,16.72-10.54,48.35-29.69,48.35-53s-16-32-32.1-43.66L140.8,40"/><path class="cls-9" d="M227.14,44.09s-44.33,5.41-82.46,20.38-47.56,30.34-52.21,46c-4.57,15.34-1.89,37.11,18.09,49.82,16,10.19,40.49,14,61.52-6.34s17.32-43.71,3.11-52.31c-15.17-9.18-31-10.19-45.84.83-10.16,7.55-17.82,23.86-13.88,45.36s13.66,57.3,24.82,67.94c8.79,8.38,27.27,14.15,38.16,3,6.21-6.34,7.85-18.42-6.63-26.35-14.12-7.73-45-2.94-65.39,29.22C91.3,245.45,98.67,278.8,120.13,290c16,8.38,34.89,6.71,42.52-10.21,6.33-14-.16-22.88-14.35-30.55-18.87-10.19-52-2.71-75.22,13.36-15.83,10.94-30.95,33.13-19.64,51.63,13.7,22.42,36.25,25.42,48.08,10.87,10.85-13.36,1.54-27.34-16.29-30.34-20.16-3.4-41.59,22-42.91,39.63s-10.93,4.07-10.93,4.07"/><path class="cls-10" d="M81.67,37.77c3.84,1.24,28.26,9.53,36.17,31.11,4.62,12.58,3.15,19.58,1.62,23.86-7.08,19.83-24.9,26.35-45.28,47.08-8.92,9.07-20.39,22.93-23,45.39-.6,5.24-3.65,37.8,24.15,59.94,17,13.56,31.18,22.94,53.16,19.43,30.12-4.8,36.72-27.17,56.69-25.2,18.15,1.79,27.44,13.3,31.52,28.58,5.8,21.71-.56,44.05-17.44,57.91-1.77,1.46-29.35,18.56-54.64,7.63-3.62-1.57-20.57-9.49-22.57-26a29.23,29.23,0,0,1,16.23-29.45c15.84-7.61,35.48.61,44.75,9.36,15.53,14.65,14.76,42.84-5.55,67.21"/><rect class="cls-6" x="212.84" y="17.49" width="0.57" height="2.15" rx="0.11"/><path class="cls-11" d="M45.3,34.22l4.56,0,12.47.06,18.37.08,22.4.11,24.53.12,24.89.12,23.1.11,19.53.09,14.11.07c2.22,0,4.44.09,6.65,0h.29a1.5,1.5,0,0,0,0-3l-4.55,0L199.17,32l-18.36-.09-22.4-.1-24.53-.12L109,31.52l-23.1-.11-19.52-.09-14.12-.07c-2.21,0-4.43-.09-6.65,0H45.3a1.5,1.5,0,0,0,0,3Z"/><path class="cls-12" d="M45.3,34.22l11.9.06,28.42.14,34.38.17,29.83.15c4.82,0,9.68.25,14.49.07h.2a1.5,1.5,0,0,0,0-3l-11.89-.06-28.43-.14-34.38-.17L60,31.29c-4.82,0-9.68-.25-14.49-.07h-.2a1.5,1.5,0,0,0,0,3Z"/><path class="cls-5" d="M205.76,42.54,213.83,51l1.15,1.2c.67.7,1.73-.36,1.06-1.06L208,42.69l-1.15-1.21c-.67-.7-1.73.37-1.06,1.06Z"/><path class="cls-5" d="M215,41.48l-8.07,8.43-1.15,1.2c-.67.7.39,1.76,1.06,1.06l8.07-8.42L216,42.54c.67-.69-.39-1.76-1.06-1.06Z"/><line class="cls-2" x1="68.15" y1="351.3" x2="196.68" y2="351.3"/><path class="cls-3" d="M68.15,361.3H196.68c12.87,0,12.89-20,0-20H68.15c-12.87,0-12.89,20,0,20Z"/><path class="cls-13" d="M33.15,21.87l-3.56,334c-.09,9.11,6.35,16.55,14.33,16.55H212c7.86,0,14.26-7.23,14.33-16.21l2.6-333.84c.07-9.09-6.36-16.49-14.32-16.5L47.49,5.72C39.64,5.71,33.24,12.91,33.15,21.87Z"/><circle class="cls-14" cx="51.85" cy="44.1" r="7.56"/><path class="cls-3" d="M58.27,44.58c-.1,0-.19.09-.22.22s-.2.56-.48,1.15a4.26,4.26,0,0,1-.31.62.39.39,0,0,1-.29.16.16.16,0,0,1-.17-.12.75.75,0,0,1,.05-.36l.8-2.41a2.54,2.54,0,0,0,.11-.59.76.76,0,0,0-.13-.46.51.51,0,0,0-.47-.19,1.16,1.16,0,0,0-.61.16,1.77,1.77,0,0,0-.55.52,6.41,6.41,0,0,0-.53,1l-.22.54.25-.95a3.29,3.29,0,0,0,.09-.43.94.94,0,0,0,0-.41.48.48,0,0,0-.15-.29.58.58,0,0,0-.4-.11,1.13,1.13,0,0,0-.74.26,2.64,2.64,0,0,0-.67.86,9.94,9.94,0,0,0-.45,1l.24-1c0-.13.06-.26.08-.39a1.16,1.16,0,0,0,0-.37.48.48,0,0,0-.15-.29.55.55,0,0,0-.37-.1,1,1,0,0,0-.37.07.87.87,0,0,0-.36.26,1.52,1.52,0,0,0-.29.51l-.18.55h0l-.12.33a1.82,1.82,0,0,1-.31.62.38.38,0,0,1-.28.16.16.16,0,0,1-.17-.12.65.65,0,0,1,.05-.36l.79-2.41a1.8,1.8,0,0,0,.11-.59.69.69,0,0,0-.12-.46.53.53,0,0,0-.47-.19,1.22,1.22,0,0,0-.62.16,1.86,1.86,0,0,0-.54.52,6.41,6.41,0,0,0-.53,1c-.07.17-.15.34-.22.54l.25-.95a3.29,3.29,0,0,0,.09-.43,1.41,1.41,0,0,0,0-.41.44.44,0,0,0-.16-.29.54.54,0,0,0-.39-.11,1.18,1.18,0,0,0-.75.26,2.64,2.64,0,0,0-.66.86,9.11,9.11,0,0,0-.46,1l.25-1c0-.13.06-.26.08-.39a1.54,1.54,0,0,0,0-.37.48.48,0,0,0-.15-.29.56.56,0,0,0-.37-.1,1,1,0,0,0-.37.07,1,1,0,0,0-.36.26,1.37,1.37,0,0,0-.29.51L45.6,43c-.05-.09-.13-.16-.21-.15s-.18.18-.16.35.14.27.25.25.16-.09.17-.22a8.94,8.94,0,0,0,.5-1.11c.06-.15.08-.21.13-.35a.9.9,0,0,1,.15-.25s.16-.18.31-.18a.13.13,0,0,1,.14.09.64.64,0,0,1,0,.2.9.9,0,0,1,0,.19l-1,3.54h.85l.17-.66c.13-.45.26-.86.41-1.25a11.88,11.88,0,0,1,.51-1.11,3.15,3.15,0,0,1,.51-.74.67.67,0,0,1,.46-.26c.1,0,.15,0,.18.09a.53.53,0,0,1,0,.23c0,.09,0,.19-.07.3l-1,3.4h.88l.1-.37v0c.18-.56.35-1.07.53-1.52s.36-.83.53-1.16a3.89,3.89,0,0,1,.51-.74.67.67,0,0,1,.46-.25c.1,0,.16.06.16.19a1.46,1.46,0,0,1-.08.43l-.76,2.31a4,4,0,0,0-.13.56.64.64,0,0,0,.08.4.49.49,0,0,0,.2.18.87.87,0,0,0,.35.07,1.21,1.21,0,0,0,.37-.07.87.87,0,0,0,.36-.26,1.34,1.34,0,0,0,.29-.52l.18-.54h0l.12-.34a2.43,2.43,0,0,1,.28-.6.41.41,0,0,1,.31-.18.13.13,0,0,1,.14.09.44.44,0,0,1,0,.2.53.53,0,0,1,0,.19l-1,3.54h.85l.16-.66c.13-.45.27-.86.42-1.25a9.82,9.82,0,0,1,.5-1.11,3.47,3.47,0,0,1,.52-.74.65.65,0,0,1,.46-.26c.09,0,.15,0,.17.09a.41.41,0,0,1,0,.23c0,.09,0,.19-.07.3l-1,3.4h.88l.1-.37v0c.17-.56.35-1.07.52-1.52a9.91,9.91,0,0,1,.54-1.16,3.49,3.49,0,0,1,.5-.74.67.67,0,0,1,.46-.25c.11,0,.16.06.16.19a1.82,1.82,0,0,1-.07.43l-.77,2.31a3.8,3.8,0,0,0-.12.56.58.58,0,0,0,.07.4.63.63,0,0,0,.21.18.82.82,0,0,0,.35.06A1,1,0,0,0,57,47a1,1,0,0,0,.36-.25,3,3,0,0,0,.28-.52l.47-1.1a.14.14,0,0,0,.11.06c.11,0,.22-.11.24-.28S58.38,44.59,58.27,44.58Z"/><path class="cls-14" d="M108.69,46.17v0a11.22,11.22,0,0,0-1.33-2.28l-.47-.62a10.28,10.28,0,0,1-1.11-1.69,2.61,2.61,0,0,1-.19-.65c-.08-.45.06-.62,0-.79a2,2,0,0,0-2.28-.51,1.43,1.43,0,0,0-.63.88A64,64,0,0,1,99,47.3a3.91,3.91,0,0,1-1.56,1.4,3.22,3.22,0,0,1-1.09.2,2.22,2.22,0,0,1-1.27-.4,2.9,2.9,0,0,1-1-1.28A5.86,5.86,0,0,1,93.76,45v-.27a.69.69,0,0,1,.68-.67h4.27a.68.68,0,0,0,.67-.73c-.2-2.48-1.44-3.71-3.73-3.71a5,5,0,0,0-2.66.69,4.2,4.2,0,0,0-.91.74,6.86,6.86,0,0,0-1.15,2.27l0,.1-.1.2L90,45.29c-.45.92-.91,1.82-1.37,2.7v0c-.1.16-.93,1.53-1.49,1.53a.39.39,0,0,1-.27-.09.41.41,0,0,1-.11-.33,2,2,0,0,1,.12-.58l2-5.91a4.62,4.62,0,0,0,.28-1.46,1.61,1.61,0,0,0-.4-1.14,1.65,1.65,0,0,0-1.24-.42,3.39,3.39,0,0,0-2.38,1,10,10,0,0,0-2,3.34l.36-1.28a6,6,0,0,0,.24-1.46,1.39,1.39,0,0,0-1.58-1.56,3.32,3.32,0,0,0-2.47,1,10.7,10.7,0,0,0-2,3.48L78,42.42a4.42,4.42,0,0,0,.19-1.2,1.77,1.77,0,0,0-.38-1.17,1.59,1.59,0,0,0-1.25-.44,3,3,0,0,0-1,.16,3.31,3.31,0,0,0-.63.32,2.7,2.7,0,0,0-.88,1.07,4.56,4.56,0,0,0-.24.55l-.54,1.53c-.11.27-.38,1-.76,2a10.18,10.18,0,0,1-1,2.2,3.67,3.67,0,0,1-1.38,1.28,4.26,4.26,0,0,1-1,.19h0a2.2,2.2,0,0,1-1.27-.4,2.79,2.79,0,0,1-1-1.28,5.61,5.61,0,0,1-.37-2.2v-.27a.68.68,0,0,1,.68-.67h4.26a.68.68,0,0,0,.68-.74c-.2-2.47-1.44-3.71-3.74-3.71a4.65,4.65,0,0,0-3.56,1.43,5.83,5.83,0,0,0-1.34,4.14,5.61,5.61,0,0,0,1.25,4,4.37,4.37,0,0,0,3.37,1.35,3.8,3.8,0,0,0,2.58-.91,4.81,4.81,0,0,0,1.34-2c.12-.31.67-1.8,1.65-4.45l.38-1,.26-.61.06-.12.07-.18a1.59,1.59,0,0,1,.17-.25A.45.45,0,0,1,74.7,41a.87.87,0,0,1,.65-.36q.36,0,.36.42a2,2,0,0,1-.1.58l-2.2,7.79a.68.68,0,0,0,.65.86h1.4a.68.68,0,0,0,.66-.51l.39-1.52v0a29.26,29.26,0,0,1,2.13-5.43c.76-1.39,1.43-2.09,2-2.09.21,0,.32.13.32.39a3,3,0,0,1-.17.82l-2.18,7.44a.68.68,0,0,0,.65.87h1.44a.68.68,0,0,0,.65-.5l.39-1.37v.06a27.93,27.93,0,0,1,2.31-5.73c.77-1.32,1.43-2,2-2,.19,0,.28.14.28.41a2.9,2.9,0,0,1-.16.8l-1.8,5.4a5.11,5.11,0,0,0-.3,1.57,1.62,1.62,0,0,0,.22.9,1.72,1.72,0,0,0,1.6.72,2.48,2.48,0,0,0,.49,0,3.36,3.36,0,0,0,1-.34c.7-.38,1.18-.94,2-2.57a30.58,30.58,0,0,0,1.36-2.93c0,.12,0,.31,0,.55a5.77,5.77,0,0,0,1.26,4,4.37,4.37,0,0,0,3.37,1.35,3.71,3.71,0,0,0,2.57-.91,4.33,4.33,0,0,0,.92-1.08,4.66,4.66,0,0,0,.34-.65,50.19,50.19,0,0,1,2.68-4.56.68.68,0,0,1,1.18,0c.23.4.58,1,1,1.64s.69,1,.88,1.34a3.44,3.44,0,0,1,.4,1,2.23,2.23,0,0,1,0,1.14,1.5,1.5,0,0,1-.75,1,1.7,1.7,0,0,1-1.13.08,2.58,2.58,0,0,1-1.19-.74,2.85,2.85,0,0,1-.69-1.3.27.27,0,0,0-.3-.2h0a.28.28,0,0,0-.21.32,5.8,5.8,0,0,0,.21.63,4.22,4.22,0,0,0,.68,1.07,4.49,4.49,0,0,0,.82.67,3,3,0,0,0,.46.24,3.11,3.11,0,0,0,.45.16,6.23,6.23,0,0,0,2.42,0,3.47,3.47,0,0,0,1.62-.69,2.82,2.82,0,0,0,1-1.5A3.16,3.16,0,0,0,108.69,46.17ZM93.82,42.94a5.75,5.75,0,0,1,.52-2h0a1.38,1.38,0,0,1,1.19-.89c.48,0,.82.34,1,1a6.79,6.79,0,0,1,.31,1.9.68.68,0,0,1-.68.71H94.49A.67.67,0,0,1,93.82,42.94ZM66.56,43a6,6,0,0,1,.53-2h0a1.39,1.39,0,0,1,1.19-.89c.49,0,.82.34,1.06,1a6.47,6.47,0,0,1,.3,1.9.68.68,0,0,1-.67.72H67.24A.69.69,0,0,1,66.56,43Z"/></svg>