<?xml version="1.0" encoding="UTF-8"?>
<svg id="Capa_1" data-name="Capa 1" xmlns="http://www.w3.org/2000/svg" viewBox="0 0 378.9 258.51">
  <defs>
    <style>
      .cls-1 {
        fill: #78a2d2;
      }

      .cls-1, .cls-2 {
        stroke: #78a2d2;
        stroke-miterlimit: 10;
        stroke-width: 8px;
      }

      .cls-2 {
        fill: #faf4b1;
      }
    </style>
  </defs>
  <path class="cls-2" d="M114.61,44.11l12.84-27.81c2.51-5.44,7.97-8.92,13.96-8.9l106.29.32c6.31.02,11.97,3.91,14.24,9.79l11.75,27.68"/>
  <path class="cls-2" d="M114.61,44.11H19.57c-7.4,0-13.4,6-13.4,13.4v178.15c0,7.39,5.98,13.38,13.37,13.4l339.76.72c7.43.02,13.45-6.02,13.43-13.45l-.67-178.13c-.03-7.36-5.99-13.33-13.36-13.35l-244.09-.73Z"/>
  <path class="cls-1" d="M33.12,43.81l.12-9.93c.03-2.7,2.22-4.87,4.92-4.87l36.14-.09c2.71,0,4.92,2.18,4.94,4.9l.08,10.54"/>
  <line class="cls-2" x1="6.74" y1="80.95" x2="121.2" y2="80.17"/>
  <line class="cls-2" x1="6.82" y1="217.28" x2="127.29" y2="217.28"/>
  <line class="cls-2" x1="253.62" y1="217.28" x2="372.44" y2="217.28"/>
  <line class="cls-2" x1="261.3" y1="81.58" x2="299.82" y2="81.66"/>
  <line class="cls-2" x1="352.69" y1="81.25" x2="372.03" y2="81.27"/>
  <path class="cls-1" d="M352.29,87.25v-13.21c.01-3.58-2.87-6.48-6.45-6.5l-38.87-.24c-3.6-.02-6.54,2.89-6.54,6.5v13.45c0,3.59,2.91,6.5,6.5,6.5h38.85c3.59,0,6.49-2.91,6.5-6.49Z"/>
  <circle class="cls-2" cx="190.94" cy="145.58" r="95.55"/>
  <circle class="cls-1" cx="189.47" cy="146.27" r="70.72"/>
</svg>