<?xml version="1.0" encoding="utf-8"?>
<!-- Generator: Adobe Illustrator 26.1.0, SVG Export Plug-In . SVG Version: 6.00 Build 0)  -->
<svg version="1.1" id="Capa_1" xmlns="http://www.w3.org/2000/svg" xmlns:xlink="http://www.w3.org/1999/xlink" x="0px" y="0px"
	 viewBox="0 0 335.95 281.18" style="enable-background:new 0 0 335.95 281.18;" xml:space="preserve">
<style type="text/css">
	.st0{fill:#FAF4B1;}
	.st1{fill:#78A2D2;stroke:#000000;stroke-miterlimit:10;}
	.st2{fill:none;stroke:#000000;stroke-miterlimit:10;}
	.st3{fill:none;stroke:#F9F3B0;stroke-width:46;stroke-linecap:round;stroke-linejoin:round;stroke-miterlimit:10;}
	.st4{fill:none;stroke:#66103E;stroke-width:46;stroke-linecap:round;stroke-linejoin:round;stroke-miterlimit:10;}
	.st5{fill:none;stroke:#78A1D1;stroke-width:46;stroke-linecap:round;stroke-linejoin:round;stroke-miterlimit:10;}
	.st6{fill:none;stroke:#FAC49A;stroke-width:46;stroke-linecap:round;stroke-linejoin:round;stroke-miterlimit:10;}
	.st7{fill:none;stroke:#FAF4B1;stroke-width:46;stroke-linecap:round;stroke-linejoin:round;stroke-miterlimit:10;}
	.st8{fill:#78A2D2;}
	.st9{fill:none;stroke:#FAF4B1;stroke-width:30;stroke-linecap:round;stroke-linejoin:round;stroke-miterlimit:10;}
	.st10{fill:#FFFFFF;}
	.st11{fill:#FAC49A;}
	.st12{fill:#66103E;}
	.st13{fill:none;stroke:#FAC49A;stroke-width:20;stroke-linecap:round;stroke-linejoin:round;stroke-miterlimit:10;}
	.st14{fill:none;stroke:#78A2D2;stroke-width:8;stroke-miterlimit:10;}
	.st15{fill:none;stroke:#78A2D2;stroke-miterlimit:10;}
	.st16{fill:none;stroke:#66103E;stroke-width:8;stroke-miterlimit:10;}
	.st17{fill:#66103E;stroke:#66103E;stroke-miterlimit:10;}
	.st18{fill:none;stroke:#FAC49A;stroke-width:7;stroke-miterlimit:10;}
	.st19{fill:none;stroke:#FAC49A;stroke-width:13;stroke-miterlimit:10;}
	.st20{fill:none;stroke:#FAC49A;stroke-width:8;stroke-miterlimit:10;}
	.st21{fill:none;stroke:#FAC49A;stroke-width:5;stroke-miterlimit:10;}
	.st22{fill:none;stroke:#FAF4B1;stroke-width:8;stroke-miterlimit:10;}
	.st23{fill:none;stroke:#66103E;stroke-width:10;stroke-miterlimit:10;}
	.st24{fill:none;stroke:#78A2D2;stroke-width:10;stroke-miterlimit:10;}
	.st25{fill:none;stroke:#66103E;stroke-width:4;stroke-miterlimit:10;}
	.st26{fill:#78A2D2;stroke:#66103E;stroke-width:6;stroke-miterlimit:10;}
	.st27{fill:#66103E;stroke:#000000;stroke-miterlimit:10;}
	.st28{fill:#FAC49A;stroke:#000000;stroke-miterlimit:10;}
	.st29{fill:#FAF4B1;stroke:#000000;stroke-miterlimit:10;}
</style>
<g>
	<g>
		<g>
			<path class="st8" d="M321.1,226.39c-0.02,0-0.04,0-0.06,0l-306.26-1.58C6.48,224.77-0.02,216.64,0,206.3L0.27,46.59
				C0.28,42.2,1.5,37.97,3.7,34.68c2.79-4.15,6.98-6.51,11.44-6.52l305.99,0.57c8.31,0.01,14.82,8.13,14.82,18.47v160.73
				c0,5.71-2,10.98-5.49,14.45C327.86,224.97,324.53,226.39,321.1,226.39z M15.84,209.76l304.28,1.57c0.35-0.6,0.78-1.78,0.78-3.41
				V47.2c0-1.63-0.43-2.82-0.78-3.42L16.1,43.21c-0.35,0.6-0.78,1.78-0.78,3.4L7.8,46.6l7.53,0.01l-0.27,159.71
				C15.05,207.97,15.49,209.16,15.84,209.76z"/>
		</g>
		<g>
			<g>
				<path class="st12" d="M314.33,213.14c-0.01,0-0.03,0-0.04,0L22.01,211.7c-5.6-0.03-9.97-5.73-9.96-12.99l0.26-145.14
					c0.01-7.25,4.4-12.93,10-12.93c0,0,0.01,0,0.01,0l292.02,0.51c5.6,0.01,9.98,5.7,9.98,12.96v146.07c0,4.09-1.41,7.84-3.88,10.29
					C318.72,212.19,316.55,213.14,314.33,213.14z M15.33,53.57l3.01,0.01l-0.26,145.14c-0.01,3.97,2.09,6.94,3.96,6.95l292.28,1.44
					c0.77,0.03,1.46-0.49,1.88-0.91c1.3-1.29,2.1-3.6,2.1-6.02V54.11c0-3.96-2.1-6.93-3.97-6.93L22.31,46.66c0,0,0,0,0,0
					c-1.87,0-3.97,2.95-3.97,6.92L15.33,53.57z"/>
			</g>
		</g>
		<g>
			<path class="st12" d="M167.97,200.75c-40.75,0-73.91-33.15-73.91-73.91s33.15-73.91,73.91-73.91s73.91,33.15,73.91,73.91
				S208.73,200.75,167.97,200.75z M167.97,67.99c-32.45,0-58.85,26.4-58.85,58.85s26.4,58.85,58.85,58.85s58.85-26.4,58.85-58.85
				S200.43,67.99,167.97,67.99z"/>
		</g>
		<g>
			<circle class="st8" cx="168.47" cy="126.3" r="32.07"/>
			<path class="st12" d="M168.47,162.89c-20.17,0-36.58-16.41-36.58-36.58s16.41-36.58,36.58-36.58c20.17,0,36.58,16.41,36.58,36.58
				S188.65,162.89,168.47,162.89z M168.47,98.75c-15.19,0-27.55,12.36-27.55,27.55s12.36,27.55,27.55,27.55
				c15.19,0,27.55-12.36,27.55-27.55S183.67,98.75,168.47,98.75z"/>
		</g>
		<g>
			<path class="st8" d="M46.93,32.15l-15.05-0.1l0.11-16.2c0.02-8.4,6.79-15.36,15.4-15.83L47.64,0l28.77,0.35c0.04,0,0.08,0,0.11,0
				c8.85,0,16.21,6.86,16.46,15.39l0.17,13.28L78.1,29.21l-0.17-13.16c0-0.11-0.49-0.65-1.41-0.65c-0.01,0-0.02,0-0.03,0H76.3
				l-28.26-0.35c-0.78,0.1-1,0.59-1,0.85L46.93,32.15z"/>
		</g>
	</g>
</g>
</svg>
