<svg id="Capa_1" data-name="Capa 1" xmlns="http://www.w3.org/2000/svg" viewBox="0 0 390 711">
<defs>
<style>.cls-1,.cls-2,.cls-3,.cls-4{fill:none;stroke-linecap:round;stroke-linejoin:round;stroke-width:30px;}.cls-1{stroke:#f9f3b0;}.cls-2{stroke:#66103e;}.cls-3{stroke:#78a2d2;}.cls-4{stroke:#fac49a;}</style>
</defs>
<path class="cls-1" d="M.49.11S26.06,90.25,51.62,117.16s75.69,54.45,129.16,60.55c38.31,4.37,111.57,40,121.12,82.72,7.07,31.57,20.16,76-10.79,115.06s-106.29,59.2-135.89,103.6-30.86,95-19.58,125.34c10.19,27.39,37.07,38.81,53.22,65.72s13.45,39,13.45,39"/>
<path class="cls-2" d="M349.47,703.6s32.58-80.8-2.6-126.41S263.28,507.52,220.45,486c-48.74-24.54-82-42.89-89.75-105.47-7.43-60.35,49.39-113.65,81.55-136.94C244.82,220,306.46,177.09,306.46,125s-31.27-71.68-62.55-97.75L212.63,1.15"/>
<path class="cls-3" d="M383.86,10.25s-87.67,12.2-163.07,46S126.73,124.75,117.53,160c-9,34.64-3.74,83.77,35.79,112.46,31.69,23,80.06,31.62,121.66-14.31s34.25-98.66,6.13-118.08c-30-20.72-61.34-23-90.64,1.87C170.37,159,155.23,195.84,163,244.37S190,373.7,212.1,397.72c17.38,18.92,53.93,32,75.48,6.82,12.27-14.31,15.51-41.58-13.11-59.47-27.94-17.46-89-6.64-129.33,65.94-29.93,53.79-15.34,129.06,27.09,154.38,31.69,18.92,69,15.14,84.1-23,12.51-31.64-.31-51.66-28.38-69-37.32-23-102.75-6.14-148.76,30.16C47.89,528.24,18,578.32,40.34,620.09c27.1,50.61,71.7,57.38,95.08,24.54,21.47-30.16,3.07-61.72-32.2-68.5C63.35,568.46,21,625.72,18.36,665.58s-7.29,45.76-7.29,45.76"/>
<path class="cls-4" d="M96.18-4.83c7.59,2.81,55.89,21.55,71.54,70.31,9.12,28.44,6.21,44.25,3.19,53.92-14,44.81-49.24,59.56-89.54,106.4C63.73,246.31,41,277.61,36,328.37c-1.19,11.85-7.21,85.43,47.76,135.46,33.67,30.64,61.65,51.84,105.13,43.92C248.4,496.91,261.46,446.36,301,450.8c35.88,4,54.27,30.05,62.34,64.58,11.47,49.06-1.11,99.55-34.5,130.89-3.5,3.28-58,41.94-108,17.22-7.15-3.53-40.68-21.44-44.63-58.72-2.67-25.15,8.7-53.7,32.1-66.55,31.31-17.21,70.14,1.38,88.48,21.14,30.72,33.11,29.19,96.82-11,151.9"/>
</svg>