<?xml version="1.0" encoding="utf-8"?>
<!-- Generator: Adobe Illustrator 26.1.0, SVG Export Plug-In . SVG Version: 6.00 Build 0)  -->
<svg version="1.1" id="Capa_1" xmlns="http://www.w3.org/2000/svg" xmlns:xlink="http://www.w3.org/1999/xlink" x="0px" y="0px"
	 viewBox="0 0 401.75 306.68" style="enable-background:new 0 0 401.75 306.68;" xml:space="preserve">
<style type="text/css">
	.st0{fill:#FAF4B1;}
	.st1{fill:#78A2D2;stroke:#000000;stroke-miterlimit:10;}
	.st2{fill:none;stroke:#000000;stroke-miterlimit:10;}
	.st3{fill:none;stroke:#F9F3B0;stroke-width:46;stroke-linecap:round;stroke-linejoin:round;stroke-miterlimit:10;}
	.st4{fill:none;stroke:#66103E;stroke-width:46;stroke-linecap:round;stroke-linejoin:round;stroke-miterlimit:10;}
	.st5{fill:none;stroke:#78A1D1;stroke-width:46;stroke-linecap:round;stroke-linejoin:round;stroke-miterlimit:10;}
	.st6{fill:none;stroke:#FAC49A;stroke-width:46;stroke-linecap:round;stroke-linejoin:round;stroke-miterlimit:10;}
	.st7{fill:none;stroke:#FAF4B1;stroke-width:46;stroke-linecap:round;stroke-linejoin:round;stroke-miterlimit:10;}
	.st8{fill:#78A2D2;}
	.st9{fill:none;stroke:#FAF4B1;stroke-width:30;stroke-linecap:round;stroke-linejoin:round;stroke-miterlimit:10;}
	.st10{fill:#FFFFFF;}
	.st11{fill:#FAC49A;}
	.st12{fill:#66103E;}
	.st13{fill:none;stroke:#FAC49A;stroke-width:20;stroke-linecap:round;stroke-linejoin:round;stroke-miterlimit:10;}
	.st14{fill:none;stroke:#78A2D2;stroke-width:8;stroke-miterlimit:10;}
	.st15{fill:none;stroke:#78A2D2;stroke-miterlimit:10;}
	.st16{fill:none;stroke:#66103E;stroke-width:8;stroke-miterlimit:10;}
	.st17{fill:#66103E;stroke:#66103E;stroke-miterlimit:10;}
	.st18{fill:none;stroke:#FAC49A;stroke-width:7;stroke-miterlimit:10;}
	.st19{fill:none;stroke:#FAC49A;stroke-width:13;stroke-miterlimit:10;}
	.st20{fill:none;stroke:#FAC49A;stroke-width:8;stroke-miterlimit:10;}
	.st21{fill:none;stroke:#FAC49A;stroke-width:5;stroke-miterlimit:10;}
	.st22{fill:none;stroke:#FAF4B1;stroke-width:8;stroke-miterlimit:10;}
	.st23{fill:none;stroke:#66103E;stroke-width:10;stroke-miterlimit:10;}
	.st24{fill:none;stroke:#78A2D2;stroke-width:10;stroke-miterlimit:10;}
	.st25{fill:none;stroke:#66103E;stroke-width:4;stroke-miterlimit:10;}
	.st26{fill:#78A2D2;stroke:#66103E;stroke-width:6;stroke-miterlimit:10;}
	.st27{fill:#66103E;stroke:#000000;stroke-miterlimit:10;}
	.st28{fill:#FAC49A;stroke:#000000;stroke-miterlimit:10;}
	.st29{fill:#FAF4B1;stroke:#000000;stroke-miterlimit:10;}
</style>
<g>
	<g>
		<g>
			<path class="st12" d="M389.5,306.68c-0.01,0-0.01,0-0.02,0L13.4,306.23c-6.72-0.01-12.21-5.48-12.24-12.2L0,31.53
				c-0.01-3.3,0.77-6.6,2.26-9.55L9.99,6.72C12.08,2.57,16.27,0,20.92,0h101.27c4.66,0,8.98,2.71,11.02,6.9l7.14,14.7
				c0.34,0.69,1.05,1.14,1.82,1.14l247.33,0.03c6.75,0,12.25,5.5,12.25,12.25v259.41c0,3.27-1.28,6.35-3.59,8.67
				C395.84,305.41,392.77,306.68,389.5,306.68z M20.92,10.22c-0.77,0-1.46,0.43-1.81,1.11l-7.73,15.27
				c-0.76,1.51-1.16,3.2-1.15,4.88l1.16,262.5c0,1.11,0.91,2.02,2.02,2.02l376.08,0.45c0,0,0,0,0,0c0.73,0,1.21-0.37,1.43-0.59
				c0.22-0.22,0.59-0.7,0.59-1.43V35.02c0-1.12-0.91-2.03-2.03-2.03l-247.33-0.03c-4.66,0-8.98-2.71-11.02-6.9l-7.14-14.7
				c-0.34-0.69-1.05-1.14-1.82-1.14H20.92z"/>
		</g>
		<g>
			<rect x="8.43" y="29.77" class="st12" width="383.34" height="25.36"/>
			<path class="st12" d="M392.42,55.77H7.79V29.13h384.62V55.77z M9.07,54.49h382.06V30.41H9.07V54.49z"/>
		</g>
		<g>
			<path class="st11" d="M383.97,298.57H17.94c-5.61,0-10.17-4.56-10.17-10.17V60.87c0-5.61,4.56-10.17,10.17-10.17h366.03
				c5.61,0,10.17,4.56,10.17,10.17V288.4C394.14,294,389.58,298.57,383.97,298.57z M17.94,59.65c-0.68,0-1.23,0.55-1.23,1.23V288.4
				c0,0.68,0.55,1.23,1.23,1.23h366.03c0.68,0,1.23-0.55,1.23-1.23V60.87c0-0.68-0.55-1.23-1.23-1.23H17.94z"/>
		</g>
		<g>
			<polygon class="st12" points="5.13,29.77 134.76,29.22 122.41,5.41 16.19,6.92 			"/>
			<path class="st12" d="M4.11,30.41L15.78,6.29l0.39-0.01L122.8,4.77l13.02,25.08l-1.05,0L4.11,30.41z M16.59,7.55L6.15,29.12
				l127.56-0.54L122.03,6.05L16.59,7.55z"/>
		</g>
	</g>
</g>
</svg>
