<svg id="Capa_1" data-name="Capa 1" xmlns="http://www.w3.org/2000/svg" viewBox="0 0 378.9 258.51"><defs><style>.cls-1{fill:#597999;}.cls-2{fill:#78a2d2;stroke:#597999;stroke-width:8px;}.cls-2,.cls-3{stroke-miterlimit:10;}.cls-3,.cls-4{fill:#faf4b1;}.cls-3{stroke:#faf4b1;}</style></defs><path class="cls-1" d="M11.43,25H322.75c14.36,0,28.84.53,43.2,0h.62c15.45,0,15.47-24,0-24H55.26C40.89,1,26.42.51,12.06,1c-.21,0-.42,0-.63,0C-4,1-4,25,11.43,25Z"/><path class="cls-2" d="M183.41,27.89l-170.76.22C9,28.11,6.07,31.32,6,35.31c-.25,36.2-1.32,197.26-.87,207,.43,9.36,5.61,10.63,9.18,10.81,5.36.28,88.45.88,175.13,1.25"/><path class="cls-2" d="M183.07,27.84l183.11.22c3.63,0,6.58,3.21,6.61,7.19.26,36.21,1.41,197.33.93,207.09-.47,9.35-6,10.62-9.82,10.81-5.73.28-94.61.88-187.32,1.25"/><ellipse class="cls-3" cx="62.36" cy="12.99" rx="6.16" ry="6.76"/><ellipse class="cls-3" cx="44.47" cy="12.99" rx="6.16" ry="6.76"/><ellipse class="cls-3" cx="24.08" cy="12.99" rx="6.16" ry="6.76"/><ellipse class="cls-3" cx="360.99" cy="12.99" rx="6.16" ry="6.76"/><ellipse class="cls-3" cx="343.1" cy="12.99" rx="6.16" ry="6.76"/><ellipse class="cls-3" cx="322.71" cy="12.99" rx="6.16" ry="6.76"/><path class="cls-4" d="M125.08,163.89l-.92-2.37h-3.73l-.91,2.37h-1.11l3.28-8.61H123l3.29,8.61Zm-1.27-3.35-1.52-4-1.52,4Z"/><path class="cls-4" d="M136.06,163.69a3.31,3.31,0,0,1-1,.26,9.23,9.23,0,0,1-1.18.07h-.15a5.31,5.31,0,0,1-2.36-.58,4,4,0,0,1-1.59-1.53,4.55,4.55,0,0,1-.57-2.33,4.48,4.48,0,0,1,.6-2.34,4.12,4.12,0,0,1,1.63-1.55,5.16,5.16,0,0,1,2.39-.55,6.82,6.82,0,0,1,1.18.11,3.75,3.75,0,0,1,1,.32l-.07,1.16a4.29,4.29,0,0,0-1-.28,5.91,5.91,0,0,0-1.12-.11,3.94,3.94,0,0,0-1.87.42,3.18,3.18,0,0,0-1.24,1.17,3.24,3.24,0,0,0-.44,1.72,3.5,3.5,0,0,0,.4,1.72,2.94,2.94,0,0,0,1.16,1.16,3.84,3.84,0,0,0,1.78.46,5.4,5.4,0,0,0,.69,0,6.48,6.48,0,0,0,.67-.08v-2.77h1.05Z"/><path class="cls-4" d="M140.21,163.89v-8.61h5v1.13H141.3V159h3.6v1h-3.6v2.87h3.92v1Z"/><path class="cls-4" d="M149.26,163.89v-8.61h1.05l4.83,6.86v-6.86h1v8.61h-1.06l-4.83-6.7v6.7Z"/><path class="cls-4" d="M166.45,162.61l.09,1a4.42,4.42,0,0,1-.93.29,5.17,5.17,0,0,1-1,.11,4.85,4.85,0,0,1-2.3-.53,3.81,3.81,0,0,1-1.54-1.54,5.3,5.3,0,0,1,0-4.7,4,4,0,0,1,1.52-1.55,4.35,4.35,0,0,1,2.21-.56,6.94,6.94,0,0,1,1.11.1,2.84,2.84,0,0,1,.92.31l-.09,1.16a3.37,3.37,0,0,0-.83-.27,4.65,4.65,0,0,0-1-.1,3.37,3.37,0,0,0-1.7.42,3.1,3.1,0,0,0-1.13,1.17,3.53,3.53,0,0,0-.41,1.72,3.62,3.62,0,0,0,.41,1.75,3,3,0,0,0,1.18,1.16,3.56,3.56,0,0,0,1.77.42,5,5,0,0,0,1-.1A4.6,4.6,0,0,0,166.45,162.61Z"/><path class="cls-4" d="M170.46,163.89v-8.61h1.09v8.61Z"/><path class="cls-4" d="M181.81,163.89l-.92-2.37h-3.73l-.91,2.37h-1.11l3.29-8.61h1.28l3.29,8.61Zm-1.27-3.35-1.51-4-1.52,4Z"/><path class="cls-4" d="M197.45,162.61l.1,1a4.42,4.42,0,0,1-.93.29,5.17,5.17,0,0,1-1,.11,4.85,4.85,0,0,1-2.3-.53,3.81,3.81,0,0,1-1.54-1.54,5.3,5.3,0,0,1,0-4.7,4,4,0,0,1,1.52-1.55,4.35,4.35,0,0,1,2.21-.56,6.94,6.94,0,0,1,1.11.1,2.84,2.84,0,0,1,.92.31l-.09,1.16a3.37,3.37,0,0,0-.83-.27,4.65,4.65,0,0,0-1-.1,3.37,3.37,0,0,0-1.7.42,3.1,3.1,0,0,0-1.13,1.17,3.53,3.53,0,0,0-.41,1.72,3.62,3.62,0,0,0,.41,1.75,3,3,0,0,0,1.18,1.16,3.56,3.56,0,0,0,1.77.42,5,5,0,0,0,1-.1A4.26,4.26,0,0,0,197.45,162.61Z"/><path class="cls-4" d="M201.47,163.89v-8.61h1.9a4.55,4.55,0,0,1,1.68.28,2.49,2.49,0,0,1,1.12.85,2.3,2.3,0,0,1,.41,1.38,2.85,2.85,0,0,1-.19,1.06,2.2,2.2,0,0,1-.6.85,2.47,2.47,0,0,1-.95.49,7.12,7.12,0,0,1-1.11.19l3.41,3.51h-1.41l-3.17-3.41v3.41Zm2-7.48h-.91v3.15h.87a2.34,2.34,0,0,0,1.51-.43,1.49,1.49,0,0,0,.53-1.24,1.28,1.28,0,0,0-.54-1.08A2.39,2.39,0,0,0,203.47,156.41Z"/><path class="cls-4" d="M210.79,163.89v-8.61h5v1.13h-3.92V159h3.6v1h-3.6v2.87h3.92v1Z"/><path class="cls-4" d="M225.61,163.89l-.92-2.37H221l-.9,2.37h-1.12l3.29-8.61h1.28l3.29,8.61Zm-1.27-3.35-1.52-4-1.52,4Z"/><path class="cls-4" d="M228.79,156.4v-1.12h6.13v1.12h-2.51v7.49h-1.09V156.4Z"/><path class="cls-4" d="M238.55,163.89v-8.61h1.08v8.61Z"/><path class="cls-4" d="M247.81,163.89h-1.29l-3.35-8.61h1.3l2.76,7.55,2.49-7.55h1.18Z"/><path class="cls-4" d="M259.31,163.89l-.92-2.37h-3.74l-.9,2.37h-1.12l3.29-8.61h1.28l3.29,8.61ZM258,160.54l-1.52-4-1.52,4Z"/><path class="cls-4" d="M260.13,136.37v-.06a36.14,36.14,0,0,0-4.21-7.17l-1.46-1.95a33.6,33.6,0,0,1-3.49-5.32,8.94,8.94,0,0,1-.59-2c-.25-1.42.18-2-.17-2.51-1.31-2.08-4.74-2.51-7.16-1.58a4.32,4.32,0,0,0-2,2.75,204.47,204.47,0,0,1-11.38,21.4c-.31.47-2.26,3.37-4.91,4.4a10.29,10.29,0,0,1-3.4.63,7,7,0,0,1-4-1.26,8.74,8.74,0,0,1-3-4,17.83,17.83,0,0,1-1.16-6.92v-.85a2.12,2.12,0,0,1,2.13-2.1h13.4a2.14,2.14,0,0,0,2.12-2.31q-.93-11.67-11.74-11.66a15.64,15.64,0,0,0-8.35,2.17,13.13,13.13,0,0,0-2.84,2.33c-1.86,2-2.21,3.77-3.61,7.12l-.14.33c-.12.24-.22.45-.31.61q-1.26,2.61-2.56,5.23-2.15,4.32-4.3,8.49l-.06.09c-.3.51-2.9,4.8-4.68,4.8a1.28,1.28,0,0,1-.84-.27,1.37,1.37,0,0,1-.36-1.06,6.73,6.73,0,0,1,.38-1.82l6.16-18.56a13.87,13.87,0,0,0,.88-4.59,5,5,0,0,0-1.26-3.59,5.14,5.14,0,0,0-3.89-1.32,10.62,10.62,0,0,0-7.46,3q-3.24,3-6.39,10.51l1.13-4a18.41,18.41,0,0,0,.76-4.59q0-4.91-5-4.91a10.55,10.55,0,0,0-7.77,3.27q-3.24,3.27-6.32,11l1.39-5.41a15.3,15.3,0,0,0,.56-3.78,5.43,5.43,0,0,0-1.19-3.65,4.92,4.92,0,0,0-3.9-1.39,8.87,8.87,0,0,0-3,.51,8.16,8.16,0,0,0-4.76,4.36,14.52,14.52,0,0,0-.76,1.73L149,127.14c-.33.86-1.19,3.19-2.37,6.33-1.32,3.53-2,5.32-3.08,6.91-.27.4-2.21,3.2-4.34,4a12.51,12.51,0,0,1-3.31.62h-.05a7,7,0,0,1-4-1.26,8.77,8.77,0,0,1-3-4,17.83,17.83,0,0,1-1.16-6.92V132a2.13,2.13,0,0,1,2.13-2.11h13.4a2.13,2.13,0,0,0,2.12-2.3q-.93-11.67-11.74-11.66a14.64,14.64,0,0,0-11.2,4.49q-4.22,4.5-4.21,13c0,5.66,1.31,9.72,3.93,12.55a13.81,13.81,0,0,0,10.6,4.25,11.78,11.78,0,0,0,8.09-2.87,15.07,15.07,0,0,0,4.22-6.16q.54-1.5,5.18-14l1.2-3.21c.3-.71.51-1.19.82-1.91l.17-.39c.13-.29.17-.4.24-.55a4.12,4.12,0,0,1,.52-.8l.21-.25a2.82,2.82,0,0,1,2-1.16c.75,0,1.13.44,1.13,1.32a6.58,6.58,0,0,1-.31,1.82l-6.91,24.47a2.12,2.12,0,0,0,2,2.71h4.42a2.14,2.14,0,0,0,2.06-1.6l1.22-4.75v.06a92,92,0,0,1,6.7-17q3.56-6.54,6.39-6.54c.67,0,1,.4,1,1.19a9.57,9.57,0,0,1-.5,2.58l-6.88,23.38a2.13,2.13,0,0,0,2,2.73h4.55a2.12,2.12,0,0,0,2-1.56l1.21-4.29v.19q3.64-11.83,7.27-18t6.19-6.19c.59,0,.88.42.88,1.25a9.44,9.44,0,0,1-.5,2.52l-5.67,17a16.2,16.2,0,0,0-.94,4.91,5.13,5.13,0,0,0,.69,2.83q1.38,2.27,5,2.26a9.27,9.27,0,0,0,1.55-.11,10.35,10.35,0,0,0,3-1.07c2.17-1.2,3.7-3,6.4-8.09,1.24-2.35,2.75-5.44,4.27-9.18,0,.36-.05,1-.05,1.71,0,2.46,0,8.31,3.93,12.55q3.93,4.23,10.6,4.24a11.74,11.74,0,0,0,8.08-2.86,14.52,14.52,0,0,0,2.89-3.4,15,15,0,0,0,1.06-2c.66-1.56,2.91-5.53,8.4-14.34a2.18,2.18,0,0,1,3.73.07c.72,1.27,1.82,3,3.29,5.16,1.24,1.82,2.16,3.22,2.76,4.22a10.78,10.78,0,0,1,1.28,3.19,7.15,7.15,0,0,1-.17,3.57,4.76,4.76,0,0,1-2.37,3.19,5.24,5.24,0,0,1-3.53.24,7.78,7.78,0,0,1-3.76-2.34,9,9,0,0,1-2.14-4.07.83.83,0,0,0-1-.61h0a.82.82,0,0,0-.65,1,11,11,0,0,0,.65,2,12.28,12.28,0,0,0,2.13,3.37,14.65,14.65,0,0,0,2.56,2.1,12,12,0,0,0,1.45.76,8.53,8.53,0,0,0,1.43.5,19.29,19.29,0,0,0,7.61,0,11,11,0,0,0,5.08-2.15,9,9,0,0,0,3.17-4.73A9.88,9.88,0,0,0,260.13,136.37ZM213.4,126.2a18.54,18.54,0,0,1,1.64-6.27h0q1.47-2.81,3.74-2.8c1.51,0,2.57,1.08,3.3,3.24a21,21,0,0,1,1,6,2.14,2.14,0,0,1-2.13,2.23h-5.4A2.13,2.13,0,0,1,213.4,126.2Zm-85.62.07a18.45,18.45,0,0,1,1.65-6.27h0q1.47-2.81,3.74-2.8c1.51,0,2.57,1.08,3.31,3.24a21,21,0,0,1,1,6,2.13,2.13,0,0,1-2.12,2.23H129.9A2.14,2.14,0,0,1,127.78,126.27Z"/></svg>