<?xml version="1.0" encoding="utf-8"?>
<!-- Generator: Adobe Illustrator 26.1.0, SVG Export Plug-In . SVG Version: 6.00 Build 0)  -->
<svg version="1.1" id="Capa_1" xmlns="http://www.w3.org/2000/svg" xmlns:xlink="http://www.w3.org/1999/xlink" x="0px" y="0px"
	 viewBox="0 0 1440 900" style="enable-background:new 0 0 1440 900;" xml:space="preserve">
<style type="text/css">
	.st0{fill:#FAF4B1;}
	.st1{fill:#78A2D2;stroke:#000000;stroke-miterlimit:10;}
	.st2{fill:none;stroke:#000000;stroke-miterlimit:10;}
	.st3{fill:none;stroke:#F9F3B0;stroke-width:46;stroke-linecap:round;stroke-linejoin:round;stroke-miterlimit:10;}
	.st4{fill:none;stroke:#66103E;stroke-width:46;stroke-linecap:round;stroke-linejoin:round;stroke-miterlimit:10;}
	.st5{fill:none;stroke:#78A1D1;stroke-width:46;stroke-linecap:round;stroke-linejoin:round;stroke-miterlimit:10;}
	.st6{fill:none;stroke:#FAC49A;stroke-width:46;stroke-linecap:round;stroke-linejoin:round;stroke-miterlimit:10;}
	.st7{fill:none;stroke:#FAF4B1;stroke-width:46;stroke-linecap:round;stroke-linejoin:round;stroke-miterlimit:10;}
	.st8{fill:#78A2D2;}
	.st9{fill:none;stroke:#FAF4B1;stroke-width:30;stroke-linecap:round;stroke-linejoin:round;stroke-miterlimit:10;}
	.st10{fill:#FFFFFF;}
	.st11{fill:#FAC49A;}
	.st12{fill:#66103E;}
	.st13{fill:none;stroke:#FAC49A;stroke-width:20;stroke-linecap:round;stroke-linejoin:round;stroke-miterlimit:10;}
	.st14{fill:none;stroke:#78A2D2;stroke-width:8;stroke-miterlimit:10;}
	.st15{fill:none;stroke:#78A2D2;stroke-miterlimit:10;}
	.st16{fill:none;stroke:#66103E;stroke-width:8;stroke-miterlimit:10;}
	.st17{fill:#66103E;stroke:#66103E;stroke-miterlimit:10;}
	.st18{fill:none;stroke:#FAC49A;stroke-width:7;stroke-miterlimit:10;}
	.st19{fill:none;stroke:#FAC49A;stroke-width:13;stroke-miterlimit:10;}
	.st20{fill:none;stroke:#FAC49A;stroke-width:8;stroke-miterlimit:10;}
	.st21{fill:none;stroke:#FAC49A;stroke-width:5;stroke-miterlimit:10;}
	.st22{fill:none;stroke:#FAF4B1;stroke-width:8;stroke-miterlimit:10;}
	.st23{fill:none;stroke:#66103E;stroke-width:10;stroke-miterlimit:10;}
	.st24{fill:none;stroke:#78A2D2;stroke-width:10;stroke-miterlimit:10;}
	.st25{fill:none;stroke:#66103E;stroke-width:4;stroke-miterlimit:10;}
	.st26{fill:#78A2D2;stroke:#66103E;stroke-width:6;stroke-miterlimit:10;}
	.st27{fill:#66103E;stroke:#000000;stroke-miterlimit:10;}
	.st28{fill:#FAC49A;stroke:#000000;stroke-miterlimit:10;}
	.st29{fill:#FAF4B1;stroke:#000000;stroke-miterlimit:10;}
</style>
<path class="st3" d="M19.97,154.53c0,0,65.22,106.41,160.73,103.75c212.72-5.94,229.41-14.61,258.63,121.28
	C475.68,548.58,304.9,528.6,274.22,630.89C243.1,734.6,536.99,858.21,659.98,603.12c118.36-245.48,156.45,87.22,344.85,102.28
	c105.69,8.45,302.19-175.69,159.27-314.16c-140.76-136.38-127.03-374.57,64.29-337.54c135.89,26.3-33.61,130.75-1.46,204.57
	c39.45,90.6,133.34,24.62,156.35,102.28c23.38,78.91-18.55,189.97,29.22,194.34"/>
<path class="st4" d="M195.31,25.48c0,0-42.38,184.58,276.15,146.59c168.89-20.14-38.04,173.57,67.23,289.32
	c75.42,82.92,240.91-110.91,374.07,56.99c201.65,254.25,254.05-92.77,397.45,33.61c172.42,151.97-133.88,276.17,111.61,333.16"/>
<path class="st5" d="M829.48,25.48c0,0,118.36,307.32-86.21,302.93c-187-4.01,20.79-214.07-217.72-225.03
	c-286.4-13.15-109.14,222.76-366.76,318.54C38.84,466.52-21.48,702.68,94.57,705.4c129.36,3.03,0-175.5,181.11-154.88
	c145.26,16.54-84.96,456.53,198.72,267.4c162.19-108.13,17.88,117.38,245.6,19.1c87.63-37.82-42.95-124.82,5.46-186.09
	c47.1-59.61,134.53,54.93,210.3,151.29c73.53,93.52,125.52-13.99,168.43-35.45c96.44-48.22,125.63,75.01,144.66,103.75"/>
<path class="st6" d="M1421.82,31.79c0,0-59-4.38-117.45,97.9c-84.01,147.02-138.49-85.65-253.48-30.84
	c-187.44,89.35,45.68,286.19-49.39,337.15c-109.88,58.89-131.1-224.49-252.38-221.56C578.1,218.56,591.3,359.1,608.84,462.85
	s-47.01,226.71-233.79,184.11c-118.59-27.04-67.15,214.27-173.88,165.12c-133.52-61.49-168.89,1.49-150.47,65.79"/>
</svg>
