<?xml version="1.0" encoding="utf-8"?>
<!-- Generator: Adobe Illustrator 26.1.0, SVG Export Plug-In . SVG Version: 6.00 Build 0)  -->
<svg version="1.1" id="Capa_1" xmlns="http://www.w3.org/2000/svg" xmlns:xlink="http://www.w3.org/1999/xlink" x="0px" y="0px"
	 viewBox="0 0 441.85 276.13" style="enable-background:new 0 0 441.85 276.13;" xml:space="preserve">
<style type="text/css">
	.st0{fill:#FAF4B1;}
	.st1{fill:#78A2D2;stroke:#000000;stroke-miterlimit:10;}
	.st2{fill:none;stroke:#000000;stroke-miterlimit:10;}
	.st3{fill:none;stroke:#F9F3B0;stroke-width:46;stroke-linecap:round;stroke-linejoin:round;stroke-miterlimit:10;}
	.st4{fill:none;stroke:#66103E;stroke-width:46;stroke-linecap:round;stroke-linejoin:round;stroke-miterlimit:10;}
	.st5{fill:none;stroke:#78A1D1;stroke-width:46;stroke-linecap:round;stroke-linejoin:round;stroke-miterlimit:10;}
	.st6{fill:none;stroke:#FAC49A;stroke-width:46;stroke-linecap:round;stroke-linejoin:round;stroke-miterlimit:10;}
	.st7{fill:none;stroke:#FAF4B1;stroke-width:46;stroke-linecap:round;stroke-linejoin:round;stroke-miterlimit:10;}
	.st8{fill:#78A2D2;}
	.st9{fill:none;stroke:#FAF4B1;stroke-width:30;stroke-linecap:round;stroke-linejoin:round;stroke-miterlimit:10;}
	.st10{fill:#FFFFFF;}
	.st11{fill:#FAC49A;}
	.st12{fill:#66103E;}
	.st13{fill:none;stroke:#FAC49A;stroke-width:20;stroke-linecap:round;stroke-linejoin:round;stroke-miterlimit:10;}
	.st14{fill:none;stroke:#78A2D2;stroke-width:8;stroke-miterlimit:10;}
	.st15{fill:none;stroke:#78A2D2;stroke-miterlimit:10;}
	.st16{fill:none;stroke:#66103E;stroke-width:8;stroke-miterlimit:10;}
	.st17{fill:#66103E;stroke:#66103E;stroke-miterlimit:10;}
	.st18{fill:none;stroke:#FAC49A;stroke-width:7;stroke-miterlimit:10;}
	.st19{fill:none;stroke:#FAC49A;stroke-width:13;stroke-miterlimit:10;}
	.st20{fill:none;stroke:#FAC49A;stroke-width:8;stroke-miterlimit:10;}
	.st21{fill:none;stroke:#FAC49A;stroke-width:5;stroke-miterlimit:10;}
	.st22{fill:none;stroke:#FAF4B1;stroke-width:8;stroke-miterlimit:10;}
	.st23{fill:none;stroke:#66103E;stroke-width:10;stroke-miterlimit:10;}
	.st24{fill:none;stroke:#78A2D2;stroke-width:10;stroke-miterlimit:10;}
	.st25{fill:none;stroke:#66103E;stroke-width:4;stroke-miterlimit:10;}
	.st26{fill:#78A2D2;stroke:#66103E;stroke-width:6;stroke-miterlimit:10;}
	.st27{fill:#66103E;stroke:#000000;stroke-miterlimit:10;}
	.st28{fill:#FAC49A;stroke:#000000;stroke-miterlimit:10;}
	.st29{fill:#FAF4B1;stroke:#000000;stroke-miterlimit:10;}
</style>
<g>
	<g>
		<g>
			<g>
				<path class="st0" d="M16.66,34.49c46.2,0.01,92.39,0.01,138.59,0.02c73.09,0.01,146.18,0.02,219.27,0.03
					c16.89,0,33.79,0,50.68,0.01c22.19,0,22.23-34.49,0-34.49C379,0.04,332.8,0.04,286.6,0.03C213.52,0.02,140.43,0.01,67.34,0.01
					C50.44,0,33.55,0,16.66,0C-5.53,0-5.57,34.49,16.66,34.49L16.66,34.49z"/>
			</g>
		</g>
		<g>
			<g>
				<path class="st8" d="M221.45,276.12c-99.24-0.39-195.39-1.01-201.71-1.32c-9.8-0.47-15.5-6.43-16.02-16.79
					C3.19,247.82,4.34,89,4.7,40.56c0.05-7.3,6.04-13.24,13.35-13.25l196.44-0.23l0.01,11.5L18.06,38.8c-1.02,0-1.86,0.83-1.86,1.84
					c-0.75,99.65-1.4,208.93-1,216.78c0.29,5.66,2.51,5.76,5.09,5.89c6.09,0.29,103.87,0.92,201.21,1.3L221.45,276.12z"/>
			</g>
			<g>
				<path class="st8" d="M206.66,276.13l-0.04-11.5c104.12-0.38,208.73-1.01,215.25-1.31c3.88-0.17,5.54-1.03,5.81-5.91
					c0.43-7.84-0.28-117.15-1.08-216.83c-0.01-1.01-0.84-1.84-1.86-1.84l-210.63-0.23l0.01-11.5l210.64,0.23
					c7.3,0.01,13.29,5.95,13.35,13.25c0.39,48.45,1.61,207.34,1.06,217.54c-0.33,6-2.94,16.16-16.77,16.77
					C415.61,275.12,312.79,275.74,206.66,276.13z"/>
			</g>
		</g>
		<g>
			<path class="st8" d="M82.14,22.96c-0.72,0-1.45-0.1-2.17-0.31c-4.13-1.2-6.52-5.54-5.32-9.67c0.58-2,1.91-3.66,3.73-4.66
				s3.93-1.24,5.94-0.66c4.13,1.2,6.52,5.54,5.32,9.67h0C88.65,20.74,85.53,22.96,82.14,22.96z M82.14,8.79
				c-1.06,0-2.11,0.27-3.06,0.79c-1.49,0.82-2.57,2.17-3.05,3.8c-0.98,3.37,0.97,6.91,4.34,7.89c3.37,0.98,6.91-0.97,7.89-4.34l0,0
				c0.98-3.37-0.97-6.91-4.34-7.89C83.33,8.87,82.73,8.79,82.14,8.79z"/>
		</g>
		<g>
			<path class="st8" d="M61.56,22.96c-0.72,0-1.45-0.1-2.17-0.31c-4.13-1.2-6.52-5.54-5.32-9.67c0.58-2,1.91-3.66,3.73-4.66
				c1.83-1,3.93-1.24,5.94-0.66c4.13,1.2,6.52,5.54,5.32,9.67h0C68.07,20.74,64.95,22.96,61.56,22.96z M61.56,8.79
				c-1.06,0-2.11,0.27-3.06,0.79c-1.49,0.82-2.57,2.17-3.05,3.8c-0.98,3.37,0.97,6.91,4.34,7.89c3.37,0.98,6.91-0.97,7.89-4.34l0,0
				c0.98-3.37-0.97-6.91-4.34-7.89C62.75,8.87,62.15,8.79,61.56,8.79z"/>
		</g>
		<g>
			<path class="st8" d="M38.1,22.96c-0.72,0-1.45-0.1-2.17-0.31c-4.13-1.2-6.52-5.54-5.32-9.67c0.58-2,1.91-3.66,3.73-4.66
				c1.83-1,3.93-1.24,5.94-0.66c4.13,1.2,6.52,5.54,5.32,9.67h0C44.61,20.74,41.49,22.96,38.1,22.96z M38.1,8.79
				c-1.06,0-2.11,0.27-3.06,0.79c-1.49,0.82-2.57,2.17-3.05,3.8c-0.98,3.37,0.97,6.91,4.34,7.89c3.37,0.98,6.91-0.97,7.89-4.34l0,0
				c0.98-3.37-0.97-6.91-4.34-7.89C39.29,8.87,38.69,8.79,38.1,8.79z"/>
		</g>
	</g>
</g>
</svg>
