<svg id="Capa_1" data-name="Capa 1" xmlns="http://www.w3.org/2000/svg" viewBox="0 0 378.9 258.51"><defs><style>.cls-1,.cls-32{fill:#ddb499;}.cls-1,.cls-2,.cls-21,.cls-3,.cls-5{stroke:#fac49a;}.cls-1,.cls-10,.cls-11,.cls-12,.cls-13,.cls-14,.cls-16,.cls-17,.cls-18,.cls-19,.cls-2,.cls-20,.cls-21,.cls-22,.cls-23,.cls-24,.cls-25,.cls-26,.cls-27,.cls-28,.cls-3,.cls-30,.cls-31,.cls-32,.cls-4,.cls-5,.cls-6,.cls-7,.cls-8,.cls-9{stroke-miterlimit:10;}.cls-1,.cls-28,.cls-4,.cls-5,.cls-6,.cls-7,.cls-8,.cls-9{stroke-width:8px;}.cls-14,.cls-17,.cls-2,.cls-27{fill:none;}.cls-2{stroke-width:13px;}.cls-21,.cls-3,.cls-5{fill:#fac49a;}.cls-3{stroke-width:5px;}.cls-4{fill:#faf4b1;stroke:#faf4b1;}.cls-6{fill:#d8d3a7;stroke:#d8d3a7;}.cls-10,.cls-20,.cls-31,.cls-7,.cls-8,.cls-9{fill:#78a2d2;}.cls-20,.cls-31,.cls-7{stroke:#78a2d2;}.cls-13,.cls-8{stroke:#e6e6e6;}.cls-10,.cls-9{stroke:#f2f2f2;}.cls-10{stroke-width:7px;}.cls-11,.cls-15,.cls-16,.cls-19{fill:#66103e;}.cls-11,.cls-16,.cls-19{stroke:#66103e;}.cls-11,.cls-12,.cls-13,.cls-18{stroke-width:2px;}.cls-12,.cls-28{fill:#a3cc83;stroke:#a3cc83;}.cls-13{fill:#e6e6e6;}.cls-14,.cls-24,.cls-27{stroke:#ccc;}.cls-16{stroke-width:0.25px;}.cls-17{stroke:#000;stroke-width:0.5px;}.cls-18{fill:#737572;stroke:#c2c6be;}.cls-19,.cls-20,.cls-21,.cls-22,.cls-23,.cls-24,.cls-25,.cls-26,.cls-27{stroke-width:0.75px;}.cls-22{fill:#999;stroke:#999;}.cls-23{fill:#666;stroke:#666;}.cls-24{fill:#ccc;}.cls-25{fill:#333;stroke:#333;}.cls-26{fill:#b3b3b3;stroke:#b3b3b3;}.cls-29,.cls-30{fill:#597999;}.cls-30{stroke:#597999;}.cls-32{stroke:#ddb499;stroke-width:4px;}</style></defs><path class="cls-1" d="M51.93,169.13,5.77,242.62c-3.46,4.25-.86,11.22,4.18,11.22l359.37.48c4.89,0,7.55-6.6,4.41-10.94L334,168.43"/><path class="cls-2" d="M187.54,7.3,55.17,7.45a5.1,5.1,0,0,0-5.12,5c-.19,25.26-1,137.63-.67,144.43.33,6.53,4.34,7.42,7.11,7.55,4.15.19,68.57.61,135.76.87"/><path class="cls-2" d="M187.28,7.27l141.94.15a5.09,5.09,0,0,1,5.12,5c.21,25.26,1.1,137.66.72,144.47-.36,6.53-4.65,7.42-7.6,7.55-4.45.19-73.34.61-145.21.87"/><path class="cls-3" d="M155,224.34l-7.77,15a3.47,3.47,0,0,0,3.11,5.06h97.51a3.47,3.47,0,0,0,3.16-4.93L244.24,225a3.5,3.5,0,0,0-3.15-2l-83-.53A3.48,3.48,0,0,0,155,224.34Z"/><path class="cls-4" d="M187.78,11.84,58.78,12a4.88,4.88,0,0,0-5,4.7c-.18,23.61-1,128.65-.65,135,.33,6.1,4.24,6.93,6.93,7.05,4,.18,66.83.57,132.31.81"/><path class="cls-4" d="M187.53,11.81,325.86,12a4.86,4.86,0,0,1,5,4.69c.2,23.62,1.07,128.7.71,135.07-.35,6.1-4.54,6.93-7.42,7-4.33.18-71.47.57-141.52.81"/><path class="cls-5" d="M60.43,182.61,46.88,205a4,4,0,0,0,3.37,6.08l285,1.16a4,4,0,0,0,3.49-5.92l-11.21-23.85a4,4,0,0,0-3.47-2.07l-260.24.3A4,4,0,0,0,60.43,182.61Z"/><rect class="cls-6" x="112.76" y="146.97" width="153.37" height="9.67" rx="4.7"/><rect class="cls-7" x="121.8" y="149.44" width="4.17" height="4.17" rx="0.33"/><rect class="cls-8" x="135.98" y="149.44" width="4.17" height="4.17" rx="0.33"/><rect class="cls-8" x="150.16" y="149.44" width="4.17" height="4.17" rx="0.33"/><rect class="cls-7" x="164.35" y="149.44" width="4.17" height="4.17" rx="0.33"/><rect class="cls-9" x="178.53" y="149.44" width="4.17" height="4.17" rx="0.33"/><rect class="cls-9" x="192.71" y="149.44" width="4.17" height="4.17" rx="0.33"/><rect class="cls-9" x="206.9" y="149.44" width="4.17" height="4.17" rx="0.33"/><rect class="cls-9" x="224.25" y="149.44" width="4.17" height="4.17" rx="0.33"/><rect class="cls-9" x="238.64" y="149.44" width="4.17" height="4.17" rx="0.33"/><path class="cls-10" d="M259.44,153.66H257.1a.05.05,0,0,1-.05,0l-.87-4.19s0-.05.05-.05h3.87a0,0,0,0,1,0,.05l-.66,4.19A.05.05,0,0,1,259.44,153.66Z"/><circle class="cls-11" cx="138.18" cy="151.37" r="2.78"/><circle class="cls-12" cx="152.35" cy="151.42" r="2.78"/><rect class="cls-13" x="163.79" y="149.45" width="5.44" height="4.08" rx="1.06"/><line class="cls-14" x1="163.43" y1="149.33" x2="166.86" y2="151.46"/><line class="cls-14" x1="169.75" y1="149.34" x2="166.32" y2="151.47"/><line class="cls-15" x1="175.93" y1="148.97" x2="185.26" y2="148.92"/><path class="cls-15" d="M175.93,150.22l9.33-.05a1.25,1.25,0,0,0,0-2.5l-9.33.05a1.25,1.25,0,0,0,0,2.5Z"/><path class="cls-16" d="M175,148.41a4.18,4.18,0,0,1,2.66-2.37,12.91,12.91,0,0,1,5.84,0,4.21,4.21,0,0,1,2.81,2.61"/><path class="cls-17" d="M178.43,152.77l1.18-1.55a.16.16,0,0,1,.28.09l0,3.74"/><path class="cls-17" d="M180.79,152.77l1.18-1.55a.15.15,0,0,1,.28.09v3.74"/><circle class="cls-18" cx="195.05" cy="151.24" r="2.78"/><circle class="cls-19" cx="209.46" cy="149.33" r="1.62"/><circle class="cls-20" cx="207.57" cy="152.51" r="1.62"/><circle class="cls-21" cx="211.17" cy="152.69" r="1.62"/><circle class="cls-12" cx="226.57" cy="151.43" r="2.78"/><circle class="cls-19" cx="239.14" cy="151.21" r="1.62"/><circle class="cls-21" cx="242.91" cy="151.3" r="1.62"/><circle class="cls-22" cx="256.84" cy="146.74" r="1.62"/><circle class="cls-23" cx="260.42" cy="146.92" r="1.62"/><circle class="cls-24" cx="255.06" cy="148.54" r="1.62"/><circle class="cls-25" cx="258.42" cy="148.46" r="1.62"/><circle class="cls-26" cx="261.46" cy="148.38" r="1.62"/><line class="cls-27" x1="252.85" y1="150.25" x2="263.62" y2="150.33"/><rect class="cls-28" x="72.05" y="30.21" width="62.43" height="24.78" rx="3.69"/><path class="cls-29" d="M263.77,33.2h4.42a1.13,1.13,0,1,0,0-2.25h-4.42a1.13,1.13,0,0,0,0,2.25Z"/><rect class="cls-30" x="260.88" y="32.58" width="18.84" height="13.07" rx="3.69"/><rect class="cls-31" x="260.83" y="34.09" width="18.84" height="13.07" rx="3.69"/><path class="cls-29" d="M293.07,33.2h4.42a1.13,1.13,0,0,0,1.12-1.12A1.15,1.15,0,0,0,297.49,31h-4.42a1.13,1.13,0,1,0,0,2.25Z"/><rect class="cls-30" x="290.17" y="32.58" width="18.84" height="13.07" rx="3.69"/><rect class="cls-31" x="290.12" y="34.09" width="18.84" height="13.07" rx="3.69"/><path class="cls-29" d="M293.07,57.67h4.42a1.13,1.13,0,0,0,1.12-1.12,1.15,1.15,0,0,0-1.12-1.13h-4.42a1.13,1.13,0,1,0,0,2.25Z"/><rect class="cls-30" x="290.17" y="57.05" width="18.84" height="13.07" rx="3.69"/><rect class="cls-31" x="290.12" y="58.56" width="18.84" height="13.07" rx="3.69"/><path class="cls-29" d="M293.07,84h4.42a1.12,1.12,0,0,0,1.12-1.12,1.15,1.15,0,0,0-1.12-1.13h-4.42a1.13,1.13,0,1,0,0,2.25Z"/><rect class="cls-30" x="290.17" y="83.33" width="18.84" height="13.07" rx="3.69"/><rect class="cls-31" x="290.12" y="84.84" width="18.84" height="13.07" rx="3.69"/><path class="cls-15" d="M219.2,82.19c-.47,0-.9.4-1,1-.33.77-.88,2.57-2.22,5.32a16.22,16.22,0,0,1-1.42,2.85,1.86,1.86,0,0,1-1.32.73.73.73,0,0,1-.79-.54,3.18,3.18,0,0,1,.23-1.67l3.68-11.15a10.05,10.05,0,0,0,.5-2.7,3.38,3.38,0,0,0-.56-2.17,2.48,2.48,0,0,0-2.19-.88,5.68,5.68,0,0,0-2.84.74,8.42,8.42,0,0,0-2.51,2.44,25.67,25.67,0,0,0-2.46,4.49q-.5,1.13-1,2.46l1.17-4.38a17.3,17.3,0,0,0,.41-2,5.86,5.86,0,0,0,0-1.87,2.3,2.3,0,0,0-.73-1.37,2.69,2.69,0,0,0-1.82-.51,5.57,5.57,0,0,0-3.45,1.2,12.21,12.21,0,0,0-3.07,4,43.58,43.58,0,0,0-2.11,4.65l1.13-4.52c.15-.58.28-1.18.38-1.79a5.61,5.61,0,0,0,0-1.73,2,2,0,0,0-.67-1.31,2.57,2.57,0,0,0-1.73-.5,4.81,4.81,0,0,0-1.7.34,4.67,4.67,0,0,0-1.67,1.18,6.76,6.76,0,0,0-1.35,2.4l-.84,2.51h0L188.68,81a8.78,8.78,0,0,1-1.43,2.86,1.86,1.86,0,0,1-1.31.72.72.72,0,0,1-.79-.53,3.21,3.21,0,0,1,.23-1.68l3.67-11.15a10.49,10.49,0,0,0,.51-2.7,3.4,3.4,0,0,0-.56-2.17,2.52,2.52,0,0,0-2.2-.87,5.54,5.54,0,0,0-2.83.74,8.26,8.26,0,0,0-2.51,2.43A25.39,25.39,0,0,0,179,73.14c-.33.75-.67,1.58-1,2.46l1.18-4.38a19.15,19.15,0,0,0,.41-2,5.79,5.79,0,0,0,0-1.86,2.27,2.27,0,0,0-.73-1.37,2.71,2.71,0,0,0-1.82-.51,5.56,5.56,0,0,0-3.45,1.19,12.33,12.33,0,0,0-3.08,4,46.87,46.87,0,0,0-2.1,4.65l1.13-4.52c.15-.58.27-1.18.37-1.79a5.61,5.61,0,0,0,0-1.73,2.06,2.06,0,0,0-.67-1.31,2.57,2.57,0,0,0-1.73-.49A4.56,4.56,0,0,0,164.14,67a7.08,7.08,0,0,0-1.35,2.4l-2.19,5.3c-.22-.41-.6-.75-1-.7-.53.08-.85.85-.74,1.63s.62,1.23,1.15,1.15.73-.42.78-1a33.71,33.71,0,0,0,2.3-5.16c.27-.69.38-1,.62-1.61a4.12,4.12,0,0,1,.69-1.15,2.45,2.45,0,0,1,1.43-.81.58.58,0,0,1,.64.4,2.44,2.44,0,0,1,.05.91,3.16,3.16,0,0,1-.2.89l-4.5,16.37h3.94l.76-3a60.22,60.22,0,0,1,1.92-5.78,45.09,45.09,0,0,1,2.34-5.14,16,16,0,0,1,2.37-3.42A3.13,3.13,0,0,1,175.32,67q.65,0,.81.42a2.1,2.1,0,0,1,.08,1.06,11.54,11.54,0,0,1-.32,1.41l-4.66,15.72h4.06l.46-1.73V84q1.2-3.89,2.44-7a50,50,0,0,1,2.45-5.37A16.14,16.14,0,0,1,183,68.18,3.1,3.1,0,0,1,185.12,67c.47,0,.71.3.71.89a6.76,6.76,0,0,1-.34,2L182,80.58a14.94,14.94,0,0,0-.58,2.57,2.63,2.63,0,0,0,.36,1.85,2.33,2.33,0,0,0,.94.84,3.61,3.61,0,0,0,1.61.3,5.1,5.1,0,0,0,1.71-.32,4.52,4.52,0,0,0,1.67-1.16A6.55,6.55,0,0,0,189,82.22l.83-2.47h0l.56-1.6a10,10,0,0,1,1.32-2.76,1.79,1.79,0,0,1,1.42-.82.58.58,0,0,1,.64.4,2.67,2.67,0,0,1,.06.91,3.51,3.51,0,0,1-.21.9l-4.5,16.36h3.94l.76-3q.87-3.09,1.92-5.78a44.89,44.89,0,0,1,2.34-5.13,16.06,16.06,0,0,1,2.37-3.43,3.19,3.19,0,0,1,2.14-1.22c.42,0,.69.14.8.42a2.14,2.14,0,0,1,.08,1.07,11.54,11.54,0,0,1-.32,1.41l-4.65,15.71h4l.46-1.72v.09c.8-2.59,1.61-4.92,2.44-7a49.71,49.71,0,0,1,2.45-5.36,16.63,16.63,0,0,1,2.35-3.43,3.14,3.14,0,0,1,2.14-1.18c.47,0,.71.3.71.9a6.81,6.81,0,0,1-.34,2l-3.52,10.69a14.86,14.86,0,0,0-.59,2.57,2.75,2.75,0,0,0,.36,1.85,2.37,2.37,0,0,0,.94.83,3.5,3.5,0,0,0,1.61.31,4.88,4.88,0,0,0,1.71-.33,4.33,4.33,0,0,0,1.67-1.16,13.1,13.1,0,0,0,1.31-2.43l2.19-5.07a.73.73,0,0,0,.5.28c.52.06,1-.52,1.09-1.29S219.72,82.25,219.2,82.19Z"/><path class="cls-32" d="M65.22,182l-1.63,3.58a.88.88,0,0,0,.8,1.24l7.34,0a.89.89,0,0,0,.85-1.12l-1-3.59a.89.89,0,0,0-.85-.65H66A.87.87,0,0,0,65.22,182Z"/><path class="cls-32" d="M59.48,193l-1.62,3.58a.88.88,0,0,0,.8,1.24l7.34,0a.88.88,0,0,0,.85-1.11l-1-3.6a.89.89,0,0,0-.85-.65H60.29A.9.9,0,0,0,59.48,193Z"/><path class="cls-32" d="M54.82,206l-1.62,3.58a.88.88,0,0,0,.79,1.24l7.35,0a.89.89,0,0,0,.85-1.12l-1-3.6a.88.88,0,0,0-.85-.64l-4.71,0A.89.89,0,0,0,54.82,206Z"/><path class="cls-32" d="M81.89,182l-1.62,3.58a.87.87,0,0,0,.79,1.24l7.35,0a.89.89,0,0,0,.85-1.12l-1-3.59a.89.89,0,0,0-.85-.65H82.7A.9.9,0,0,0,81.89,182Z"/><path class="cls-32" d="M75.73,193,74.1,196.6a.88.88,0,0,0,.8,1.24l7.34,0a.88.88,0,0,0,.85-1.11l-1-3.6a.88.88,0,0,0-.84-.65H76.53A.88.88,0,0,0,75.73,193Z"/><path class="cls-32" d="M71.76,206l-1.63,3.58a.88.88,0,0,0,.8,1.24l7.34,0a.88.88,0,0,0,.85-1.12l-1-3.6a.87.87,0,0,0-.84-.64l-4.72,0A.88.88,0,0,0,71.76,206Z"/><path class="cls-32" d="M98.57,182,97,185.6a.87.87,0,0,0,.79,1.24l7.34,0a.89.89,0,0,0,.86-1.12l-1-3.59a.89.89,0,0,0-.85-.65H99.38A.9.9,0,0,0,98.57,182Z"/><path class="cls-32" d="M92,193l-1.62,3.58a.87.87,0,0,0,.79,1.24l7.34,0a.87.87,0,0,0,.85-1.11l-1-3.6a.88.88,0,0,0-.84-.65H92.77A.88.88,0,0,0,92,193Z"/><path class="cls-32" d="M88.69,206l-1.62,3.58a.87.87,0,0,0,.79,1.24l7.35,0a.89.89,0,0,0,.85-1.12l-1-3.6a.88.88,0,0,0-.85-.64l-4.71,0A.89.89,0,0,0,88.69,206Z"/><path class="cls-32" d="M115.25,182l-1.63,3.58a.88.88,0,0,0,.8,1.24l7.34,0a.88.88,0,0,0,.85-1.12l-1-3.59a.88.88,0,0,0-.84-.65h-4.72A.88.88,0,0,0,115.25,182Z"/><path class="cls-32" d="M108.21,193l-1.62,3.58a.88.88,0,0,0,.8,1.24l7.34,0a.88.88,0,0,0,.85-1.11l-1-3.6a.89.89,0,0,0-.85-.65H109A.9.9,0,0,0,108.21,193Z"/><path class="cls-32" d="M105.63,206,104,209.58a.88.88,0,0,0,.8,1.24l7.34,0a.88.88,0,0,0,.85-1.12l-1-3.6a.87.87,0,0,0-.84-.64l-4.72,0A.88.88,0,0,0,105.63,206Z"/><path class="cls-32" d="M131.93,182l-1.63,3.58a.88.88,0,0,0,.8,1.24l7.34,0a.88.88,0,0,0,.85-1.12l-1-3.59a.88.88,0,0,0-.84-.65h-4.72A.88.88,0,0,0,131.93,182Z"/><path class="cls-32" d="M124.46,193l-1.63,3.58a.88.88,0,0,0,.8,1.24l7.34,0a.88.88,0,0,0,.85-1.11l-1-3.6a.88.88,0,0,0-.84-.65h-4.72A.88.88,0,0,0,124.46,193Z"/><path class="cls-32" d="M122.56,206l-1.62,3.58a.87.87,0,0,0,.79,1.24l7.34,0a.89.89,0,0,0,.86-1.12l-1-3.6a.88.88,0,0,0-.85-.64l-4.71,0A.89.89,0,0,0,122.56,206Z"/><path class="cls-32" d="M148.61,182,147,185.6a.88.88,0,0,0,.8,1.24l7.34,0a.88.88,0,0,0,.85-1.12l-1-3.59a.89.89,0,0,0-.84-.65h-4.72A.87.87,0,0,0,148.61,182Z"/><path class="cls-32" d="M140.7,193l-1.62,3.58a.87.87,0,0,0,.79,1.24l7.34,0a.87.87,0,0,0,.85-1.11l-1-3.6a.88.88,0,0,0-.84-.65H141.5A.88.88,0,0,0,140.7,193Z"/><path class="cls-32" d="M139.5,206l-1.63,3.58a.88.88,0,0,0,.8,1.24l7.34,0a.88.88,0,0,0,.85-1.12l-1-3.6a.87.87,0,0,0-.84-.64l-4.72,0A.88.88,0,0,0,139.5,206Z"/><path class="cls-32" d="M165.28,182l-1.62,3.58a.88.88,0,0,0,.8,1.24l7.34,0a.89.89,0,0,0,.85-1.12l-1-3.59a.89.89,0,0,0-.85-.65h-4.71A.9.9,0,0,0,165.28,182Z"/><path class="cls-32" d="M156.94,193l-1.62,3.58a.88.88,0,0,0,.8,1.24l7.34,0a.88.88,0,0,0,.85-1.11l-1-3.6a.89.89,0,0,0-.85-.65h-4.71A.9.9,0,0,0,156.94,193Z"/><path class="cls-32" d="M156.43,206l-1.62,3.58a.87.87,0,0,0,.79,1.24l7.34,0a.89.89,0,0,0,.86-1.12l-1-3.6a.88.88,0,0,0-.85-.64l-4.71,0A.89.89,0,0,0,156.43,206Z"/><path class="cls-32" d="M182,182l-1.62,3.58a.87.87,0,0,0,.79,1.24l7.34,0a.89.89,0,0,0,.86-1.12l-1-3.59a.89.89,0,0,0-.85-.65h-4.71A.9.9,0,0,0,182,182Z"/><path class="cls-32" d="M173.19,193l-1.63,3.58a.88.88,0,0,0,.8,1.24l7.34,0a.88.88,0,0,0,.85-1.11l-1-3.6a.88.88,0,0,0-.84-.65H174A.88.88,0,0,0,173.19,193Z"/><path class="cls-32" d="M189.43,193l-1.62,3.58a.87.87,0,0,0,.79,1.24l7.34,0a.87.87,0,0,0,.85-1.11l-1-3.6a.88.88,0,0,0-.84-.65h-4.72A.88.88,0,0,0,189.43,193Z"/><path class="cls-32" d="M173.37,206l-1.63,3.58a.88.88,0,0,0,.8,1.24l7.34,0a.88.88,0,0,0,.85-1.12l-1-3.6a.87.87,0,0,0-.84-.64l-4.72,0A.86.86,0,0,0,173.37,206Z"/><path class="cls-32" d="M190.3,206l-1.62,3.58a.87.87,0,0,0,.79,1.24l7.34,0a.88.88,0,0,0,.85-1.12l-1-3.6a.89.89,0,0,0-.85-.64l-4.71,0A.89.89,0,0,0,190.3,206Z"/><path class="cls-32" d="M321.08,182l1.62,3.58a.87.87,0,0,1-.79,1.24l-7.34,0a.88.88,0,0,1-.85-1.12l1-3.59a.9.9,0,0,1,.85-.65h4.71A.89.89,0,0,1,321.08,182Z"/><path class="cls-32" d="M325.07,193l1.62,3.58a.87.87,0,0,1-.79,1.24l-7.34,0a.87.87,0,0,1-.85-1.11l1-3.6a.9.9,0,0,1,.85-.65h4.71A.9.9,0,0,1,325.07,193Z"/><path class="cls-32" d="M331.47,206l1.62,3.58a.87.87,0,0,1-.79,1.24l-7.34,0a.88.88,0,0,1-.85-1.12l1-3.6a.87.87,0,0,1,.84-.64l4.72,0A.88.88,0,0,1,331.47,206Z"/><path class="cls-32" d="M304.4,182,306,185.6a.88.88,0,0,1-.8,1.24l-7.34,0a.88.88,0,0,1-.85-1.12l1-3.59a.88.88,0,0,1,.84-.65h4.72A.88.88,0,0,1,304.4,182Z"/><path class="cls-32" d="M308.82,193l1.63,3.58a.88.88,0,0,1-.8,1.24l-7.34,0a.88.88,0,0,1-.85-1.11l1-3.6a.89.89,0,0,1,.85-.65H308A.87.87,0,0,1,308.82,193Z"/><path class="cls-32" d="M314.53,206l1.63,3.58a.88.88,0,0,1-.8,1.24l-7.34,0a.89.89,0,0,1-.85-1.12l1-3.6a.88.88,0,0,1,.85-.64l4.71,0A.86.86,0,0,1,314.53,206Z"/><path class="cls-32" d="M287.72,182l1.63,3.58a.88.88,0,0,1-.8,1.24l-7.34,0a.88.88,0,0,1-.85-1.12l1-3.59a.88.88,0,0,1,.84-.65h4.72A.88.88,0,0,1,287.72,182Z"/><path class="cls-32" d="M292.58,193l1.63,3.58a.88.88,0,0,1-.8,1.24l-7.34,0a.88.88,0,0,1-.85-1.11l1-3.6a.88.88,0,0,1,.84-.65h4.72A.88.88,0,0,1,292.58,193Z"/><path class="cls-32" d="M297.6,206l1.63,3.58a.88.88,0,0,1-.8,1.24l-7.34,0a.88.88,0,0,1-.85-1.12l1-3.6a.87.87,0,0,1,.84-.64l4.72,0A.88.88,0,0,1,297.6,206Z"/><path class="cls-32" d="M271,182l1.63,3.58a.88.88,0,0,1-.8,1.24l-7.34,0a.88.88,0,0,1-.85-1.12l1-3.59a.89.89,0,0,1,.84-.65h4.72A.87.87,0,0,1,271,182Z"/><path class="cls-32" d="M276.34,193,278,196.6a.87.87,0,0,1-.79,1.24l-7.34,0a.87.87,0,0,1-.85-1.11l1-3.6a.9.9,0,0,1,.85-.65h4.71A.9.9,0,0,1,276.34,193Z"/><path class="cls-32" d="M280.67,206l1.62,3.58a.88.88,0,0,1-.79,1.24l-7.35,0a.89.89,0,0,1-.85-1.12l1-3.6a.88.88,0,0,1,.85-.64l4.71,0A.89.89,0,0,1,280.67,206Z"/><path class="cls-32" d="M254.37,182,256,185.6a.88.88,0,0,1-.79,1.24l-7.35,0a.89.89,0,0,1-.85-1.12l1-3.59a.89.89,0,0,1,.85-.65h4.71A.9.9,0,0,1,254.37,182Z"/><path class="cls-32" d="M260.09,193l1.63,3.58a.88.88,0,0,1-.8,1.24l-7.34,0a.88.88,0,0,1-.85-1.11l1-3.6a.89.89,0,0,1,.85-.65h4.71A.87.87,0,0,1,260.09,193Z"/><path class="cls-32" d="M263.73,206l1.63,3.58a.88.88,0,0,1-.8,1.24l-7.34,0a.88.88,0,0,1-.85-1.12l1-3.6a.87.87,0,0,1,.84-.64l4.72,0A.88.88,0,0,1,263.73,206Z"/><path class="cls-32" d="M237.69,182l1.62,3.58a.87.87,0,0,1-.79,1.24l-7.34,0a.89.89,0,0,1-.86-1.12l1-3.59a.89.89,0,0,1,.85-.65h4.71A.9.9,0,0,1,237.69,182Z"/><path class="cls-32" d="M243.85,193l1.63,3.58a.88.88,0,0,1-.8,1.24l-7.34,0a.88.88,0,0,1-.85-1.11l1-3.6a.88.88,0,0,1,.84-.65h4.72A.88.88,0,0,1,243.85,193Z"/><path class="cls-32" d="M246.8,206l1.62,3.58a.87.87,0,0,1-.79,1.24l-7.35,0a.89.89,0,0,1-.85-1.12l1-3.6a.88.88,0,0,1,.85-.64l4.71,0A.89.89,0,0,1,246.8,206Z"/><path class="cls-32" d="M221,182l1.62,3.58a.87.87,0,0,1-.79,1.24l-7.34,0a.88.88,0,0,1-.85-1.12l1-3.59a.88.88,0,0,1,.84-.65h4.72A.88.88,0,0,1,221,182Z"/><path class="cls-32" d="M227.61,193l1.62,3.58a.87.87,0,0,1-.79,1.24l-7.34,0a.87.87,0,0,1-.85-1.11l1-3.6a.9.9,0,0,1,.85-.65h4.71A.89.89,0,0,1,227.61,193Z"/><path class="cls-32" d="M229.86,206l1.63,3.58a.88.88,0,0,1-.8,1.24l-7.34,0a.88.88,0,0,1-.85-1.12l1-3.6a.87.87,0,0,1,.84-.64l4.72,0A.88.88,0,0,1,229.86,206Z"/><path class="cls-32" d="M204.33,182,206,185.6a.88.88,0,0,1-.8,1.24l-7.34,0a.88.88,0,0,1-.85-1.12l1-3.59a.88.88,0,0,1,.84-.65h4.72A.88.88,0,0,1,204.33,182Z"/><path class="cls-32" d="M211.36,193,213,196.6a.88.88,0,0,1-.8,1.24l-7.34,0a.88.88,0,0,1-.85-1.11l1-3.6a.89.89,0,0,1,.85-.65h4.71A.87.87,0,0,1,211.36,193Z"/><path class="cls-32" d="M212.93,206l1.62,3.58a.87.87,0,0,1-.79,1.24l-7.34,0a.89.89,0,0,1-.86-1.12l1-3.6a.88.88,0,0,1,.85-.64l4.71,0A.89.89,0,0,1,212.93,206Z"/></svg>