<svg id="Capa_1" data-name="Capa 1" xmlns="http://www.w3.org/2000/svg" viewBox="0 0 378.9 258.51"><defs><style>.cls-1{fill:#faf4b1;}.cls-1,.cls-2{stroke:#78a2d2;stroke-miterlimit:10;stroke-width:8px;}.cls-2{fill:#78a2d2;}</style></defs><path class="cls-1" d="M128.6,60.58,139,38a12.46,12.46,0,0,1,11.34-7.24l86.43.26a12.47,12.47,0,0,1,11.58,8l9.55,22.51"/><path class="cls-1" d="M128.6,60.58H51.32A10.89,10.89,0,0,0,40.43,71.47V216.31a10.9,10.9,0,0,0,10.87,10.9l276.25.58a10.9,10.9,0,0,0,10.92-10.94L337.92,72a10.89,10.89,0,0,0-10.86-10.85Z"/><path class="cls-2" d="M62.34,60.33l.1-8.07a4,4,0,0,1,4-4l29.38-.07a4,4,0,0,1,4,4l.06,8.57"/><line class="cls-1" x1="40.89" y1="90.53" x2="133.96" y2="89.9"/><line class="cls-1" x1="40.96" y1="201.37" x2="138.91" y2="201.37"/><line class="cls-1" x1="241.63" y1="201.37" x2="338.23" y2="201.37"/><line class="cls-1" x1="247.87" y1="91.05" x2="279.19" y2="91.1"/><line class="cls-1" x1="322.18" y1="90.77" x2="337.9" y2="90.79"/><path class="cls-2" d="M321.85,95.66V84.92a5.29,5.29,0,0,0-5.26-5.29L285,79.44a5.28,5.28,0,0,0-5.31,5.28V95.65a5.28,5.28,0,0,0,5.28,5.28h31.59A5.29,5.29,0,0,0,321.85,95.66Z"/><circle class="cls-1" cx="190.66" cy="143.08" r="77.68"/><circle class="cls-2" cx="189.47" cy="143.64" r="57.5"/></svg>