<?xml version="1.0" encoding="UTF-8"?>
<svg id="Capa_1" xmlns="http://www.w3.org/2000/svg" version="1.1" viewBox="0 0 378.9 258.51">
  <!-- Generator: Adobe Illustrator 30.4.0, SVG Export Plug-In . SVG Version: 2.1.4 Build 226)  -->
  <defs>
    <style>
      .st0 {
        fill: #accae8;
        stroke: #accae8;
      }

      .st0, .st1, .st2, .st3, .st4, .st5, .st6, .st7, .st8 {
        stroke-miterlimit: 10;
      }

      .st0, .st1, .st5 {
        stroke-width: 7px;
      }

      .st1 {
        fill: #efceb9;
        stroke: #efceb9;
      }

      .st2 {
        fill: #78a2d2;
      }

      .st2, .st3 {
        stroke: #78a2d2;
      }

      .st3, .st6 {
        fill: none;
      }

      .st3, .st6, .st7 {
        stroke-width: 8px;
      }

      .st4 {
        fill: #fac49a;
      }

      .st4, .st6 {
        stroke: #fac49a;
      }

      .st5 {
        fill: #fffde6;
        stroke: #fffde6;
      }

      .st7, .st8 {
        fill: #faf4b1;
        stroke: #faf4b1;
      }
    </style>
  </defs>
  <path class="st3" d="M68.51,12.66l-3.51-6.39c-.65-1.11-1.84-1.78-3.12-1.75H12.67c-1.26-.02-2.44.62-3.1,1.7l-3.76,6.64c-.51,1.04-.74,2.19-.69,3.34l-.12,113.47c0,1.71,2.12,3.48,4,3.48l182.87.2c1.82.1,3.37-1.29,3.48-3.11V17.52c-.11-1.81-1.66-3.19-3.47-3.1h-120.27c-1.28.02-2.46-.65-3.1-1.76Z"/>
  <rect class="st2" x="6.47" y="15.29" width="186.62" height="11"/>
  <rect class="st0" x="8.32" y="24.31" width="183.74" height="107.39" rx="4.46" ry="4.46"/>
  <polygon class="st2" points="4.86 15.29 67.97 15.05 61.96 4.72 10.25 5.37 4.86 15.29"/>
  <path class="st6" d="M156.52,73l-3.52-6.43c-.64-1.11-1.84-1.77-3.12-1.74h-49.2c-1.26-.03-2.45.62-3.1,1.7l-3.76,6.63c-.51,1.04-.75,2.19-.7,3.34l-.12,113.5c0,1.7,2.13,3.47,4,3.48l182.88.19c1.81.1,3.37-1.29,3.48-3.1v-112.75c-.11-1.81-1.66-3.19-3.47-3.1h-120.25c-1.27.03-2.47-.62-3.12-1.72Z"/>
  <rect class="st4" x="94.48" y="75.59" width="186.62" height="11"/>
  <rect class="st1" x="96.33" y="84.61" width="183.74" height="107.39" rx="4.46" ry="4.46"/>
  <polygon class="st4" points="92.87 75.59 155.98 75.35 149.97 65.02 98.25 65.68 92.87 75.59"/>
  <path class="st7" d="M247.05,132.5l-3.48-6.39c-.64-1.11-1.84-1.78-3.12-1.75h-49.24c-1.26-.02-2.44.62-3.1,1.7l-3.76,6.64c-.51,1.04-.75,2.19-.7,3.34l-.13,113.47c0,1.71,2.12,3.48,4,3.48l182.88.19c1.81.1,3.37-1.29,3.47-3.1,0,0,0,0,0,0v-112.72c-.1-1.82-1.65-3.21-3.47-3.11h-120.23c-1.28.03-2.47-.64-3.12-1.75Z"/>
  <rect class="st8" x="185.01" y="135.12" width="186.62" height="11"/>
  <rect class="st5" x="186.86" y="144.15" width="183.74" height="107.39" rx="4.46" ry="4.46"/>
  <polygon class="st8" points="183.4 135.12 246.51 134.88 240.49 124.56 188.78 125.21 183.4 135.12"/>
</svg>