<svg id="Capa_1" data-name="Capa 1" xmlns="http://www.w3.org/2000/svg" viewBox="0 0 304.42 344.08"><defs><style>.cls-1{fill:none;stroke:#66103e;stroke-miterlimit:10;stroke-width:10px;}.cls-2{fill:#faf4b1;}.cls-3{fill:#66103e;}</style></defs><path class="cls-1" d="M142.53,17.4l-2.85,256.49c-.08,7,5.09,12.71,11.49,12.71H285.86c6.3,0,11.43-5.55,11.48-12.44L299.42,17.8c.06-7-5.09-12.66-11.47-12.66L154,5C147.73,5,142.61,10.52,142.53,17.4Z"/><path class="cls-2" d="M280.31,284.25H157.73a13.71,13.71,0,0,1-9.75-4.18,16.86,16.86,0,0,1-4.7-12l2.6-244.68c.09-8.71,6.57-15.79,14.45-15.79h0l121.88.13A13.74,13.74,0,0,1,292,11.91a16.86,16.86,0,0,1,4.71,12l-1.9,244.55C294.7,277.14,288.21,284.25,280.31,284.25ZM153.88,23.49l-2.6,244.68a8.82,8.82,0,0,0,2.39,6.27,5.68,5.68,0,0,0,4.06,1.81H280.31c3.52,0,6.42-3.55,6.45-7.91l1.9-244.54a8.77,8.77,0,0,0-2.39-6.26,5.76,5.76,0,0,0-4.06-1.8l-121.88-.13h0c-3.51,0-6.41,3.53-6.45,7.88Z"/><path class="cls-3" d="M187,37.91h65.92c6.43,0,6.45-10,0-10H187c-6.43,0-6.44,10,0,10Z"/><path d="M25,269.21c-.28.73-.65,1.79-1.12,3.17a48.71,48.71,0,0,0-1.36,5.4h-.84a11.52,11.52,0,0,0,.19-1.22q.06-.63.06-1.17a6.49,6.49,0,0,0-.61-2.84,4.73,4.73,0,0,0-1.91-2.06,6.74,6.74,0,0,0-3.44-.77,6.64,6.64,0,0,0-4.2,1.3,4.78,4.78,0,0,0-1.68,4,6,6,0,0,0,.77,3,13.22,13.22,0,0,0,2,2.61c.8.82,1.65,1.65,2.56,2.47s1.76,1.68,2.56,2.54a13.51,13.51,0,0,1,2,2.76,6.74,6.74,0,0,1,.77,3.21,7,7,0,0,1-1,3.74,8.15,8.15,0,0,1-2.52,2.54,11.82,11.82,0,0,1-3.43,1.47,14.82,14.82,0,0,1-3.71.48,10.78,10.78,0,0,1-2.82-.31,7.57,7.57,0,0,1-1.89-.78q-.75-.47-1.26-.84a2.51,2.51,0,0,0-.86-.5,2.06,2.06,0,0,0-.65-.13,1,1,0,0,0-.9.57,10.93,10.93,0,0,0-.82,1.7H0c.25-.62.52-1.33.8-2.14s.59-1.86.92-3.13.72-2.88,1.14-4.81H3.7c-.12.58-.21,1.15-.3,1.7a8.62,8.62,0,0,0-.08,1.7,6.48,6.48,0,0,0,1.76,4.49c1.09,1.1,2.79,1.64,5.08,1.64a7.38,7.38,0,0,0,4.46-1.26,4.63,4.63,0,0,0,1.72-4,6.88,6.88,0,0,0-.7-3.15,11.11,11.11,0,0,0-1.8-2.58c-.74-.8-1.53-1.58-2.35-2.33s-1.61-1.55-2.36-2.38a10.71,10.71,0,0,1-1.8-2.75,8.19,8.19,0,0,1-.69-3.44A7.43,7.43,0,0,1,9.55,271a9.48,9.48,0,0,1,3-1.56,10.92,10.92,0,0,1,3.36-.52,9.61,9.61,0,0,1,3,.42,8.3,8.3,0,0,1,2.44,1.34,6.6,6.6,0,0,0,.84.57,1.13,1.13,0,0,0,.54.19c.39,0,.86-.74,1.39-2.23Z"/><path d="M24.9,293.24a17.93,17.93,0,0,1,.51-4,22,22,0,0,1,1.51-4.32A18.45,18.45,0,0,1,29.38,281a11.58,11.58,0,0,1,3.38-2.83A8.61,8.61,0,0,1,37,277.07a5.59,5.59,0,0,1,4.18,1.61,6.91,6.91,0,0,1,1.58,5,17.78,17.78,0,0,1-.51,4A21.24,21.24,0,0,1,40.78,292a18.13,18.13,0,0,1-2.46,3.9,11.46,11.46,0,0,1-3.38,2.84,8.71,8.71,0,0,1-4.28,1.07,5.54,5.54,0,0,1-4.18-1.64A6.89,6.89,0,0,1,24.9,293.24Zm11.89-15.33A3.86,3.86,0,0,0,34.21,279a10.68,10.68,0,0,0-2.27,2.9A24.11,24.11,0,0,0,30.13,286a31.39,31.39,0,0,0-1.19,4.7,27.55,27.55,0,0,0-.42,4.67,4.92,4.92,0,0,0,.61,2.77,2,2,0,0,0,1.78.88,3.91,3.91,0,0,0,2.58-1.07,10.92,10.92,0,0,0,2.29-2.9,22.94,22.94,0,0,0,1.81-4.09,34.6,34.6,0,0,0,1.18-4.69,28.35,28.35,0,0,0,.42-4.68,5.08,5.08,0,0,0-.59-2.79A2,2,0,0,0,36.79,277.91Z"/><path d="M58.08,277.91a5,5,0,0,0-3.17,1.3A12.79,12.79,0,0,0,52,282.78,21.4,21.4,0,0,0,50,288a23.29,23.29,0,0,0-.78,6.08,4.67,4.67,0,0,0,.82,3.09,2.68,2.68,0,0,0,2.12.95,6.18,6.18,0,0,0,3.11-.93,10.37,10.37,0,0,0,3.19-3.27l.84.33a12.77,12.77,0,0,1-2.1,2.69A11.19,11.19,0,0,1,54.24,299a7.43,7.43,0,0,1-3.42.82,5.37,5.37,0,0,1-4-1.55,6.38,6.38,0,0,1-1.52-4.62,17.07,17.07,0,0,1,.57-4.18A23.48,23.48,0,0,1,47.48,285a18.11,18.11,0,0,1,2.62-4,13.22,13.22,0,0,1,3.53-2.88A8.79,8.79,0,0,1,58,277.07a5.41,5.41,0,0,1,3.19.94,3,3,0,0,1,1.34,2.63,3.69,3.69,0,0,1-.35,1.57,3.24,3.24,0,0,1-1,1.28,2.57,2.57,0,0,1-1.6.51,1.6,1.6,0,0,1-1.3-.49,1.68,1.68,0,0,1-.42-1.15,2.67,2.67,0,0,1,1-2.08,4.35,4.35,0,0,1,2.18-1.07,3.14,3.14,0,0,0-1.09-.95A3.89,3.89,0,0,0,58.08,277.91Z"/><path d="M69.3,281.23c.59-1.74.39-2.61-.59-2.61A2.13,2.13,0,0,0,67,279.67a14.78,14.78,0,0,0-1.6,3.23l-.59,1.56H64l1.09-3.07a7.61,7.61,0,0,1,1.51-2.69,5,5,0,0,1,1.87-1.28,5.61,5.61,0,0,1,1.83-.35,3,3,0,0,1,2,.54A2.29,2.29,0,0,1,73,279,5.69,5.69,0,0,1,73,281a16.33,16.33,0,0,1-.54,2l-4.5,12.72a3.77,3.77,0,0,0-.27,1.91.84.84,0,0,0,.94.7,2.1,2.1,0,0,0,1.6-.93A13.05,13.05,0,0,0,71.86,294l.59-1.55h.8l-1.1,3.06a7.77,7.77,0,0,1-1.42,2.59A4.92,4.92,0,0,1,67,299.83a2.44,2.44,0,0,1-2.9-3A13.41,13.41,0,0,1,64.8,294ZM70.6,270a3.31,3.31,0,0,1,1.11-1.89,2.92,2.92,0,0,1,2-.8,2,2,0,0,1,1.7.8,2.29,2.29,0,0,1,.4,1.89,3.32,3.32,0,0,1-1.12,1.89,2.94,2.94,0,0,1-2,.8,2,2,0,0,1-1.66-.8A2.25,2.25,0,0,1,70.6,270Z"/><path d="M80.89,298.49a3.62,3.62,0,0,0,2.31-1.28,18.6,18.6,0,0,0,2.65-3.47,34.21,34.21,0,0,0,2.47-5A35.61,35.61,0,0,0,90.13,283l-.71,4.54a43.34,43.34,0,0,1-3.2,7.16,12.78,12.78,0,0,1-3.23,3.9,5.58,5.58,0,0,1-3.32,1.2,3.37,3.37,0,0,1-3-1.43,6.26,6.26,0,0,1-1-3.65,16.1,16.1,0,0,1,.68-4.39,26.2,26.2,0,0,1,1.86-4.73A24.9,24.9,0,0,1,81,281.35a14.24,14.24,0,0,1,3.38-3.11,6.78,6.78,0,0,1,3.71-1.17,2.44,2.44,0,0,1,2.25,1.45,6.32,6.32,0,0,1,.32,4.05l-.47.25a6.86,6.86,0,0,0-.29-3.59A2,2,0,0,0,88,277.86a3.52,3.52,0,0,0-2.29,1.08,12.71,12.71,0,0,0-2.31,2.89,27.46,27.46,0,0,0-2,4.1,29.8,29.8,0,0,0-1.43,4.68,21.85,21.85,0,0,0-.52,4.64,5.52,5.52,0,0,0,.4,2.52A1.19,1.19,0,0,0,80.89,298.49Zm10.58-20.84c.68,0,1.35-.08,2-.16a9.86,9.86,0,0,0,1.85-.42l-5.25,18.56c-.06.25-.14.58-.23,1a2.09,2.09,0,0,0,0,1.11c.09.34.38.51.86.51a2.23,2.23,0,0,0,1.64-.93A10.39,10.39,0,0,0,94,294l.51-1.55h.79l-1,3.06a8.16,8.16,0,0,1-1.4,2.63,5.09,5.09,0,0,1-1.7,1.34,4.14,4.14,0,0,1-1.73.4,2.49,2.49,0,0,1-2.31-1.09,3.19,3.19,0,0,1-.29-2.25c.17-.85.36-1.71.59-2.58Z"/><path d="M101.6,295.67a4.37,4.37,0,0,0-.21,1.91.81.81,0,0,0,.92.7,2,2,0,0,0,1.57-.95,12.58,12.58,0,0,0,1.58-3.34l.54-1.55h.8l-1,3.06a8,8,0,0,1-1.32,2.55,4.56,4.56,0,0,1-3.72,1.78,3.21,3.21,0,0,1-2-.52,2.19,2.19,0,0,1-.8-1.41,5.37,5.37,0,0,1,0-1.91q.19-1,.48-2l6.85-22.72a2.4,2.4,0,0,0-.08-2.1c-.34-.45-1.2-.67-2.57-.67l.3-.89a17.48,17.48,0,0,0,4.07-.48,16.48,16.48,0,0,0,3.4-1.24Z"/><path d="M45.47,321.65v11.21h-3.7V311.11h3.66v3.65h.12a7.23,7.23,0,0,1,2.61-3,7.49,7.49,0,0,1,4.24-1.14,8.21,8.21,0,0,1,5,1.39,7.55,7.55,0,0,1,2.66,3.7,8.21,8.21,0,0,1,3.3-4,8.71,8.71,0,0,1,4.31-1.12,8.35,8.35,0,0,1,4.74,1.22,7.25,7.25,0,0,1,2.67,3.3,12.3,12.3,0,0,1,.86,4.72v13h-3.7V321.35a10.08,10.08,0,0,0-.56-3.48,5,5,0,0,0-1.79-2.38,5.58,5.58,0,0,0-3.27-.86,5.23,5.23,0,0,0-4.41,1.89,8.09,8.09,0,0,0-1.47,5.13v11.21H57V321.35a9.84,9.84,0,0,0-.57-3.48,5,5,0,0,0-1.8-2.38,5.64,5.64,0,0,0-3.26-.86,5.28,5.28,0,0,0-4.45,1.89A8.15,8.15,0,0,0,45.47,321.65Z"/><path d="M99.48,332.15a12.59,12.59,0,0,1-3.09.9,20.93,20.93,0,0,1-3.38.27,13.77,13.77,0,0,1-6.4-1.38,9.86,9.86,0,0,1-4.12-4A12.35,12.35,0,0,1,81,321.86a12.77,12.77,0,0,1,1.26-5.74,9.84,9.84,0,0,1,3.57-4,10,10,0,0,1,5.46-1.47,9.53,9.53,0,0,1,4.33.93,8.35,8.35,0,0,1,3,2.48,10.77,10.77,0,0,1,1.75,3.4,12.94,12.94,0,0,1,.56,3.74c0,.33,0,.67,0,1s0,.66-.08.91H85a8.32,8.32,0,0,0,1.31,3.67,7.06,7.06,0,0,0,2.85,2.46,9.78,9.78,0,0,0,4.33.88,15.94,15.94,0,0,0,3-.27,13.41,13.41,0,0,0,2.63-.78ZM91.29,314.3a6.17,6.17,0,0,0-4.22,1.57A7,7,0,0,0,85,320.56H97.47a7.47,7.47,0,0,0-.91-3.15,6.3,6.3,0,0,0-2.1-2.25A5.71,5.71,0,0,0,91.29,314.3Z"/><path d="M126.74,300.94v31.92h-3.66v-4.11H123a8.81,8.81,0,0,1-8,4.57,10.24,10.24,0,0,1-5.42-1.42,10.11,10.11,0,0,1-3.7-4,12.75,12.75,0,0,1-1.34-6,12.08,12.08,0,0,1,1.39-5.9,10.11,10.11,0,0,1,9.11-5.4,9.42,9.42,0,0,1,4.77,1.18,7.84,7.84,0,0,1,3.13,3.32H123v-14.2Zm-11.17,13.65a7,7,0,0,0-6.24,3.61,7.86,7.86,0,0,0-1,3.91,8.57,8.57,0,0,0,.93,4.07,6.62,6.62,0,0,0,2.56,2.73,7.07,7.07,0,0,0,3.7,1,7.4,7.4,0,0,0,3.82-1,6.81,6.81,0,0,0,2.62-2.75,8.39,8.39,0,0,0,.95-4,7.94,7.94,0,0,0-.95-3.95,6.73,6.73,0,0,0-2.62-2.62A7.68,7.68,0,0,0,115.57,314.59Z"/><path d="M135.56,307.45a2.59,2.59,0,0,1-1.87-.71,2.71,2.71,0,0,1,0-3.7,2.56,2.56,0,0,1,1.89-.71,2.61,2.61,0,0,1,1.87.71,2.71,2.71,0,0,1,0,3.7A2.61,2.61,0,0,1,135.56,307.45Zm-1.85,25.41V311.11h3.7v21.75Z"/><path d="M156.73,318.16a3.2,3.2,0,0,0-1.2-2.56,6.19,6.19,0,0,0-4-1,14.6,14.6,0,0,0-3.8.48,17.11,17.11,0,0,0-3,1.12l-.33-3.78a13.62,13.62,0,0,1,3.38-1.28,17.42,17.42,0,0,1,4.18-.49,11.05,11.05,0,0,1,5.06,1,6.1,6.1,0,0,1,2.77,2.75,9.45,9.45,0,0,1,.86,4.16v14.32h-3.74v-3.4a11.57,11.57,0,0,1-2.85,2.73,7.81,7.81,0,0,1-4.45,1.13,7.44,7.44,0,0,1-4.71-1.47,5,5,0,0,1-1.89-4.24,6.61,6.61,0,0,1,.53-2.75,4.66,4.66,0,0,1,1.59-1.91,10,10,0,0,1,2.65-1.26,24.08,24.08,0,0,1,3.72-.84,26.61,26.61,0,0,0,2.64-.55,9.55,9.55,0,0,0,1.85-.67,1.18,1.18,0,0,0,.63-.56A2.66,2.66,0,0,0,156.73,318.16Zm.16,3.66a10.81,10.81,0,0,1-2.08.82,28.36,28.36,0,0,1-3,.69,10.69,10.69,0,0,0-3.75,1.28,2.91,2.91,0,0,0-1.29,2.67,2.82,2.82,0,0,0,1.22,2.5,5.11,5.11,0,0,0,2.9.81,6.37,6.37,0,0,0,2.71-.56,6.12,6.12,0,0,0,2-1.51,7.16,7.16,0,0,0,1.23-2Z"/></svg>