<svg width="40" height="45" viewBox="0 0 40 45" fill="none" xmlns="http://www.w3.org/2000/svg">
<path d="M9.56337 44.2223C5.0396 42.7078 2.05306 38.9866 0.867215 35.4817C-0.757829 30.7219 -0.0990411 25.8757 2.84361 22.1111C6.04977 18.0005 10.9688 16.2264 16.2832 16.1831V23.5823C13.7797 24.2747 11.2763 24.7074 9.47555 26.2218C6.22546 28.9911 7.05993 33.7941 10.3539 36.0442C12.5499 37.5154 15.1852 37.9481 17.6447 36.7365C19.4893 35.8278 21.4218 33.1451 21.4218 30.4623L21.5096 0H29.1518C29.8984 5.92804 33.7633 10.3416 40 10.4714V17.7408C36.135 18.0437 33.0167 16.7456 29.4153 14.885L29.2396 29.7267C29.2396 33.5778 27.5267 37.2558 25.0233 40.0683C21.2022 44.3521 15.273 46.1262 9.56337 44.2656V44.2223Z" fill="black"/>
</svg>
